<svg version="1.2" xmlns="http://www.w3.org/2000/svg" viewBox="0 0 794 397" width="794" height="397">
	<title>rust-move-copy-borrow-svg</title>
	<style>
		.s0 { fill: none;stroke: #03a9f4;stroke-width: 3.8 } 
		.s1 { fill: none;stroke: #3f51b5;stroke-width: 3.8 } 
		.s2 { fill: #000000 } 
		.s3 { fill: #03a9f4 } 
		.s4 { fill: #3f51b5 } 
		.s5 { fill: none;stroke: #3f51b5;stroke-width: 3.8;stroke-dasharray: 4,4 } 
		.s6 { fill: none;stroke: #81d4fa;stroke-width: 3.8;stroke-dasharray: 4,4 } 
		.s7 { fill: none;stroke: #81d4fa;stroke-width: 3.8 } 
		.s8 { fill: #ff9800 } 
		.s9 { fill: #81d4fa } 
		.s10 { fill: none;stroke: #03a9f4;stroke-width: 3.8;stroke-dasharray: 4,4 } 
		.s11 { fill: none;stroke: #ff9800;stroke-width: 1.9 } 
		.s12 { fill: none;stroke: #9c27b0;stroke-width: 3.8 } 
		.s13 { fill: #9c27b0 } 
		.s14 { fill: none;stroke: #9c27b0;stroke-width: 3.8;stroke-dasharray: 4,4 } 
	</style>
	<g id="g4512">
		<g id="g4514">
			<g id="g4904">
				<path id="path4906" class="s0" d="m448 345v-33.4"/>
			</g>
			<g id="g4908">
				<path id="path4910" class="s1" d="m447.8 119.7l71 41v32.1"/>
			</g>
			<path id="path4912" class="s2" d="m422.3 18.8l-1.9-1-1.5 0.8-0.5-0.8 1.1-0.6-1.6-0.9 0.5-0.8 1.5 0.9v-1.2h1v1.8l1.8 1v-2.1l-1.4-0.9 0.4-0.8 1 0.6v-1.8h1v1.8l1-0.6 0.5 0.8-1.5 0.9v2.1l1.9-1v-1.8h0.9v1.2l1.5-0.9 0.5 0.8-1.5 0.9 1 0.6-0.4 0.8-1.6-0.8-1.8 1 1.8 1.1 1.6-0.8 0.4 0.8-1 0.6 1.5 0.9-0.5 0.8-1.5-0.9v1.2h-0.9v-1.8l-1.9-1v2.1l1.5 0.9-0.5 0.8-1-0.6v1.8h-1v-1.8l-1 0.6-0.4-0.8 1.4-0.9v-2.1l-1.8 1v1.8h-1v-1.2l-1.5 0.9-0.5-0.8 1.6-0.9-1.1-0.6 0.5-0.8 1.5 0.8z"/>
			<path id="path4914" fill-rule="evenodd" class="s2" d="m444 20.5q0 2.1-0.9 3.2-0.9 1.2-2.4 1.1-1.4 0-2.2-1l-0.1 0.9h-2v-12h2.2v4.3q0.8-0.9 2.1-0.9 1.5 0 2.4 1.1 0.9 1.1 0.9 3.2zm-2.3-0.2q0-1.2-0.4-1.8-0.4-0.6-1.2-0.6-1.1 0-1.5 0.9v3.3q0.4 0.9 1.5 0.9 1.1 0 1.5-1.1 0.1-0.5 0.1-1.6z"/>
			<path id="path4916" fill-rule="evenodd" class="s2" d="m445 20.4q0-1.3 0.5-2.3 0.5-1 1.4-1.5 0.9-0.5 2.1-0.5 1.7 0 2.8 1 1.1 1.1 1.2 2.9v0.5q0 2-1.1 3.2-1.1 1.2-2.9 1.1-1.8 0.1-2.9-1.1-1.1-1.2-1.1-3.2zm2.3 0.1q0 1.3 0.4 1.9 0.5 0.6 1.3 0.6 0.8 0 1.3-0.6 0.5-0.6 0.5-2 0-1.2-0.5-1.8-0.5-0.7-1.3-0.7-0.8 0-1.3 0.6-0.4 0.7-0.4 2z"/>
			<path id="path4918" class="s2" d="m459.2 18.3q-0.5 0-0.8 0-1.3 0-1.7 0.8v5.6h-2.3v-8.5h2.2v1q0.7-1.1 1.9-1.1 0.4 0 0.7 0.1z"/>
			<path id="path4920" class="s2" d="m465 18.3q-0.4 0-0.8 0-1.3 0-1.7 0.8v5.6h-2.2v-8.5h2.1l0.1 1q0.6-1.1 1.8-1.1 0.4 0 0.7 0.1z"/>
			<path id="path4922" fill-rule="evenodd" class="s2" d="m465.5 20.4q0-1.3 0.5-2.3 0.4-1 1.4-1.5 0.9-0.5 2.1-0.5 1.7 0 2.8 1 1 1.1 1.2 2.9v0.5q0 2-1.1 3.2-1.1 1.2-2.9 1.1-1.9 0.1-2.9-1.1-1.1-1.2-1.1-3.2zm2.2 0.1q0 1.3 0.5 1.9 0.4 0.6 1.3 0.6 0.8 0 1.3-0.6 0.4-0.6 0.4-2 0-1.2-0.4-1.8-0.5-0.7-1.3-0.7-0.9 0-1.3 0.6-0.5 0.7-0.5 2z"/>
			<path id="path4924" class="s2" d="m482.3 21.6l1.1-5.4h2.1l-2.1 8.5h-1.9l-1.6-5.3-1.6 5.3h-1.9l-2.1-8.5h2.1l1.1 5.4 1.6-5.4h1.6z"/>
			<path id="path4926" class="s3" d="m431.5 90.4q0.1 0.1 0.2 0.3 0.2 0.4 0.5 0.6 0.5 0.2 1.2 0.2 0.7 0 1.2-0.3 0.3-0.1 0.4-0.4 0.2-0.2 0.2-0.5 0-0.3-0.2-0.6-0.1-0.3-0.5-0.5-0.4-0.2-1.2-0.3-1.2-0.1-1.7-0.4-0.6-0.4-0.9-0.9-0.4-0.6-0.4-1.3 0-0.6 0.3-1.1 0.3-0.5 0.9-0.8 0.8-0.5 1.9-0.5 1.2 0 1.9 0.5 0.6 0.3 1 0.9 0.1 0.2 0.2 0.5l-1.2 0.4q-0.1-0.1-0.1-0.3-0.3-0.4-0.6-0.6-0.5-0.2-1.2-0.2-0.7 0-1.2 0.2-0.3 0.2-0.4 0.5-0.2 0.2-0.2 0.5 0 0.3 0.2 0.6 0.1 0.3 0.5 0.4 0.3 0.3 1.2 0.4 1.2 0.1 1.7 0.4 0.6 0.4 0.9 0.9 0.4 0.6 0.4 1.3 0 0.6-0.3 1.1-0.3 0.5-0.9 0.8-0.8 0.5-1.9 0.5-1.2 0-1.9-0.5-0.6-0.3-1-0.9-0.1-0.2-0.2-0.5z"/>
			<path id="path4928" class="s2" d="m542.4 65.9h2.3v-9.5h-2v-1.1h3.3v10.6h2v1.1h-5.6z"/>
			<path id="path4930" fill-rule="evenodd" class="s2" d="m550.1 62.1q0-1.3 0.5-2.2 0.4-0.7 1-1.1 0.7-0.4 1.6-0.4 1 0 1.6 0.4 0.7 0.4 1.1 1.1 0.5 0.9 0.5 2.2v1.3h-5.1v0.1q0 1 0.4 1.6 0.3 0.4 0.7 0.7 0.4 0.2 0.9 0.2 0.6 0 1-0.2 0.4-0.3 0.7-0.7 0.1-0.3 0.3-0.6l1.1 0.5q-0.1 0.3-0.3 0.6-0.4 0.8-1.1 1.2-0.7 0.4-1.7 0.4-0.9 0-1.6-0.4-0.7-0.4-1.1-1.1-0.5-0.9-0.5-2.2zm1.2 0v0.2h3.8v-0.2q0-1-0.3-1.6-0.3-0.4-0.7-0.7-0.4-0.2-0.9-0.2-0.5 0-0.8 0.2-0.4 0.3-0.7 0.7-0.4 0.6-0.4 1.6z"/>
			<path id="path4932" class="s2" d="m558 58.6h1.8v-3.3h1.3v3.3h2.6v1.1h-2.6v4.2q0 0.9 0.3 1.5 0.2 0.3 0.5 0.5 0.2 0.1 0.5 0.1 0.4 0 0.6-0.1 0.1-0.1 0.3-0.2 0.4-0.5 0.5-1.4l1.3 0.3q-0.1 0.7-0.5 1.3-0.3 0.6-0.9 1-0.5 0.3-1.3 0.3-0.7 0-1.2-0.3-0.6-0.4-0.9-1-0.5-0.8-0.5-2v-4.2h-1.8z"/>
			<path id="path4934" class="s3" d="m575.3 64.9q0.1 0.1 0.2 0.3 0.2 0.4 0.6 0.6 0.4 0.2 1.1 0.2 0.8 0 1.2-0.2 0.3-0.2 0.5-0.5 0.1-0.2 0.1-0.5 0-0.3-0.1-0.6-0.2-0.3-0.5-0.4-0.4-0.3-1.3-0.4-1.1-0.1-1.7-0.4-0.6-0.4-0.9-0.9-0.3-0.6-0.3-1.3 0-0.6 0.2-1.1 0.3-0.5 0.9-0.8 0.8-0.5 2-0.5 1.1 0 1.8 0.5 0.7 0.3 1 0.9 0.1 0.2 0.2 0.5l-1.2 0.4q0-0.1-0.1-0.3-0.2-0.4-0.6-0.6-0.4-0.2-1.1-0.2-0.8 0-1.3 0.3-0.2 0.1-0.4 0.4-0.1 0.2-0.1 0.5 0 0.3 0.1 0.6 0.2 0.3 0.5 0.5 0.4 0.2 1.3 0.3 1.1 0.1 1.7 0.4 0.5 0.4 0.9 0.9 0.3 0.6 0.3 1.3 0 0.6-0.3 1.1-0.3 0.5-0.8 0.8-0.8 0.5-2 0.5-1.1 0-1.9-0.5-0.6-0.3-0.9-0.9-0.2-0.2-0.2-0.5z"/>
			<path id="path4936" class="s2" d="m590.2 58.9h6.1v1.2h-6.1zm0 3.4h6.1v1.1h-6.1z"/>
			<path id="path4938" class="s2" d="m606.1 64.6q0 0 0 0l1.3-0.2q0 0.1 0 0.1 0 0.4 0.2 0.7 0.2 0.4 0.5 0.6 0.5 0.2 1.1 0.2 0.6 0 1-0.2 0.3-0.2 0.6-0.6 0.2-0.4 0.2-1 0-0.5-0.3-1-0.4-0.7-1.7-1.4-1.8-1-2.3-2-0.5-0.8-0.5-1.7 0-0.8 0.4-1.6 0.4-0.6 1-0.9 0.7-0.5 1.7-0.5 1 0 1.8 0.5 0.6 0.3 0.9 0.9 0.4 0.6 0.4 1.2 0 0.1 0 0.1l-1.3 0.1q0 0 0-0.1 0-0.4-0.2-0.7-0.2-0.3-0.6-0.5-0.4-0.3-1-0.3-0.6 0-1 0.2-0.4 0.3-0.6 0.6-0.2 0.5-0.2 1 0 0.5 0.3 1 0.4 0.7 1.7 1.4 1.8 1.1 2.3 2 0.5 0.9 0.5 1.7 0 0.9-0.4 1.6-0.4 0.6-1 1-0.7 0.4-1.7 0.4-1.1 0-1.8-0.5-0.6-0.3-1-0.9-0.3-0.6-0.3-1.2z"/>
			<path id="path4940" class="s2" d="m614 58.6h1.8v-3.3h1.3v3.3h2.6v1.1h-2.6v4.2q0 0.9 0.3 1.5 0.2 0.3 0.5 0.5 0.2 0.1 0.5 0.1 0.4 0 0.6-0.1 0.1-0.1 0.3-0.2 0.4-0.5 0.5-1.4l1.3 0.3q-0.1 0.7-0.5 1.3-0.3 0.6-0.9 1-0.5 0.3-1.3 0.3-0.7 0-1.2-0.3-0.6-0.4-0.9-1-0.5-0.8-0.5-2v-4.2h-1.8z"/>
			<path id="path4942" class="s2" d="m623.2 58.6h1.2v1.5q0.1-0.3 0.3-0.5 0.4-0.6 0.8-0.9 0.5-0.3 1-0.3 0.5 0 1 0.3 0.5 0.3 0.8 0.8 0.1 0.2 0.2 0.5l-1.2 0.5q0-0.1-0.1-0.3-0.2-0.3-0.5-0.5-0.2-0.1-0.5-0.1-0.4 0-0.7 0.2-0.3 0.2-0.6 0.6-0.5 0.8-0.5 2.1v4.5h-1.2z"/>
			<path id="path4944" class="s2" d="m630.4 65.9h2.3v-6.2h-2v-1.1h3.3v7.3h2v1.1h-5.6zm1.8-9.8q0-0.3 0.2-0.5 0.1-0.2 0.3-0.3 0.2-0.2 0.5-0.2 0.3 0 0.6 0.2 0.2 0.1 0.3 0.3 0.1 0.2 0.1 0.5 0 0.4-0.1 0.6-0.1 0.2-0.3 0.3-0.3 0.1-0.6 0.1-0.3 0-0.5-0.1-0.2-0.1-0.3-0.3-0.2-0.3-0.2-0.6z"/>
			<path id="path4946" class="s2" d="m638.2 58.6h1.3v1.2q0-0.1 0-0.1 0.4-0.7 0.9-1 0.6-0.3 1.2-0.3 0.7 0 1.2 0.3 0.6 0.3 0.9 1 0.6 0.9 0.6 2.4v4.9h-1.3v-4.9q0-1-0.4-1.7-0.2-0.4-0.6-0.6-0.3-0.2-0.8-0.2-0.4 0-0.7 0.2-0.4 0.2-0.7 0.6-0.3 0.7-0.3 1.7v4.9h-1.3z"/>
			<path id="path4948" fill-rule="evenodd" class="s2" d="m646.2 66.6q0.2-0.4 0.6-0.7-0.1-0.1-0.2-0.3-0.2-0.4-0.2-0.8 0-0.4 0.2-0.8 0.2-0.4 0.4-0.6-0.3-0.2-0.6-0.7-0.3-0.6-0.3-1.4 0-0.9 0.3-1.5 0.4-0.6 1-0.9 0.7-0.5 1.7-0.5 0.6 0 1 0.2h2.6v1.1h-1q0 0 0.1 0.1 0.3 0.6 0.3 1.5 0 0.8-0.3 1.4-0.4 0.6-1 0.9-0.7 0.4-1.7 0.4-0.6 0-1.1-0.1-0.2 0.1-0.2 0.2-0.3 0.2-0.3 0.5 0 0.3 0.2 0.5 0.3 0.3 1.1 0.3 0 0 0 0h0.8q1.1 0 1.9 0.4 0.5 0.3 0.8 0.8 0.3 0.5 0.3 1.2 0 0.7-0.3 1.2-0.4 0.6-1 1-0.8 0.5-2.1 0.5-1.2 0-2-0.5-0.6-0.4-1-0.9-0.3-0.6-0.3-1.3 0-0.7 0.3-1.2zm1 1.2q0 0.4 0.2 0.7 0.2 0.3 0.5 0.5 0.5 0.3 1.3 0.3 0.8 0 1.4-0.3 0.3-0.2 0.5-0.5 0.2-0.3 0.2-0.7 0-0.4-0.2-0.6-0.1-0.3-0.4-0.4-0.4-0.3-1.1-0.3h-0.8q-0.6 0-1 0.3-0.3 0.1-0.5 0.4-0.1 0.2-0.1 0.6zm0.3-5.7q0.3 0.4 0.6 0.6 0.4 0.2 1 0.2 0.6 0 1-0.2 0.3-0.2 0.5-0.6 0.2-0.4 0.2-0.8 0-0.6-0.2-0.9-0.2-0.4-0.5-0.6-0.4-0.2-0.8-0.2h-0.2q-0.6 0-1 0.2-0.3 0.2-0.6 0.6-0.2 0.3-0.2 0.9 0 0.4 0.2 0.8z"/>
			<path id="path4950" class="s2" d="m656 65.9q0-0.4 0.2-0.7 0.1-0.2 0.3-0.4 0.3-0.1 0.7-0.1 0.4 0 0.7 0.1 0.3 0.2 0.4 0.4 0.2 0.3 0.2 0.7 0 0.4-0.2 0.7-0.1 0.3-0.4 0.4-0.3 0.2-0.7 0.2-0.4 0-0.7-0.2-0.2-0.1-0.3-0.4-0.2-0.3-0.2-0.7zm0-6.2q0-0.4 0.2-0.7 0.1-0.3 0.3-0.4 0.3-0.2 0.7-0.2 0.4 0 0.7 0.2 0.3 0.1 0.4 0.4 0.2 0.3 0.2 0.7 0 0.4-0.2 0.7-0.1 0.2-0.4 0.4-0.3 0.1-0.7 0.1-0.4 0-0.7-0.1-0.2-0.2-0.3-0.4-0.2-0.3-0.2-0.7z"/>
			<path id="path4952" class="s2" d="m664 65.9q0-0.4 0.2-0.7 0.1-0.2 0.3-0.4 0.3-0.1 0.7-0.1 0.4 0 0.7 0.1 0.3 0.2 0.4 0.4 0.2 0.3 0.2 0.7 0 0.4-0.2 0.7-0.1 0.3-0.4 0.4-0.3 0.2-0.7 0.2-0.4 0-0.7-0.2-0.2-0.1-0.3-0.4-0.2-0.3-0.2-0.7zm0-6.2q0-0.4 0.2-0.7 0.1-0.3 0.3-0.4 0.3-0.2 0.7-0.2 0.4 0 0.7 0.2 0.3 0.1 0.4 0.4 0.2 0.3 0.2 0.7 0 0.4-0.2 0.7-0.1 0.2-0.4 0.4-0.3 0.1-0.7 0.1-0.4 0-0.7-0.1-0.2-0.2-0.3-0.4-0.2-0.3-0.2-0.7z"/>
			<path id="path4954" class="s2" d="m670.2 59h1.8v-1.5q0-0.9 0.4-1.5 0.2-0.5 0.7-0.8 0.5-0.3 1.2-0.3 0.7 0 1.2 0.3 0.5 0.3 0.8 0.8 0.2 0.4 0.3 0.9l-1.2 0.3q-0.1-0.4-0.2-0.7-0.2-0.2-0.4-0.3-0.2-0.2-0.5-0.2-0.2 0-0.4 0.2-0.3 0.1-0.4 0.3-0.2 0.4-0.2 1v1.5h2.7v1.2h-2.7v6.8h-1.3v-6.8h-1.8z"/>
			<path id="path4956" class="s2" d="m679.2 58.6h1.2v1.5q0.1-0.3 0.3-0.5 0.4-0.6 0.8-0.9 0.5-0.3 1-0.3 0.5 0 1 0.3 0.5 0.3 0.8 0.8 0.1 0.2 0.2 0.5l-1.2 0.5q0-0.1-0.1-0.3-0.2-0.3-0.5-0.5-0.2-0.1-0.5-0.1-0.4 0-0.7 0.2-0.3 0.2-0.6 0.6-0.5 0.8-0.5 2.1v4.5h-1.2z"/>
			<path id="path4958" fill-rule="evenodd" class="s2" d="m686.1 62.1q0-1.3 0.5-2.2 0.4-0.7 1-1.1 0.7-0.4 1.6-0.4 1 0 1.6 0.4 0.7 0.4 1.1 1.1 0.5 0.9 0.5 2.2v1.4q0 1.3-0.5 2.2-0.4 0.7-1.1 1.1-0.6 0.4-1.6 0.4-0.9 0-1.6-0.4-0.6-0.4-1-1.1-0.5-0.9-0.5-2.2zm1.6 3.1q0.3 0.4 0.7 0.7 0.3 0.2 0.8 0.2 0.5 0 0.9-0.2 0.4-0.3 0.7-0.7 0.3-0.7 0.3-1.6v-1.5q0-1-0.3-1.6-0.3-0.4-0.7-0.7-0.4-0.2-0.9-0.2-0.5 0-0.8 0.2-0.4 0.3-0.7 0.7-0.4 0.6-0.4 1.6v1.5q0 0.9 0.4 1.6z"/>
			<path id="path4960" class="s2" d="m694.1 58.6h1.2v0.5q0.2-0.4 0.6-0.5 0.2-0.2 0.5-0.2 0.3 0 0.5 0.2 0.3 0.2 0.5 0.5 0.2 0.3 0.3 0.5 0.1-0.3 0.2-0.5 0.2-0.4 0.5-0.5 0.2-0.2 0.5-0.2 0.3 0 0.5 0.2 0.4 0.2 0.6 0.5 0.4 0.8 0.4 2.1v5.8h-1.3v-5.8q0-1.1-0.3-1.5-0.2-0.1-0.3-0.1-0.1 0-0.3 0.1-0.3 0.4-0.3 1.5v5.8h-1.3v-5.8q0-1.1-0.4-1.5-0.1-0.1-0.2-0.1-0.2 0-0.3 0.1-0.4 0.4-0.4 1.5v5.8h-1.2z"/>
			<path id="path4962" class="s2" d="m703.4 61.2q0-3.5 1.4-5.9 1.1-1.9 2.9-2.9l0.6 1q-1.5 0.9-2.4 2.4-1.2 2.2-1.2 5.4 0 3.2 1.2 5.4 0.9 1.5 2.4 2.5l-0.6 0.9q-1.8-1-2.9-2.9-1.4-2.4-1.4-5.9z"/>
			<path id="path4964" class="s2" d="m712.3 54.7q0 2.6-0.1 5.1h-1.2q-0.1-2.5-0.1-5.1zm3.2 0q0 2.6-0.1 5.1h-1.2q-0.1-2.5-0.1-5.1z"/>
			<path id="path4966" class="s2" d="m718.2 55.3h1.3v4.5q0-0.1 0-0.1 0.4-0.7 0.9-1 0.6-0.3 1.2-0.3 0.7 0 1.2 0.3 0.6 0.3 0.9 1 0.6 0.9 0.6 2.4v4.9h-1.3v-4.9q0-1-0.4-1.7-0.2-0.4-0.6-0.6-0.3-0.2-0.8-0.2-0.4 0-0.7 0.2-0.4 0.2-0.7 0.6-0.3 0.7-0.3 1.7v4.9h-1.3z"/>
			<path id="path4968" fill-rule="evenodd" class="s2" d="m726.1 62.1q0-1.3 0.5-2.2 0.4-0.7 1-1.1 0.7-0.4 1.6-0.4 1 0 1.6 0.4 0.7 0.4 1.1 1.1 0.5 0.9 0.5 2.2v1.3h-5.1v0.1q0 1 0.4 1.6 0.3 0.4 0.7 0.7 0.4 0.2 0.9 0.2 0.6 0 1-0.2 0.4-0.3 0.7-0.7 0.1-0.3 0.3-0.6l1.1 0.5q-0.1 0.3-0.3 0.6-0.4 0.8-1.1 1.2-0.7 0.4-1.7 0.4-0.9 0-1.6-0.4-0.7-0.4-1.1-1.1-0.5-0.9-0.5-2.2zm1.2 0v0.2h3.8v-0.2q0-1-0.3-1.6-0.3-0.4-0.7-0.7-0.4-0.2-0.9-0.2-0.5 0-0.8 0.2-0.4 0.3-0.7 0.7-0.4 0.6-0.4 1.6z"/>
			<path id="path4970" class="s2" d="m734.4 65.9h2.3v-9.5h-2v-1.1h3.3v10.6h2v1.1h-5.6z"/>
			<path id="path4972" class="s2" d="m742.4 65.9h2.3v-9.5h-2v-1.1h3.3v10.6h2v1.1h-5.6z"/>
			<path id="path4974" fill-rule="evenodd" class="s2" d="m750.1 62.1q0-1.3 0.5-2.2 0.4-0.7 1-1.1 0.7-0.4 1.6-0.4 1 0 1.6 0.4 0.7 0.4 1.1 1.1 0.5 0.9 0.5 2.2v1.4q0 1.3-0.5 2.2-0.4 0.7-1.1 1.1-0.6 0.4-1.6 0.4-0.9 0-1.6-0.4-0.6-0.4-1-1.1-0.5-0.9-0.5-2.2zm1.6 3.1q0.3 0.4 0.7 0.7 0.3 0.2 0.8 0.2 0.5 0 0.9-0.2 0.4-0.3 0.7-0.7 0.3-0.7 0.3-1.6v-1.5q0-1-0.3-1.6-0.3-0.4-0.7-0.7-0.4-0.2-0.9-0.2-0.5 0-0.8 0.2-0.4 0.3-0.7 0.7-0.4 0.6-0.4 1.6v1.5q0 0.9 0.4 1.6z"/>
			<path id="path4976" class="s2" d="m760.3 54.7q0 2.6-0.1 5.1h-1.2q-0.1-2.5-0.1-5.1zm3.2 0q0 2.6-0.1 5.1h-1.2q-0.1-2.5-0.1-5.1z"/>
			<path id="path4978" class="s2" d="m766.2 69.1q1.5-1 2.3-2.5 1.3-2.2 1.3-5.4 0-3.2-1.3-5.4-0.8-1.5-2.3-2.4l0.6-1q1.8 1 2.9 2.9 1.4 2.4 1.4 5.9 0 3.5-1.4 5.9-1.1 1.9-2.9 2.9z"/>
			<path id="path4980" class="s2" d="m775.9 69.7q0.3-0.4 0.5-0.8 0.5-0.9 0.7-1.7-0.3-0.1-0.6-0.2-0.2-0.1-0.3-0.4-0.2-0.3-0.2-0.7 0-0.4 0.2-0.7 0.1-0.2 0.3-0.4 0.3-0.1 0.7-0.1 0.4 0 0.7 0.1 0.3 0.2 0.4 0.4 0.2 0.3 0.2 0.7 0 0 0 0 0 1.8-1 3.5-0.3 0.5-0.6 0.9zm0.1-10q0-0.4 0.2-0.7 0.1-0.2 0.4-0.4 0.3-0.1 0.7-0.1 0.3 0 0.6 0.1 0.3 0.2 0.4 0.4 0.2 0.3 0.2 0.7 0 0.4-0.2 0.7-0.1 0.3-0.4 0.4-0.3 0.2-0.6 0.2-0.4 0-0.7-0.2-0.3-0.1-0.4-0.4-0.2-0.3-0.2-0.7z"/>
			<path id="path4982" class="s2" d="m542.4 115.9q0.5 0 0.9-0.1 0.3 0 0.6-0.2 0.5-0.2 0.7-0.7 0.2-0.3 0.2-0.8 0-0.5-0.4-1.4-0.4-1.1-0.4-1.9 0-0.8 0.3-1.4 0.4-0.6 1.1-1 1-0.6 2.5-0.6v1.2q-1.1 0-1.7 0.3-0.5 0.3-0.7 0.7-0.2 0.4-0.2 0.8 0 0.6 0.3 1.4 0.5 1.1 0.5 1.9 0 0.8-0.4 1.4-0.3 0.6-0.9 1 0.6 0.4 0.9 1 0.4 0.6 0.4 1.4 0 0.8-0.5 1.9-0.3 0.9-0.3 1.4 0 0.4 0.2 0.8 0.2 0.4 0.7 0.7 0.6 0.4 1.7 0.4v1.1q-1.5 0-2.5-0.6-0.7-0.4-1.1-1-0.3-0.6-0.3-1.4 0-0.8 0.4-1.9 0.4-0.9 0.4-1.3 0-0.5-0.2-0.9-0.2-0.4-0.7-0.7-0.3-0.1-0.6-0.2-0.4-0.1-0.9-0.1z"/>
			<path id="path4984" class="s2" d="m558.4 121.2h2.2v-9.5h-2v-1.1h3.3v10.6h2.1v1.1h-5.6z"/>
			<path id="path4986" fill-rule="evenodd" class="s2" d="m566 117.4q0-1.3 0.5-2.2 0.4-0.7 1.1-1.1 0.6-0.4 1.6-0.4 0.9 0 1.5 0.4 0.7 0.4 1.1 1.1 0.5 0.9 0.5 2.2v1.3h-5v0.1q0 1 0.3 1.6 0.3 0.5 0.7 0.7 0.4 0.2 1 0.2 0.5 0 0.9-0.2 0.5-0.2 0.7-0.7 0.2-0.3 0.3-0.6l1.2 0.5q-0.2 0.3-0.4 0.7-0.4 0.7-1 1.1-0.8 0.4-1.7 0.4-1 0-1.7-0.4-0.7-0.4-1.1-1.1-0.5-0.9-0.5-2.2zm1.3 0v0.2h3.8v-0.2q0-0.9-0.4-1.6-0.3-0.4-0.7-0.7-0.3-0.2-0.8-0.2-0.5 0-0.9 0.2-0.4 0.3-0.7 0.7-0.3 0.7-0.3 1.6z"/>
			<path id="path4988" class="s2" d="m574 113.9h1.7v-3.3h1.3v3.3h2.6v1.1h-2.6v4.2q0 0.9 0.3 1.5 0.2 0.3 0.5 0.5 0.3 0.1 0.6 0.1 0.3 0 0.5-0.1 0.2-0.1 0.3-0.2 0.5-0.5 0.5-1.4l1.3 0.3q-0.1 0.7-0.4 1.3-0.4 0.6-1 1-0.5 0.3-1.2 0.3-0.8 0-1.3-0.3-0.6-0.4-0.9-1-0.5-0.8-0.5-2v-4.2h-1.7z"/>
			<path id="path4990" class="s4" d="m591.1 113.9h1.3v1.6q0.1-0.4 0.2-0.6 0.4-0.6 0.9-0.9 0.4-0.3 0.9-0.3 0.6 0 1.1 0.3 0.5 0.3 0.7 0.8 0.2 0.3 0.2 0.5l-1.1 0.5q-0.1-0.1-0.2-0.3-0.2-0.3-0.5-0.5-0.2-0.1-0.5-0.1-0.4 0-0.6 0.2-0.4 0.2-0.7 0.6-0.4 0.8-0.4 2.1v4.5h-1.3z"/>
			<path id="path4992" class="s2" d="m606.1 114.2h6.1v1.2h-6.1zm0 3.4h6.1v1.1h-6.1z"/>
			<path id="path4994" fill-rule="evenodd" class="s2" d="m622.5 117.6q0.3-0.5 1.1-1.3-0.2-0.3-0.4-0.6-0.8-1.4-0.8-2.6 0-0.9 0.4-1.5 0.3-0.5 0.8-0.8 0.6-0.3 1.3-0.3 0.8 0 1.4 0.3 0.5 0.3 0.8 0.8 0.3 0.6 0.4 1.5-0.1 0.8-0.5 1.6-0.4 0.8-1.7 1.8 0.5 0.6 1.1 1.3 0.4 0.3 0.7 0.7v-2h1.2v2.7q0 0.5-0.1 1 0.6 1.1 0.6 2.1h-1.3q0-0.3 0-0.7-0.3 0.3-0.6 0.5-0.7 0.4-1.7 0.4-1 0-1.7-0.4-0.7-0.4-1.1-1.1-0.4-0.7-0.4-1.7 0-0.8 0.5-1.7zm1.2-4.5q0 0.9 0.6 2 0.2 0.2 0.3 0.4 0.9-0.7 1.2-1.3 0.4-0.5 0.4-1.1 0-0.5-0.2-0.9-0.2-0.3-0.5-0.4-0.2-0.2-0.6-0.2-0.3 0-0.5 0.2-0.3 0.1-0.5 0.4-0.2 0.4-0.2 0.9zm-0.4 6.2q0 0.7 0.2 1.2 0.3 0.4 0.7 0.6 0.4 0.2 0.9 0.2 0.6 0 1-0.2 0.4-0.2 0.7-0.6 0-0.2 0.1-0.3-0.5-0.7-1.6-1.9-0.5-0.6-0.9-1.1-0.5 0.5-0.8 0.9-0.3 0.6-0.3 1.2z"/>
			<path id="path4996" class="s3" d="m631.3 120.2q0 0.2 0.1 0.3 0.2 0.4 0.6 0.6 0.4 0.2 1.1 0.2 0.8 0 1.3-0.2 0.2-0.2 0.4-0.5 0.1-0.2 0.1-0.5 0-0.3-0.1-0.6-0.2-0.3-0.5-0.4-0.4-0.3-1.3-0.4-1.1-0.1-1.7-0.4-0.5-0.3-0.9-0.9-0.3-0.6-0.3-1.3 0-0.6 0.3-1.1 0.3-0.5 0.8-0.8 0.8-0.5 2-0.5 1.1 0 1.9 0.5 0.6 0.3 0.9 0.9 0.2 0.3 0.3 0.5l-1.2 0.4q-0.1-0.1-0.2-0.3-0.2-0.3-0.6-0.6-0.4-0.2-1.1-0.2-0.8 0-1.2 0.3-0.3 0.1-0.5 0.4-0.1 0.2-0.1 0.5 0 0.3 0.1 0.6 0.2 0.3 0.5 0.5 0.4 0.2 1.3 0.3 1.1 0.1 1.7 0.5 0.6 0.3 0.9 0.8 0.3 0.6 0.3 1.3 0 0.6-0.2 1.1-0.3 0.5-0.9 0.8-0.8 0.5-2 0.5-1.1 0-1.8-0.5-0.7-0.3-1-0.9-0.1-0.2-0.2-0.5z"/>
			<path id="path4998" class="s2" d="m639.8 125q0.3-0.4 0.5-0.8 0.5-0.9 0.7-1.7-0.3 0-0.5-0.2-0.3-0.1-0.4-0.4-0.2-0.3-0.2-0.7 0-0.4 0.2-0.7 0.1-0.2 0.4-0.4 0.3-0.1 0.7-0.1 0.4 0 0.7 0.1 0.2 0.2 0.4 0.4 0.1 0.3 0.1 0.7 0 0 0 0 0 1.8-1 3.5-0.3 0.5-0.6 0.9zm0.1-10q0-0.4 0.2-0.7 0.1-0.2 0.4-0.4 0.3-0.1 0.7-0.1 0.4 0 0.7 0.1 0.2 0.2 0.4 0.4 0.1 0.3 0.1 0.7 0 0.4-0.1 0.7-0.2 0.3-0.4 0.4-0.3 0.2-0.7 0.2-0.4 0-0.7-0.2-0.3-0.1-0.4-0.4-0.2-0.3-0.2-0.7z"/>
			<g id="g5000">
				<path id="path5002" class="s0" d="m448 119v-58"/>
			</g>
			<circle id="path5004" class="s3" cx="447.9" cy="62.1" r="8.6"/>
			<g id="g5006">
				<path id="path5008" class="s5" d="m518.8 196.4v11.8"/>
			</g>
			<g id="g5010">
				<path id="path5012" class="s6" d="m448 195.5v11.8"/>
			</g>
			<g id="g5014">
				<path id="path5016" class="s7" d="m448 191.6v-72.6"/>
			</g>
			<circle id="path5018" class="s4" cx="448.1" cy="118.9" r="8.6"/>
			<path id="path5020" class="s4" d="m470.6 166.1h1.3v1.6q0.1-0.3 0.3-0.6 0.3-0.6 0.8-0.9 0.4-0.2 1-0.2 0.5 0 1 0.3 0.5 0.3 0.8 0.8 0.1 0.2 0.2 0.5l-1.2 0.5q0-0.2-0.1-0.3-0.2-0.4-0.5-0.5-0.2-0.2-0.5-0.2-0.4 0-0.7 0.2-0.4 0.2-0.6 0.7-0.5 0.8-0.5 2.1v4.5h-1.3z"/>
			<path id="path5022" class="s2" d="m479.5 173.5q0-0.4 0.1-0.7 0.2-0.3 0.4-0.4 0.3-0.2 0.7-0.2 0.4 0 0.7 0.2 0.2 0.1 0.4 0.4 0.2 0.3 0.2 0.7 0 0.4-0.2 0.7-0.2 0.2-0.4 0.4-0.3 0.1-0.7 0.1-0.4 0-0.7-0.1-0.2-0.2-0.4-0.4-0.1-0.3-0.1-0.7zm0-6.3q0-0.4 0.1-0.7 0.2-0.2 0.4-0.4 0.3-0.1 0.7-0.1 0.4 0 0.7 0.1 0.2 0.2 0.4 0.4 0.2 0.3 0.2 0.7 0 0.4-0.2 0.7-0.2 0.3-0.4 0.4-0.3 0.2-0.7 0.2-0.4 0-0.7-0.2-0.2-0.1-0.4-0.4-0.1-0.3-0.1-0.7z"/>
			<path id="path5024" class="s8" d="m497.4 162.3q0 2.5-0.1 5.1h-1.2q-0.1-2.6-0.1-5.1z"/>
			<path id="path5026" fill-rule="evenodd" class="s8" d="m501.2 170.8l0.2-1.5q0.2-1.2 0.9-1.9 0.5-0.7 1.1-1 0.7-0.4 1.6-0.4 0.9 0 1.6 0.4 0.6 0.4 0.9 1.2 0.4 0.9 0.2 2.4l-0.3 1.4q-0.2 1.2-0.8 2-0.5 0.6-1.2 1-0.6 0.3-1.5 0.3-1 0-1.6-0.4-0.2-0.1-0.4-0.3l-0.7 3.9h-1.3zm1.4 1.9q0.2 0.5 0.5 0.7 0.3 0.2 0.8 0.2 0.5 0 0.9-0.2 0.5-0.2 0.8-0.7 0.4-0.5 0.6-1.4l0.2-1.5q0.2-1.1-0.1-1.7-0.1-0.5-0.5-0.7-0.3-0.2-0.8-0.2-0.5 0-0.9 0.2-0.4 0.2-0.8 0.6-0.4 0.6-0.6 1.5l-0.2 1.5q-0.2 1 0.1 1.7z"/>
			<path id="path5028" class="s9" d="m446.1 225l-3.8-2.1-3 1.7-0.9-1.6 2.1-1.2-3.1-1.8 0.9-1.6 3.1 1.8v-2.4h1.9v3.5l3.7 2.1v-4.3l-3-1.7 0.9-1.7 2.1 1.2v-3.5h1.9v3.5l2.1-1.2 0.9 1.7-3 1.7v4.3l3.8-2.1v-3.5h1.8v2.4l3.1-1.8 0.9 1.6-3 1.8 2.1 1.2-1 1.6-3-1.7-3.8 2.1 3.8 2.2 3-1.7 1 1.6-2.1 1.2 3 1.8-0.9 1.6-3.1-1.8v2.4h-1.8v-3.5l-3.8-2.1v4.3l3 1.7-0.9 1.7-2.1-1.2v3.5h-1.9v-3.5l-2.1 1.2-0.9-1.7 3-1.7v-4.3l-3.7 2.1v3.5h-1.9v-2.4l-3.1 1.8-0.9-1.6 3.1-1.8-2.1-1.2 0.9-1.6 3 1.7z"/>
			<path id="path5030" class="s2" d="m542.4 319q1.1 0 1.8-0.4 0.4-0.3 0.7-0.7 0.2-0.3 0.2-0.8 0-0.5-0.4-1.3-0.5-1.1-0.4-1.9-0.1-0.9 0.3-1.5 0.4-0.6 1-1-0.6-0.3-1-0.9-0.4-0.7-0.3-1.5-0.1-0.8 0.4-1.9 0.4-0.8 0.4-1.3 0-0.5-0.2-0.9-0.3-0.3-0.7-0.6-0.7-0.4-1.8-0.4v-1.2q1.5 0 2.5 0.6 0.7 0.4 1.1 1.1 0.4 0.6 0.4 1.4 0 0.8-0.5 1.9-0.4 0.8-0.4 1.3 0 0.5 0.2 0.9 0.3 0.4 0.7 0.6 0.3 0.2 0.7 0.3 0.4 0.1 0.8 0.1v1.1q-0.4 0-0.8 0.1-0.4 0.1-0.7 0.3-0.4 0.2-0.7 0.6-0.2 0.4-0.2 0.9 0 0.5 0.4 1.3 0.5 1.1 0.5 1.9 0 0.8-0.4 1.4-0.4 0.7-1.1 1.1-1 0.5-2.5 0.5z"/>
			<g id="g5032">
				<path id="path5034" class="s7" d="m448 311.6v-52.6"/>
			</g>
			<g id="g5036">
				<path id="path5038" class="s6" d="m448 243.5v11.8"/>
			</g>
			<circle id="path5040" class="s3" cx="448.1" cy="310.9" r="8.6"/>
			<g id="g5042">
				<path id="path5044" class="s10" d="m448 349.3v11.7"/>
			</g>
			<path id="path5046" fill-rule="evenodd" class="s4" d="m526.5 220.4h-1v-1.1h-0.5v-1h1q0.5 0 0.5 0.5zm0 3.7h-1v-2.6h1zm-2.5-5h-2.4v-1h0.4v-2.1h-9.6v14.4l2.2 0.1v-1.6h1v2.6h-1l-2.7-0.1q-0.5 0-0.5-0.5v-15.4q0-0.5 0.5-0.5h10.6q0.5 0 0.5 0.5v2.6h1zm2.5 8.7h-1v-2.7h1zm0 3.7h-1v-2.6h1zm-9.4-12.4h-1.5v1.2h-1v-1.7q0-0.5 0.5-0.5h2zm3.3 0h-2.4v-1h2.4zm3.5 8.1l-5.3 0.6 1.1-1.9q-2.7-1.9-4.1-2.2v0.3h-1v-0.4q-0.6-0.1-1.4-0.1v-1.8q0.2 0 0.7 0 0.1 0 0.7 0v-0.4h1v0.6q2.1 0.4 5.2 2.3l1-1.8zm2.6 6.5q0 0.5-0.5 0.5h-1v-1h0.5v-0.5h1zm-10.8-6h-1.1v-2.7h1.1zm8.3 6.5h-2.3v-1h2.3zm-3.5 0h-2.4v-1h2.4zm-3.4 0h-1.9q-0.6 0-0.6-0.5v-1.1h1.1v0.6h1.4z"/>
			<path id="path5048" class="s3" d="m451.8 373.6h5.2l-3-5.2h0.2l6.5 6.4v0.2l-6.5 6.4h-0.2l3-5.2h-5.2q-1.5 0-2.8-0.6-1.4-0.6-2.3-1.5-1.4-1.4-3.3-1.4-2 0-3.3 1.4l-2 2-1.8-1.8 2-2q1-1 2.3-1.6 1.3-0.6 2.8-0.6 1.4 0 2.8 0.6 1.3 0.6 2.3 1.6 1.3 1.3 3.3 1.3z"/>
			<g id="g5050">
				<path id="path5052" class="s11" d="m434.9 311h-7.2v-192.4h7.2"/>
			</g>
			<path id="path5054" class="s8" d="m409 217.1q0 2.6-0.1 5.1h-1.2q-0.2-2.5-0.2-5.1z"/>
			<path id="path5056" fill-rule="evenodd" class="s8" d="m412.7 225.6l0.3-1.5q0.2-1.1 0.8-1.9 0.5-0.7 1.2-1 0.7-0.4 1.5-0.4 1 0 1.6 0.5 0.7 0.3 1 1.1 0.4 1 0.1 2.4l-0.2 1.5q-0.2 1.1-0.8 1.9-0.5 0.7-1.2 1-0.7 0.4-1.6 0.4-0.9 0-1.6-0.5-0.2-0.1-0.3-0.2l-0.7 3.8h-1.3zm1.3 1.9q0.2 0.5 0.6 0.7 0.3 0.2 0.8 0.2 0.4 0 0.9-0.2 0.4-0.2 0.7-0.6 0.5-0.6 0.6-1.5l0.3-1.5q0.2-1-0.1-1.7-0.2-0.4-0.6-0.7-0.3-0.2-0.7-0.2-0.6 0-1 0.2-0.4 0.3-0.7 0.7-0.5 0.6-0.6 1.5l-0.3 1.4q-0.2 1.1 0.1 1.7z"/>
			<path id="path5058" class="s2" d="m582.4 179.1q0-1.7 0.5-3.3 0.4-1.7 1.4-3 0.9-1.3 1.9-1.9l0.3 1q-1.1 0.9-1.9 2.7-0.7 1.8-0.7 4l-0.1 0.6q0 3.1 1.1 5.3 0.7 1.3 1.6 2.1l-0.3 0.8q-1-0.5-2-1.9-1.8-2.6-1.8-6.4z"/>
			<path id="path5060" class="s2" d="m591.3 182.7q0.8 0 1.4-0.4 0.5-0.5 0.6-1.2h1.4q-0.1 0.7-0.5 1.4-0.5 0.6-1.3 1-0.7 0.4-1.6 0.4-1.7 0-2.7-1.1-1-1.2-1-3.2v-0.2q0-1.3 0.4-2.2 0.4-1 1.3-1.5 0.8-0.5 2-0.5 1.4 0 2.4 0.8 0.9 0.9 1 2.2h-1.4q-0.1-0.8-0.6-1.3-0.6-0.5-1.4-0.6-1.1 0.1-1.7 0.8-0.6 0.8-0.6 2.3v0.3q0 1.5 0.6 2.3 0.6 0.7 1.7 0.7z"/>
			<path id="path5062" fill-rule="evenodd" class="s2" d="m601.5 183.8q-0.1-0.3-0.2-0.9-1 1-2.4 1-1.2 0-2.1-0.7-0.8-0.7-0.7-1.8 0-1.3 1-2 1-0.8 2.8-0.8h1.4v-0.6q0-0.8-0.5-1.2-0.4-0.5-1.3-0.5-0.8 0-1.3 0.4-0.5 0.4-0.5 1h-1.5q0-0.7 0.5-1.3 0.4-0.5 1.2-0.9 0.8-0.3 1.7-0.3 1.5 0 2.3 0.7 0.8 0.7 0.8 2v3.9q0 1.2 0.3 1.8v0.2zm-2.4-1.1q0.7 0 1.3-0.4 0.6-0.3 0.9-0.9v-1.7h-1.1q-2.7 0-2.7 1.5 0 0.7 0.5 1.1 0.4 0.4 1.1 0.4z"/>
			<path id="path5064" class="s2" d="m606.4 175.3v1.1q1-1.2 2.6-1.2 2.6 0 2.7 3v5.6h-1.5v-5.6q0-0.9-0.4-1.4-0.4-0.4-1.3-0.4-0.7 0-1.2 0.4-0.6 0.3-0.8 0.9v6.1h-1.5v-8.5z"/>
			<path id="path5066" class="s2" d="m621.2 182.7q0.8 0 1.4-0.4 0.5-0.5 0.6-1.2h1.4q-0.1 0.7-0.5 1.4-0.5 0.6-1.3 1-0.7 0.4-1.6 0.4-1.7 0-2.7-1.1-1-1.2-1-3.2v-0.2q0-1.3 0.4-2.2 0.4-1 1.3-1.5 0.8-0.5 2-0.5 1.4 0 2.4 0.8 0.9 0.9 1 2.2h-1.4q-0.1-0.8-0.6-1.3-0.6-0.5-1.4-0.6-1.1 0.1-1.7 0.8-0.6 0.8-0.6 2.3v0.3q0 1.5 0.6 2.3 0.6 0.7 1.7 0.7z"/>
			<path id="path5068" fill-rule="evenodd" class="s2" d="m625.8 179.5q0-1.3 0.5-2.3 0.5-1 1.4-1.5 0.8-0.5 1.9-0.5 1.8 0 2.8 1.1 1.1 1.2 1.1 3.2v0.1q0 1.3-0.5 2.2-0.4 1-1.3 1.6-0.9 0.5-2 0.5-1.7 0-2.8-1.2-1.1-1.2-1.1-3.1zm1.5 0.1q0 1.4 0.6 2.3 0.7 0.9 1.8 0.8 1.1 0.1 1.7-0.8 0.7-0.9 0.7-2.4 0-1.4-0.7-2.3-0.7-0.8-1.8-0.8-1 0-1.7 0.8-0.6 0.8-0.6 2.4z"/>
			<path id="path5070" fill-rule="evenodd" class="s2" d="m642.5 179.6q0 2-0.9 3.1-0.9 1.2-2.4 1.2-1.6 0-2.4-0.9v4h-1.5v-11.7h1.3l0.1 0.9q0.9-1 2.5-1 1.5 0 2.4 1.1 0.9 1.2 0.9 3.2zm-1.5-0.2q0-1.4-0.6-2.2-0.6-0.9-1.7-0.9-1.3 0-1.9 1.2v4q0.6 1.2 1.9 1.2 1.1 0 1.7-0.8 0.6-0.8 0.6-2.5z"/>
			<path id="path5072" class="s2" d="m647 181.6l1.9-6.3h1.6l-3.4 9.8q-0.8 2.1-2.5 2.1h-0.3l-0.5-0.1v-1.2h0.3q0.8 0 1.2-0.3 0.4-0.3 0.7-1.1l0.3-0.8-3-8.4h1.6z"/>
			<path id="path5074" class="s4" d="m656.6 175.3h1.2v1.6q0.1-0.3 0.3-0.6 0.4-0.6 0.8-0.9 0.5-0.2 1-0.2 0.5 0 1 0.3 0.5 0.2 0.8 0.7 0.1 0.3 0.2 0.5l-1.2 0.6q0-0.2-0.1-0.4-0.2-0.3-0.5-0.5-0.2-0.1-0.5-0.1-0.4 0-0.7 0.2-0.3 0.2-0.6 0.6-0.5 0.8-0.5 2.2v4.5h-1.2z"/>
			<path id="path5076" class="s2" d="m667.1 179.2q0 1.8-0.5 3.4-0.4 1.6-1.4 2.9-0.9 1.4-2 1.9l-0.3-0.8q1.2-1 2-2.9 0.7-1.9 0.7-4.3v-0.3q0-1.6-0.3-3-0.4-1.4-1-2.5-0.6-1.2-1.4-1.8l0.3-0.9q1.1 0.6 2 1.9 0.9 1.4 1.4 3 0.5 1.6 0.5 3.4z"/>
			<path id="path5078" class="s2" d="m582.4 208.1q0-1.7 0.5-3.3 0.4-1.7 1.4-3 0.9-1.3 1.9-1.9l0.3 1q-1.1 0.9-1.9 2.7-0.7 1.8-0.7 4l-0.1 0.6q0 3.1 1.1 5.3 0.7 1.3 1.6 2.1l-0.3 0.8q-1-0.5-2-1.9-1.8-2.6-1.8-6.4z"/>
			<path id="path5080" class="s2" d="m591.3 211.7q0.8 0 1.4-0.4 0.5-0.5 0.6-1.2h1.4q-0.1 0.7-0.5 1.4-0.5 0.6-1.3 1-0.7 0.4-1.6 0.4-1.7 0-2.7-1.1-1-1.2-1-3.2v-0.2q0-1.3 0.4-2.2 0.4-1 1.3-1.5 0.8-0.5 2-0.5 1.4 0 2.4 0.8 0.9 0.9 1 2.2h-1.4q-0.1-0.8-0.6-1.3-0.6-0.5-1.4-0.6-1.1 0.1-1.7 0.8-0.6 0.8-0.6 2.3v0.3q0 1.5 0.6 2.3 0.6 0.7 1.7 0.7z"/>
			<path id="path5082" fill-rule="evenodd" class="s2" d="m601.5 212.8q-0.1-0.3-0.2-0.9-1 1-2.4 1-1.2 0-2.1-0.7-0.8-0.7-0.7-1.8 0-1.3 1-2 1-0.8 2.8-0.8h1.4v-0.6q0-0.8-0.5-1.2-0.4-0.5-1.3-0.5-0.8 0-1.3 0.4-0.5 0.4-0.5 1h-1.5q0-0.7 0.5-1.3 0.4-0.5 1.2-0.9 0.8-0.3 1.7-0.3 1.5 0 2.3 0.7 0.8 0.7 0.8 2v3.9q0 1.2 0.3 1.8v0.2zm-2.4-1.1q0.7 0 1.3-0.4 0.6-0.3 0.9-0.9v-1.7h-1.1q-2.7 0-2.7 1.5 0 0.7 0.5 1.1 0.4 0.4 1.1 0.4z"/>
			<path id="path5084" class="s2" d="m606.4 204.3v1.1q1-1.2 2.6-1.2 2.6 0 2.7 3v5.6h-1.5v-5.6q0-0.9-0.4-1.4-0.4-0.4-1.3-0.4-0.7 0-1.2 0.4-0.6 0.3-0.8 0.9v6.1h-1.5v-8.5z"/>
			<path id="path5086" class="s2" d="m622.7 210.5q0-0.6-0.4-0.9-0.4-0.3-1.6-0.5-1-0.3-1.7-0.6-0.6-0.3-0.9-0.8-0.3-0.4-0.3-1.1 0-1 0.8-1.7 0.9-0.7 2.3-0.7 1.4 0 2.3 0.7 0.9 0.7 0.9 1.9h-1.4q0-0.6-0.6-1-0.5-0.5-1.2-0.5-0.8 0.1-1.3 0.4-0.4 0.3-0.4 0.9 0 0.5 0.4 0.8 0.4 0.2 1.5 0.5 1.1 0.2 1.8 0.6 0.6 0.3 1 0.8 0.3 0.4 0.3 1.1 0 1.2-0.9 1.8-0.9 0.7-2.4 0.7-1 0-1.8-0.3-0.7-0.4-1.2-1-0.4-0.7-0.4-1.4h1.4q0.1 0.7 0.6 1.1 0.5 0.4 1.4 0.4 0.8 0 1.4-0.3 0.4-0.3 0.4-0.9z"/>
			<path id="path5088" class="s2" d="m628 202.3v2h1.6v1.1h-1.6v5.3q0 0.5 0.3 0.7 0.2 0.3 0.7 0.3 0.2 0 0.6-0.1v1.2q-0.5 0.1-1.1 0.1-0.9 0-1.4-0.6-0.5-0.6-0.5-1.6v-5.3h-1.6v-1.1h1.6v-2z"/>
			<path id="path5090" class="s2" d="m632.9 212.8h-1.5v-8.5h1.5zm-1.6-10.7q0-0.3 0.2-0.6 0.2-0.2 0.7-0.2 0.4 0 0.6 0.2 0.2 0.3 0.2 0.6 0 0.4-0.2 0.6-0.2 0.2-0.6 0.2-0.5 0-0.7-0.2-0.2-0.2-0.2-0.6z"/>
			<path id="path5092" class="s2" d="m635.3 200.8h1.4v12h-1.4z"/>
			<path id="path5094" class="s2" d="m639.2 200.8h1.4v12h-1.4z"/>
			<path id="path5096" fill-rule="evenodd" class="s2" d="m647.1 208q0.3-0.5 1.2-1.3-0.3-0.3-0.5-0.6-0.7-1.4-0.7-2.6 0-0.8 0.3-1.5 0.3-0.5 0.9-0.8 0.5-0.3 1.3-0.3 0.7 0 1.3 0.3 0.5 0.3 0.8 0.8 0.4 0.7 0.4 1.5 0 0.9-0.5 1.7-0.4 0.7-1.6 1.7 0.4 0.6 1.1 1.3 0.3 0.4 0.6 0.7v-2h1.3v2.7q0 0.5-0.1 1 0.5 1.1 0.5 2.2h-1.2q0-0.4-0.1-0.8-0.3 0.3-0.6 0.5-0.7 0.4-1.7 0.4-1 0-1.7-0.4-0.7-0.4-1-1-0.5-0.8-0.5-1.7 0-0.9 0.5-1.8zm1.2-4.5q0 0.9 0.7 2 0.1 0.2 0.3 0.4 0.8-0.7 1.1-1.2 0.4-0.6 0.4-1.2 0-0.5-0.2-0.9-0.2-0.3-0.5-0.4-0.2-0.2-0.5-0.2-0.4 0-0.6 0.2-0.3 0.1-0.4 0.4-0.3 0.4-0.3 0.9zm-0.4 6.3q0 0.6 0.3 1.1 0.2 0.4 0.6 0.6 0.4 0.2 1 0.2 0.5 0 1-0.2 0.3-0.2 0.6-0.6 0.1-0.2 0.1-0.3-0.4-0.7-1.6-1.9-0.5-0.6-0.9-1-0.5 0.4-0.7 0.8-0.4 0.6-0.4 1.3z"/>
			<path id="path5098" class="s3" d="m655.9 210.6q0.1 0.2 0.1 0.3 0.2 0.4 0.6 0.6 0.5 0.2 1.1 0.2 0.8 0 1.3-0.2 0.3-0.2 0.4-0.5 0.2-0.2 0.2-0.5 0-0.3-0.2-0.5-0.2-0.3-0.5-0.5-0.4-0.3-1.3-0.4-1.1-0.1-1.6-0.4-0.6-0.3-0.9-0.9-0.4-0.6-0.4-1.3 0-0.6 0.3-1.1 0.3-0.5 0.9-0.8 0.7-0.4 1.9-0.4 1.2 0 1.9 0.4 0.6 0.3 0.9 1 0.2 0.2 0.3 0.4l-1.2 0.4q-0.1-0.1-0.2-0.3-0.2-0.3-0.5-0.5-0.5-0.3-1.2-0.3-0.7 0-1.2 0.3-0.3 0.2-0.5 0.4-0.1 0.2-0.1 0.5 0 0.4 0.2 0.6 0.1 0.3 0.4 0.5 0.4 0.2 1.3 0.3 1.2 0.1 1.7 0.5 0.6 0.3 0.9 0.9 0.4 0.5 0.4 1.2 0 0.6-0.3 1.1-0.3 0.5-0.9 0.9-0.8 0.4-2 0.4-1.1 0-1.8-0.4-0.6-0.4-1-1-0.1-0.2-0.2-0.5z"/>
			<path id="path5100" class="s2" d="m666.2 208.2q0 1.8-0.4 3.4-0.5 1.6-1.4 2.9-1 1.4-2 1.9l-0.3-0.8q1.2-1 1.9-2.9 0.7-1.9 0.8-4.3v-0.3q0-1.6-0.4-3-0.3-1.4-0.9-2.5-0.7-1.2-1.4-1.8l0.3-0.9q1 0.6 2 1.9 0.9 1.4 1.3 3 0.5 1.6 0.5 3.4z"/>
			<path id="path5102" class="s2" d="m582.4 237.1q0-1.7 0.5-3.3 0.4-1.7 1.4-3 0.9-1.3 1.9-1.9l0.3 1q-1.1 0.9-1.9 2.7-0.7 1.8-0.7 4l-0.1 0.6q0 3.1 1.1 5.3 0.7 1.3 1.6 2.1l-0.3 0.8q-1-0.5-2-1.9-1.8-2.6-1.8-6.4z"/>
			<path id="path5104" class="s2" d="m591.2 240.1q0.6 0 1-0.3 0.4-0.4 0.4-1h2.1q0 0.9-0.4 1.6-0.5 0.7-1.3 1.1-0.8 0.4-1.8 0.4-1.8 0-2.8-1.1-1.1-1.2-1.1-3.2v-0.2q0-1.9 1.1-3.1 1-1.1 2.8-1.1 1.6 0 2.6 0.9 0.9 0.9 0.9 2.4h-2.1q0-0.7-0.4-1.1-0.4-0.4-1-0.4-0.8 0-1.2 0.6-0.4 0.5-0.4 1.8v0.3q0 1.3 0.4 1.8 0.4 0.6 1.2 0.6z"/>
			<path id="path5106" fill-rule="evenodd" class="s2" d="m600.9 241.8q-0.1-0.3-0.2-0.8-0.8 0.9-2.1 0.9-1.3 0-2.1-0.7-0.8-0.7-0.8-1.8 0-1.4 1-2.1 1-0.7 2.9-0.7h1v-0.5q0-0.6-0.3-0.9-0.3-0.4-0.9-0.4-0.6 0-0.9 0.3-0.4 0.3-0.4 0.7h-2.2q0-0.7 0.4-1.3 0.5-0.6 1.3-1 0.9-0.3 1.9-0.3 1.5 0 2.5 0.8 0.9 0.7 0.9 2.1v3.7q0 1.2 0.3 1.8v0.2zm-1.9-1.6q0.5 0 0.9-0.2 0.5-0.3 0.7-0.6v-1.5h-0.9q-1.6 0-1.8 1.2v0.1q0 0.4 0.3 0.7 0.3 0.3 0.8 0.3z"/>
			<path id="path5108" class="s2" d="m606.7 233.3l0.1 1q0.9-1.1 2.4-1.1 1.3 0 2 0.8 0.7 0.7 0.7 2.3v5.5h-2.3v-5.5q0-0.7-0.3-1-0.3-0.3-1-0.3-1 0-1.5 0.8v6h-2.2v-8.5z"/>
			<path id="path5110" class="s2" d="m615.7 233.3v1q0.9-1.1 2.5-1.1 1.3 0 2 0.8 0.6 0.7 0.7 2.3v5.5h-2.3v-5.5q0-0.7-0.3-1-0.3-0.3-1.1-0.3-0.9 0-1.4 0.8v6h-2.3v-8.5z"/>
			<path id="path5112" fill-rule="evenodd" class="s2" d="m622.2 237.5q0-1.3 0.5-2.3 0.5-1 1.4-1.5 0.9-0.5 2.1-0.5 1.7 0 2.8 1 1.1 1 1.2 2.8v0.6q0 2-1.1 3.2-1.1 1.1-2.9 1.1-1.8 0-2.9-1.1-1.1-1.2-1.1-3.2zm2.3 0.1q0 1.2 0.4 1.9 0.5 0.6 1.3 0.6 0.8 0 1.3-0.6 0.5-0.6 0.5-2 0-1.2-0.5-1.9-0.5-0.6-1.3-0.6-0.8 0-1.3 0.6-0.4 0.7-0.4 2z"/>
			<path id="path5114" class="s2" d="m634.3 231.2v2.1h1.5v1.7h-1.5v4.2q0 0.5 0.2 0.7 0.2 0.2 0.7 0.2 0.4 0 0.7-0.1v1.7q-0.7 0.2-1.4 0.2-2.4 0-2.4-2.4v-4.5h-1.3v-1.7h1.3v-2.1z"/>
			<path id="path5116" fill-rule="evenodd" class="s2" d="m641.5 237q0.3-0.5 1.1-1.3-0.2-0.3-0.4-0.6-0.8-1.4-0.8-2.6 0-0.8 0.4-1.5 0.3-0.5 0.8-0.8 0.6-0.3 1.3-0.3 0.8 0 1.4 0.3 0.5 0.3 0.8 0.8 0.3 0.7 0.4 1.5-0.1 0.9-0.5 1.7-0.4 0.7-1.7 1.7 0.5 0.6 1.1 1.3 0.4 0.4 0.7 0.7v-2h1.2v2.7q0 0.5-0.1 1 0.6 1.1 0.6 2.2h-1.3q0-0.4 0-0.8-0.3 0.3-0.6 0.5-0.7 0.4-1.7 0.4-1 0-1.7-0.4-0.7-0.4-1.1-1-0.4-0.8-0.4-1.7 0-0.9 0.5-1.8zm1.2-4.5q0 0.9 0.6 2 0.2 0.2 0.3 0.4 0.9-0.7 1.2-1.2 0.4-0.6 0.4-1.2 0-0.5-0.2-0.9-0.2-0.3-0.5-0.4-0.2-0.2-0.6-0.2-0.3 0-0.5 0.2-0.3 0.1-0.5 0.4-0.2 0.4-0.2 0.9zm-0.4 6.3q0 0.6 0.2 1.1 0.3 0.4 0.7 0.6 0.4 0.2 0.9 0.2 0.6 0 1-0.2 0.4-0.2 0.7-0.6 0-0.2 0.1-0.3-0.5-0.7-1.6-1.9-0.5-0.6-0.9-1-0.5 0.4-0.8 0.8-0.3 0.6-0.3 1.3z"/>
			<path id="path5118" class="s2" d="m649 233.3h1.3v0.5q0.2-0.3 0.5-0.5 0.2-0.1 0.5-0.1 0.3 0 0.6 0.1 0.2 0.2 0.5 0.6 0.1 0.2 0.2 0.4 0.1-0.2 0.2-0.5 0.2-0.3 0.5-0.5 0.2-0.1 0.5-0.1 0.3 0 0.6 0.1 0.3 0.2 0.5 0.6 0.4 0.7 0.4 2v5.9h-1.2v-5.9q0-1.1-0.4-1.5-0.1-0.1-0.3-0.1-0.1 0-0.2 0.1-0.4 0.4-0.4 1.5v5.9h-1.3v-5.9q0-1.1-0.3-1.5-0.2-0.1-0.3-0.1-0.2 0-0.3 0.1-0.3 0.4-0.3 1.5v5.9h-1.3z"/>
			<path id="path5120" class="s2" d="m657.1 238.2v-4.9h1.3v4.9q0 1 0.4 1.7 0.2 0.5 0.6 0.7 0.3 0.1 0.8 0.1 0.4 0 0.7-0.1 0.4-0.2 0.7-0.7 0.3-0.7 0.3-1.7v-4.9h1.3v8.5h-1.3v-1.2q0 0 0 0-0.4 0.7-0.9 1-0.6 0.3-1.2 0.3-0.7 0-1.2-0.3-0.6-0.3-0.9-1-0.6-0.9-0.6-2.4z"/>
			<path id="path5122" class="s2" d="m665 233.3h1.7v-3.3h1.3v3.3h2.6v1.1h-2.6v4.3q0 0.8 0.3 1.4 0.2 0.3 0.5 0.5 0.3 0.1 0.6 0.1 0.3 0 0.5-0.1 0.2-0.1 0.3-0.2 0.5-0.5 0.5-1.4l1.3 0.3q-0.1 0.8-0.4 1.4-0.4 0.5-1 0.9-0.5 0.3-1.2 0.3-0.8 0-1.3-0.3-0.6-0.4-0.9-0.9-0.5-0.9-0.5-2v-4.3h-1.7z"/>
			<path id="path5124" class="s3" d="m682.3 239.6q0 0.2 0.1 0.3 0.2 0.4 0.6 0.6 0.4 0.2 1.1 0.2 0.8 0 1.3-0.2 0.2-0.2 0.4-0.5 0.1-0.2 0.1-0.5 0-0.3-0.1-0.5-0.2-0.3-0.5-0.5-0.4-0.3-1.3-0.4-1.1-0.1-1.7-0.4-0.5-0.3-0.9-0.9-0.3-0.6-0.3-1.3 0-0.6 0.3-1.1 0.3-0.5 0.8-0.8 0.8-0.4 2-0.4 1.1 0 1.9 0.4 0.6 0.3 0.9 1 0.2 0.2 0.3 0.4l-1.2 0.4q-0.1-0.1-0.2-0.3-0.2-0.3-0.6-0.5-0.4-0.3-1.1-0.3-0.8 0-1.2 0.3-0.3 0.2-0.5 0.4-0.1 0.2-0.1 0.5 0 0.4 0.1 0.6 0.2 0.3 0.5 0.5 0.4 0.2 1.3 0.3 1.1 0.1 1.7 0.5 0.6 0.3 0.9 0.9 0.3 0.5 0.3 1.2 0 0.6-0.2 1.1-0.3 0.5-0.9 0.9-0.8 0.4-2 0.4-1.1 0-1.8-0.4-0.7-0.4-1-1-0.1-0.2-0.2-0.5z"/>
			<path id="path5126" class="s2" d="m692.6 237.2q0 1.8-0.5 3.4-0.4 1.6-1.4 2.9-0.9 1.4-1.9 1.9l-0.3-0.8q1.2-1 1.9-2.9 0.7-1.9 0.7-4.3v-0.3q0-1.6-0.3-3-0.3-1.4-1-2.5-0.6-1.2-1.3-1.8l0.3-0.9q1 0.6 1.9 1.9 1 1.4 1.4 3 0.5 1.6 0.5 3.4z"/>
			<path id="path5128" class="s2" d="m582.4 266.1q0-1.7 0.5-3.3 0.4-1.7 1.4-3 0.9-1.3 1.9-1.9l0.3 1q-1.1 0.9-1.9 2.7-0.7 1.8-0.7 4l-0.1 0.6q0 3.1 1.1 5.3 0.7 1.3 1.6 2.1l-0.3 0.8q-1-0.5-2-1.9-1.8-2.6-1.8-6.4z"/>
			<path id="path5130" class="s2" d="m591.2 269.1q0.6 0 1-0.3 0.4-0.4 0.4-1h2.1q0 0.9-0.4 1.6-0.5 0.7-1.3 1.1-0.8 0.4-1.8 0.4-1.8 0-2.8-1.1-1.1-1.2-1.1-3.2v-0.2q0-1.9 1.1-3.1 1-1.1 2.8-1.1 1.6 0 2.6 0.9 0.9 0.9 0.9 2.4h-2.1q0-0.7-0.4-1.1-0.4-0.4-1-0.4-0.8 0-1.2 0.6-0.4 0.5-0.4 1.8v0.3q0 1.3 0.4 1.8 0.4 0.6 1.2 0.6z"/>
			<path id="path5132" fill-rule="evenodd" class="s2" d="m600.9 270.8q-0.1-0.3-0.2-0.8-0.8 0.9-2.1 0.9-1.3 0-2.1-0.7-0.8-0.7-0.8-1.8 0-1.4 1-2.1 1-0.7 2.9-0.7h1v-0.5q0-0.6-0.3-0.9-0.3-0.4-0.9-0.4-0.6 0-0.9 0.3-0.4 0.3-0.4 0.7h-2.2q0-0.7 0.4-1.3 0.5-0.6 1.3-1 0.9-0.3 1.9-0.3 1.5 0 2.5 0.8 0.9 0.7 0.9 2.1v3.7q0 1.2 0.3 1.8v0.2zm-1.9-1.6q0.5 0 0.9-0.2 0.5-0.3 0.7-0.6v-1.5h-0.9q-1.6 0-1.8 1.2v0.1q0 0.4 0.3 0.7 0.3 0.3 0.8 0.3z"/>
			<path id="path5134" class="s2" d="m606.7 262.3l0.1 1q0.9-1.1 2.4-1.1 1.3 0 2 0.8 0.7 0.7 0.7 2.3v5.5h-2.3v-5.5q0-0.7-0.3-1-0.3-0.3-1-0.3-1 0-1.5 0.8v6h-2.2v-8.5z"/>
			<path id="path5136" class="s2" d="m615.7 262.3v1q0.9-1.1 2.5-1.1 1.3 0 2 0.8 0.6 0.7 0.7 2.3v5.5h-2.3v-5.5q0-0.7-0.3-1-0.3-0.3-1.1-0.3-0.9 0-1.4 0.8v6h-2.3v-8.5z"/>
			<path id="path5138" fill-rule="evenodd" class="s2" d="m622.2 266.5q0-1.3 0.5-2.3 0.5-1 1.4-1.5 0.9-0.5 2.1-0.5 1.7 0 2.8 1 1.1 1 1.2 2.8v0.6q0 2-1.1 3.2-1.1 1.1-2.9 1.1-1.8 0-2.9-1.1-1.1-1.2-1.1-3.2zm2.3 0.1q0 1.2 0.4 1.9 0.5 0.6 1.3 0.6 0.8 0 1.3-0.6 0.5-0.6 0.5-2 0-1.2-0.5-1.9-0.5-0.6-1.3-0.6-0.8 0-1.3 0.6-0.4 0.7-0.4 2z"/>
			<path id="path5140" class="s2" d="m634.3 260.2v2.1h1.5v1.7h-1.5v4.2q0 0.5 0.2 0.7 0.2 0.2 0.7 0.2 0.4 0 0.7-0.1v1.7q-0.7 0.2-1.4 0.2-2.4 0-2.4-2.4v-4.5h-1.3v-1.7h1.3v-2.1z"/>
			<path id="path5142" class="s2" d="m642.6 262.3v0.9q0.9-1 2.5-1 1.8 0 2.5 1.3 0.4-0.6 1-1 0.7-0.3 1.6-0.3 2.8 0 2.9 2.9v5.7h-1.5v-5.6q0-0.9-0.4-1.4-0.4-0.4-1.4-0.4-0.8 0-1.3 0.5-0.6 0.5-0.6 1.3v5.6h-1.5v-5.6q0-1.8-1.8-1.8-1.4 0-1.9 1.2v6.2h-1.5v-8.5z"/>
			<path id="path5144" fill-rule="evenodd" class="s2" d="m654.9 266.5q0-1.3 0.5-2.3 0.5-1 1.3-1.5 0.9-0.5 2-0.5 1.7 0 2.8 1.1 1.1 1.2 1.1 3.2v0.1q0 1.3-0.5 2.2-0.5 1-1.4 1.6-0.8 0.5-2 0.5-1.7 0-2.8-1.2-1-1.2-1-3.1zm1.4 0.1q0 1.4 0.7 2.3 0.6 0.9 1.7 0.8 1.1 0.1 1.8-0.8 0.6-0.9 0.6-2.4 0-1.4-0.6-2.3-0.7-0.8-1.8-0.8-1.1 0-1.7 0.8-0.7 0.8-0.7 2.4z"/>
			<path id="path5146" class="s2" d="m667 268.8l2.1-6.5h1.5l-3 8.5h-1.1l-3.1-8.5h1.5z"/>
			<path id="path5148" fill-rule="evenodd" class="s2" d="m675.4 270.9q-1.7 0-2.8-1.1-1-1.1-1-3v-0.3q-0.1-1.2 0.4-2.2 0.5-1 1.4-1.6 0.8-0.5 1.8-0.5 1.7 0 2.6 1 0.9 1.1 0.9 3.1v0.7h-5.7q0 1.2 0.7 2 0.7 0.7 1.8 0.7 0.8 0 1.3-0.3 0.5-0.3 0.9-0.8l0.9 0.7q-1 1.6-3.2 1.6zm-0.2-7.6q-0.8 0.1-1.4 0.7-0.6 0.6-0.7 1.8h4.2v-0.1q-0.1-1.1-0.6-1.7-0.5-0.6-1.5-0.7z"/>
			<path id="path5150" class="s3" d="m685.4 268.6q0 0.2 0.1 0.3 0.2 0.4 0.6 0.6 0.4 0.2 1.1 0.2 0.8 0 1.3-0.2 0.2-0.2 0.4-0.5 0.1-0.2 0.1-0.5 0-0.3-0.1-0.5-0.2-0.3-0.5-0.5-0.4-0.3-1.3-0.4-1.1-0.1-1.7-0.4-0.5-0.3-0.9-0.9-0.3-0.6-0.3-1.3 0-0.6 0.3-1.1 0.3-0.5 0.8-0.8 0.8-0.4 2-0.4 1.1 0 1.9 0.4 0.6 0.3 0.9 1 0.2 0.2 0.2 0.4l-1.1 0.4q-0.1-0.1-0.2-0.3-0.2-0.3-0.6-0.5-0.4-0.3-1.1-0.3-0.8 0-1.2 0.3-0.3 0.2-0.5 0.4-0.1 0.2-0.1 0.5 0 0.4 0.1 0.6 0.2 0.3 0.5 0.5 0.4 0.2 1.3 0.3 1.1 0.1 1.7 0.5 0.6 0.3 0.9 0.9 0.3 0.5 0.3 1.2 0 0.6-0.2 1.1-0.3 0.5-0.9 0.9-0.8 0.4-2 0.4-1.1 0-1.8-0.4-0.7-0.4-1-1-0.1-0.2-0.2-0.5z"/>
			<path id="path5152" class="s2" d="m695.7 266.2q0 1.8-0.5 3.4-0.4 1.6-1.4 2.9-0.9 1.4-1.9 1.9l-0.3-0.8q1.2-1 1.9-2.9 0.7-1.9 0.7-4.3v-0.3q0-1.6-0.3-3-0.3-1.4-1-2.5-0.6-1.2-1.3-1.8l0.3-0.9q1 0.6 1.9 1.9 1 1.4 1.4 3 0.5 1.6 0.5 3.4z"/>
			<g id="g5154">
				<path id="path5156" class="s0" d="m48 346.3v-33.4"/>
			</g>
			<g id="g5158">
				<path id="path5160" class="s10" d="m48 350.6v11.7"/>
			</g>
			<path id="path5162" class="s3" d="m51.8 375h5.2l-3-5.3h0.2l6.5 6.5v0.1l-6.5 6.5h-0.2l3-5.3h-5.2q-1.5 0-2.8-0.6-1.4-0.6-2.3-1.5-1.4-1.4-3.3-1.4-2 0-3.3 1.4l-2 2-1.8-1.8 2-2q1-1 2.3-1.5 1.3-0.6 2.8-0.6 1.4 0 2.8 0.6 1.3 0.5 2.3 1.5 1.3 1.4 3.3 1.4z"/>
			<path id="path5164" fill-rule="evenodd" class="s2" d="m20.1 26.9v-8.3l0.6-0.5h0.8v-2.5c0-1.8 0.9-2.9 2.7-2.9 1.7 0 2.7 1.1 2.7 2.9v2.5h0.7l0.6 0.5v8.3l-0.6 0.6h-6.9zm3.9-1.2h0.3l0.8-0.3-0.5-2.7c0.7-0.2 0.9-0.7 0.9-1.3 0-0.7-0.6-1.3-1.3-1.3-0.8 0-1.4 0.6-1.4 1.3 0 0.6 0.3 1.1 0.9 1.3l-0.4 2.7zm1.8-7.7v-2.3c0-1.2-0.5-2-1.6-2-1.1 0-1.6 0.8-1.6 2v2.3z"/>
			<path id="path5166" class="s2" d="m35.9 17.9l0.1 1q0.9-1.1 2.4-1.1 1.6 0 2.3 1.3 0.8-1.3 2.5-1.3 1.4 0 2 0.8 0.7 0.8 0.7 2.4v5.4h-2.2v-5.4q0-0.7-0.3-1.1-0.3-0.3-1-0.3-1 0-1.4 1v5.8h-2.3v-5.4q0-0.7-0.3-1.1-0.3-0.3-1-0.3-0.9 0-1.3 0.8v6h-2.3v-8.5z"/>
			<path id="path5168" class="s2" d="m52.7 25.5q-0.8 1-2.3 1-1.4 0-2.1-0.7-0.7-0.8-0.7-2.3v-5.6h2.2v5.5q0 1.3 1.2 1.3 1.2 0 1.6-0.8v-6h2.3v8.5h-2.1z"/>
			<path id="path5170" class="s2" d="m59.3 15.8v2.1h1.5v1.7h-1.5v4.2q0 0.5 0.2 0.7 0.2 0.2 0.7 0.2 0.3 0 0.6-0.1v1.7q-0.6 0.2-1.3 0.2-2.4 0-2.4-2.4v-4.5h-1.3v-1.7h1.3v-2.1z"/>
			<path id="path5172" fill-rule="evenodd" class="s2" d="m66.9 26.4q-0.2-0.3-0.2-0.8-0.8 0.9-2.1 0.9-1.3 0-2.1-0.7-0.8-0.7-0.8-1.8 0-1.3 1-2.1 1-0.7 2.9-0.7h1v-0.5q0-0.5-0.3-0.9-0.3-0.4-1-0.4-0.5 0-0.9 0.3-0.3 0.3-0.3 0.8h-2.2q0-0.8 0.4-1.4 0.5-0.6 1.3-1 0.8-0.3 1.9-0.3 1.5 0 2.4 0.8 1 0.7 1 2.2v3.6q0 1.2 0.3 1.9v0.1zm-1.9-1.6q0.5 0 0.9-0.2 0.5-0.2 0.7-0.6v-1.5h-0.9q-1.7 0-1.8 1.2v0.1q0 0.5 0.3 0.7 0.3 0.3 0.8 0.3z"/>
			<path id="path5174" fill-rule="evenodd" class="s2" d="m78.2 22.2q0 2.1-0.9 3.2-0.8 1.1-2.4 1.1-1.3 0-2.2-1l-0.1 0.9h-2v-12h2.3v4.3q0.8-0.9 2-0.9 1.6 0 2.4 1.1 0.9 1.1 0.9 3.2zm-2.2-0.2q0-1.2-0.4-1.8-0.4-0.6-1.3-0.6-1 0-1.4 0.9v3.3q0.4 0.9 1.5 0.9 1.1 0 1.4-1.1 0.2-0.5 0.2-1.6z"/>
			<path id="path5176" class="s2" d="m79.7 14.4h2.3v12h-2.3z"/>
			<path id="path5178" fill-rule="evenodd" class="s2" d="m87.7 26.5q-1.8 0-3-1.1-1.2-1.1-1.1-3v-0.3q-0.1-1.2 0.4-2.2 0.5-1 1.4-1.6 0.9-0.5 2.1-0.5 1.7 0 2.7 1.1 1 1.1 1 3.1v0.9h-5.4q0.1 0.8 0.7 1.3 0.5 0.5 1.4 0.5 1.3 0 2-0.9l1.2 1.2q-0.6 0.7-1.4 1.2-0.9 0.3-2 0.3zm-0.2-6.9q-0.7 0-1.1 0.4-0.4 0.5-0.5 1.3h3.1v-0.1q0-0.8-0.4-1.2-0.4-0.4-1.1-0.4z"/>
			<path id="path5180" fill-rule="evenodd" class="s2" d="m104.1 22.2q0 2.1-0.8 3.2-0.9 1.1-2.5 1.1-1.3 0-2.2-1l-0.1 0.9h-2v-12h2.3v4.3q0.8-0.9 2-0.9 1.6 0 2.5 1.1 0.8 1.1 0.8 3.2zm-2.2-0.2q0-1.2-0.4-1.8-0.4-0.6-1.2-0.6-1.1 0-1.5 0.9v3.3q0.4 0.9 1.5 0.9 1.1 0 1.4-1.1 0.2-0.5 0.2-1.6z"/>
			<path id="path5182" fill-rule="evenodd" class="s2" d="m105.2 22.1q0-1.3 0.4-2.3 0.5-1 1.4-1.5 1-0.5 2.1-0.5 1.8 0 2.8 1 1.1 1.1 1.2 2.9l0.1 0.5q0 2-1.1 3.2-1.1 1.1-2.9 1.1-1.9 0-2.9-1.1-1.1-1.2-1.1-3.2zm2.2 0.1q0 1.2 0.5 1.9 0.4 0.6 1.3 0.6 0.8 0 1.3-0.6 0.4-0.6 0.4-2 0-1.2-0.4-1.8-0.5-0.7-1.4-0.7-0.8 0-1.2 0.6-0.5 0.7-0.5 2z"/>
			<path id="path5184" class="s2" d="m119.3 20q-0.4 0-0.8 0-1.3 0-1.7 0.8v5.6h-2.2v-8.5h2.1l0.1 1q0.7-1.1 1.8-1.1 0.4 0 0.8 0.1z"/>
			<path id="path5186" class="s2" d="m125.2 20q-0.5 0-0.8 0-1.3 0-1.7 0.8v5.6h-2.3v-8.5h2.2v1q0.7-1.1 1.9-1.1 0.4 0 0.7 0.1z"/>
			<path id="path5188" fill-rule="evenodd" class="s2" d="m125.6 22.1q0-1.3 0.5-2.3 0.5-1 1.4-1.5 0.9-0.5 2.1-0.5 1.7 0 2.8 1 1.1 1.1 1.2 2.9v0.5q0 2-1 3.2-1.1 1.1-3 1.1-1.8 0-2.9-1.1-1.1-1.2-1.1-3.2zm2.3 0.1q0 1.2 0.4 1.9 0.5 0.6 1.3 0.6 0.9 0 1.3-0.6 0.5-0.6 0.5-2 0-1.2-0.5-1.8-0.4-0.7-1.3-0.7-0.8 0-1.3 0.6-0.4 0.7-0.4 2z"/>
			<path id="path5190" class="s2" d="m142.4 23.3l1.1-5.4h2.2l-2.2 8.5h-1.9l-1.6-5.3-1.6 5.3h-1.8l-2.2-8.5h2.2l1.1 5.4 1.5-5.4h1.7z"/>
			<g id="g5192">
				<path id="path5194" class="s12" d="m47.8 121l71 41v32.1"/>
			</g>
			<path id="path5196" class="s3" d="m31.5 91.7q0.1 0.2 0.2 0.3 0.2 0.4 0.5 0.6 0.5 0.2 1.2 0.2 0.7 0.1 1.2-0.2 0.3-0.2 0.5-0.5 0.1-0.2 0.1-0.5 0-0.3-0.2-0.5-0.1-0.3-0.4-0.5-0.4-0.2-1.3-0.4-1.2-0.1-1.7-0.4-0.6-0.3-0.9-0.9-0.4-0.6-0.4-1.3 0-0.6 0.3-1.1 0.3-0.5 0.9-0.8 0.8-0.4 1.9-0.4 1.2 0 1.9 0.4 0.6 0.3 1 1 0.1 0.2 0.2 0.4l-1.2 0.4q-0.1-0.1-0.1-0.3-0.3-0.3-0.6-0.5-0.5-0.3-1.2-0.3-0.7 0-1.2 0.3-0.3 0.2-0.4 0.4-0.2 0.3-0.2 0.5 0 0.4 0.2 0.6 0.1 0.3 0.5 0.5 0.4 0.2 1.3 0.3 1.1 0.1 1.6 0.5 0.6 0.3 0.9 0.9 0.4 0.5 0.4 1.2 0 0.6-0.3 1.1-0.3 0.5-0.9 0.9-0.8 0.4-1.9 0.4-1.2 0-1.9-0.4-0.6-0.4-0.9-1-0.2-0.2-0.3-0.5z"/>
			<path id="path5198" class="s2" d="m138.4 67.2h2.3v-9.4h-2v-1.2h3.3v10.6h2v1.2h-5.6z"/>
			<path id="path5200" fill-rule="evenodd" class="s2" d="m146.1 63.4q0-1.3 0.5-2.2 0.4-0.7 1-1 0.7-0.4 1.6-0.4 1 0 1.6 0.4 0.7 0.3 1.1 1 0.5 0.9 0.5 2.2v1.3h-5.1v0.1q0 1 0.4 1.6 0.3 0.5 0.7 0.7 0.4 0.3 0.9 0.2 0.6 0 1-0.2 0.4-0.2 0.7-0.7 0.1-0.3 0.3-0.6l1.1 0.5q-0.1 0.4-0.3 0.7-0.4 0.7-1.1 1.1-0.7 0.4-1.7 0.4-0.9 0-1.6-0.4-0.7-0.4-1.1-1.1-0.5-0.9-0.5-2.2zm1.2 0v0.2h3.8v-0.2q0-0.9-0.3-1.6-0.3-0.4-0.7-0.6-0.4-0.2-0.9-0.3-0.5 0.1-0.8 0.3-0.4 0.2-0.7 0.6-0.4 0.7-0.4 1.6z"/>
			<path id="path5202" class="s2" d="m154 59.9h1.8v-3.3h1.3v3.3h2.6v1.1h-2.6v4.3q0 0.8 0.3 1.4 0.2 0.3 0.5 0.5 0.2 0.2 0.5 0.1 0.4 0.1 0.6-0.1 0.1-0.1 0.3-0.2 0.4-0.5 0.5-1.4l1.3 0.3q-0.1 0.8-0.5 1.4-0.3 0.6-0.9 0.9-0.5 0.3-1.3 0.3-0.7 0-1.2-0.3-0.6-0.3-0.9-0.9-0.5-0.8-0.5-2v-4.3h-1.8z"/>
			<path id="path5204" class="s2" d="m170.1 59.9h1.2v0.5q0.2-0.3 0.6-0.5 0.2-0.1 0.5-0.1 0.3 0 0.5 0.1 0.3 0.2 0.5 0.6 0.2 0.2 0.3 0.4 0.1-0.2 0.2-0.5 0.2-0.3 0.5-0.5 0.2-0.1 0.5-0.1 0.3 0 0.5 0.1 0.4 0.2 0.6 0.6 0.4 0.7 0.4 2v5.9h-1.3v-5.9q0-1.1-0.3-1.5-0.2-0.1-0.3-0.1-0.1 0-0.3 0.1-0.3 0.4-0.3 1.5v5.9h-1.3v-5.9q0-1.1-0.4-1.5-0.1-0.1-0.2-0.1-0.2 0-0.3 0.1-0.4 0.4-0.4 1.5v5.9h-1.2z"/>
			<path id="path5206" class="s2" d="m178.2 64.8v-4.9h1.3v4.9q0 1.1 0.3 1.7 0.3 0.5 0.7 0.7 0.3 0.1 0.7 0.1 0.5 0 0.8-0.1 0.4-0.2 0.6-0.7 0.4-0.6 0.4-1.7v-4.9h1.3v8.5h-1.3v-1.2q0 0-0.1 0-0.3 0.7-0.9 1-0.5 0.3-1.2 0.3-0.6 0-1.1-0.3-0.6-0.3-1-1-0.5-0.9-0.5-2.4z"/>
			<path id="path5208" class="s2" d="m186 59.9h1.8v-3.3h1.3v3.3h2.6v1.1h-2.6v4.3q0 0.8 0.3 1.4 0.2 0.3 0.5 0.5 0.2 0.2 0.5 0.1 0.4 0.1 0.6-0.1 0.1-0.1 0.3-0.2 0.4-0.5 0.5-1.4l1.3 0.3q-0.1 0.8-0.5 1.4-0.3 0.6-0.9 0.9-0.5 0.3-1.3 0.3-0.7 0-1.2-0.3-0.6-0.3-0.9-0.9-0.5-0.8-0.5-2v-4.3h-1.8z"/>
			<path id="path5210" class="s3" d="m203.3 66.2q0.1 0.2 0.2 0.3 0.2 0.4 0.6 0.6 0.4 0.2 1.1 0.2 0.8 0.1 1.2-0.2 0.3-0.2 0.5-0.5 0.1-0.2 0.1-0.5 0-0.3-0.1-0.5-0.2-0.3-0.5-0.5-0.4-0.2-1.3-0.4-1.1-0.1-1.7-0.4-0.6-0.3-0.9-0.9-0.3-0.6-0.3-1.3 0-0.6 0.2-1.1 0.3-0.5 0.9-0.8 0.8-0.4 2-0.4 1.1 0 1.8 0.4 0.7 0.3 1 1 0.1 0.2 0.2 0.4l-1.2 0.4q0-0.1-0.1-0.3-0.2-0.3-0.6-0.5-0.4-0.3-1.1-0.3-0.8 0-1.3 0.3-0.2 0.2-0.4 0.4-0.1 0.3-0.1 0.5 0 0.4 0.1 0.6 0.2 0.3 0.5 0.5 0.4 0.2 1.3 0.3 1.1 0.1 1.7 0.5 0.5 0.3 0.9 0.9 0.3 0.5 0.3 1.2 0 0.6-0.3 1.1-0.3 0.5-0.8 0.9-0.8 0.4-2 0.4-1.1 0-1.9-0.4-0.6-0.4-0.9-1-0.2-0.2-0.2-0.5z"/>
			<path id="path5212" class="s2" d="m218.2 60.3h6.1v1.1h-6.1zm0 3.4h6.1v1.1h-6.1z"/>
			<path id="path5214" class="s2" d="m234.1 65.9q0 0 0 0l1.3-0.2q0 0.1 0 0.1 0 0.4 0.2 0.8 0.2 0.3 0.5 0.5 0.5 0.2 1.1 0.2 0.6 0 1-0.2 0.3-0.2 0.6-0.6 0.2-0.4 0.2-0.9 0-0.6-0.3-1.1-0.4-0.7-1.7-1.4-1.8-1-2.3-2-0.5-0.8-0.5-1.7 0-0.8 0.4-1.5 0.4-0.7 1-1 0.7-0.4 1.7-0.4 1 0 1.8 0.4 0.6 0.3 0.9 0.9 0.4 0.6 0.4 1.3 0 0 0 0l-1.3 0.2q0-0.1 0-0.1 0-0.4-0.2-0.8-0.2-0.3-0.6-0.5-0.4-0.3-1-0.3-0.6 0-1 0.3-0.4 0.2-0.6 0.6-0.2 0.4-0.2 0.9 0 0.5 0.3 1.1 0.4 0.6 1.7 1.4 1.8 1 2.3 2 0.5 0.8 0.5 1.7 0 0.8-0.4 1.5-0.4 0.6-1 1-0.7 0.4-1.7 0.4-1.1 0-1.8-0.4-0.6-0.4-1-1-0.3-0.5-0.3-1.2z"/>
			<path id="path5216" class="s2" d="m242 59.9h1.8v-3.3h1.3v3.3h2.6v1.1h-2.6v4.3q0 0.8 0.3 1.4 0.2 0.3 0.5 0.5 0.2 0.2 0.5 0.1 0.4 0.1 0.6-0.1 0.1-0.1 0.3-0.2 0.4-0.5 0.5-1.4l1.3 0.3q-0.1 0.8-0.5 1.4-0.3 0.6-0.9 0.9-0.5 0.3-1.3 0.3-0.7 0-1.2-0.3-0.6-0.3-0.9-0.9-0.5-0.8-0.5-2v-4.3h-1.8z"/>
			<path id="path5218" class="s2" d="m251.2 59.9h1.2v1.6q0.1-0.3 0.3-0.6 0.4-0.6 0.8-0.9 0.5-0.2 1-0.2 0.5 0 1 0.3 0.5 0.2 0.8 0.7 0.1 0.3 0.2 0.5l-1.2 0.6q0-0.2-0.1-0.4-0.2-0.3-0.5-0.5-0.2-0.1-0.5-0.1-0.4 0-0.7 0.2-0.3 0.2-0.6 0.6-0.5 0.8-0.5 2.2v4.5h-1.2z"/>
			<path id="path5220" class="s2" d="m258.4 67.2h2.3v-6.2h-2v-1.1h3.3v7.3h2v1.2h-5.6zm1.8-9.8q0-0.4 0.2-0.6 0.1-0.2 0.3-0.3 0.2-0.1 0.5-0.1 0.3 0 0.6 0.1 0.2 0.1 0.3 0.3 0.1 0.2 0.1 0.6 0 0.3-0.1 0.5-0.1 0.2-0.3 0.3-0.3 0.2-0.6 0.2-0.3 0-0.5-0.2-0.2-0.1-0.3-0.3-0.2-0.2-0.2-0.5z"/>
			<path id="path5222" class="s2" d="m266.2 59.9h1.3v1.2q0 0 0-0.1 0.4-0.6 0.9-0.9 0.6-0.3 1.2-0.3 0.7 0 1.2 0.3 0.6 0.3 0.9 0.9 0.6 1 0.6 2.4v5h-1.3v-5q0-1-0.4-1.7-0.2-0.4-0.6-0.6-0.3-0.2-0.8-0.2-0.4 0-0.7 0.2-0.4 0.2-0.7 0.6-0.3 0.7-0.3 1.7v5h-1.3z"/>
			<path id="path5224" fill-rule="evenodd" class="s2" d="m274.2 67.9q0.2-0.4 0.6-0.7-0.1-0.1-0.2-0.3-0.2-0.4-0.2-0.8 0-0.4 0.2-0.8 0.2-0.3 0.4-0.5-0.3-0.3-0.6-0.7-0.3-0.7-0.3-1.5 0-0.9 0.3-1.5 0.4-0.6 1-0.9 0.7-0.4 1.7-0.4 0.6 0 1 0.1h2.6v1.1h-1q0 0.1 0.1 0.1 0.3 0.6 0.3 1.5 0 0.8-0.3 1.5-0.4 0.5-1 0.9-0.7 0.4-1.7 0.4-0.6 0-1.1-0.2-0.2 0.1-0.2 0.2-0.3 0.2-0.3 0.5 0 0.3 0.2 0.5 0.3 0.3 1.1 0.3 0 0 0 0h0.8q1.1 0 1.9 0.4 0.5 0.3 0.8 0.8 0.3 0.5 0.3 1.2 0 0.7-0.3 1.3-0.4 0.5-1 0.9-0.8 0.5-2.1 0.5-1.2 0-2-0.5-0.6-0.3-1-0.9-0.3-0.6-0.3-1.3 0-0.7 0.3-1.2zm1 1.2q0 0.4 0.2 0.7 0.2 0.3 0.5 0.5 0.5 0.3 1.3 0.3 0.8 0 1.4-0.3 0.3-0.2 0.5-0.5 0.2-0.3 0.2-0.7 0-0.4-0.2-0.6-0.1-0.2-0.4-0.4-0.4-0.3-1.1-0.3h-0.8q-0.6 0.1-1 0.3-0.3 0.2-0.5 0.4-0.1 0.2-0.1 0.6zm0.3-5.6q0.3 0.3 0.6 0.5 0.4 0.2 1 0.2 0.6 0 1-0.2 0.3-0.2 0.5-0.5 0.2-0.4 0.2-0.9 0-0.5-0.2-0.9-0.2-0.3-0.5-0.5-0.4-0.2-0.8-0.3h-0.2q-0.6 0-1 0.3-0.3 0.2-0.6 0.5-0.2 0.4-0.2 0.9 0 0.5 0.2 0.9z"/>
			<path id="path5226" class="s2" d="m284 67.2q0-0.3 0.2-0.6 0.1-0.3 0.3-0.4 0.3-0.2 0.7-0.2 0.4 0 0.7 0.2 0.3 0.1 0.4 0.4 0.2 0.3 0.2 0.6 0 0.4-0.2 0.7-0.1 0.3-0.4 0.4-0.3 0.2-0.7 0.2-0.4 0-0.7-0.2-0.2-0.1-0.3-0.4-0.2-0.3-0.2-0.7zm0-6.2q0-0.4 0.2-0.7 0.1-0.2 0.3-0.4 0.3-0.2 0.7-0.2 0.4 0 0.7 0.2 0.3 0.2 0.4 0.4 0.2 0.3 0.2 0.7 0 0.4-0.2 0.7-0.1 0.3-0.4 0.4-0.3 0.1-0.7 0.1-0.4 0-0.7-0.1-0.2-0.1-0.3-0.4-0.2-0.3-0.2-0.7z"/>
			<path id="path5228" class="s2" d="m292 67.2q0-0.3 0.2-0.6 0.1-0.3 0.3-0.4 0.3-0.2 0.7-0.2 0.4 0 0.7 0.2 0.3 0.1 0.4 0.4 0.2 0.3 0.2 0.6 0 0.4-0.2 0.7-0.1 0.3-0.4 0.4-0.3 0.2-0.7 0.2-0.4 0-0.7-0.2-0.2-0.1-0.3-0.4-0.2-0.3-0.2-0.7zm0-6.2q0-0.4 0.2-0.7 0.1-0.2 0.3-0.4 0.3-0.2 0.7-0.2 0.4 0 0.7 0.2 0.3 0.2 0.4 0.4 0.2 0.3 0.2 0.7 0 0.4-0.2 0.7-0.1 0.3-0.4 0.4-0.3 0.1-0.7 0.1-0.4 0-0.7-0.1-0.2-0.1-0.3-0.4-0.2-0.3-0.2-0.7z"/>
			<path id="path5230" class="s2" d="m298.2 59.9h1.3v1.2q0 0 0-0.1 0.4-0.6 0.9-0.9 0.6-0.3 1.2-0.3 0.7 0 1.2 0.3 0.6 0.3 0.9 0.9 0.6 1 0.6 2.4v5h-1.3v-5q0-1-0.4-1.7-0.2-0.4-0.6-0.6-0.3-0.2-0.8-0.2-0.4 0-0.7 0.2-0.4 0.2-0.7 0.6-0.3 0.7-0.3 1.7v5h-1.3z"/>
			<path id="path5232" fill-rule="evenodd" class="s2" d="m306.1 63.4q0-1.3 0.5-2.2 0.4-0.7 1-1 0.7-0.4 1.6-0.4 1 0 1.6 0.4 0.7 0.3 1.1 1 0.5 0.9 0.5 2.2v1.3h-5.1v0.1q0 1 0.4 1.6 0.3 0.5 0.7 0.7 0.4 0.3 0.9 0.2 0.6 0 1-0.2 0.4-0.2 0.7-0.7 0.1-0.3 0.3-0.6l1.1 0.5q-0.1 0.4-0.3 0.7-0.4 0.7-1.1 1.1-0.7 0.4-1.7 0.4-0.9 0-1.6-0.4-0.7-0.4-1.1-1.1-0.5-0.9-0.5-2.2zm1.2 0v0.2h3.8v-0.2q0-0.9-0.3-1.6-0.3-0.4-0.7-0.6-0.4-0.2-0.9-0.3-0.5 0.1-0.8 0.3-0.4 0.2-0.7 0.6-0.4 0.7-0.4 1.6z"/>
			<path id="path5234" class="s2" d="m314.2 59.9h1.3v2.1q0 1.5 0.4 4.7l0.9-3.4h0.8l1 3.4q0.4-3.2 0.4-4.7v-2.1h1.3v2.1q0 1.9-1.3 6.4h-0.8l-1-3.7-1 3.7h-0.8q-1.2-4.5-1.2-6.4z"/>
			<path id="path5236" class="s2" d="m323.4 62.5q0-3.5 1.4-5.9 1.1-1.8 2.9-2.9l0.6 1q-1.5 0.9-2.4 2.5-1.2 2.1-1.2 5.3 0 3.2 1.2 5.4 0.9 1.5 2.4 2.5l-0.6 1q-1.8-1.1-2.9-3-1.4-2.4-1.4-5.9z"/>
			<path id="path5238" class="s2" d="m330.2 70.4q1.5-1 2.3-2.5 1.3-2.2 1.3-5.4 0-3.2-1.3-5.3-0.8-1.6-2.3-2.5l0.6-1q1.8 1.1 2.9 2.9 1.4 2.4 1.4 5.9 0 3.5-1.4 5.9-1.1 1.9-2.9 3z"/>
			<path id="path5240" class="s2" d="m339.9 71q0.3-0.4 0.5-0.7 0.5-0.9 0.7-1.8-0.3 0-0.6-0.2-0.2-0.1-0.3-0.4-0.2-0.3-0.2-0.7 0-0.3 0.2-0.6 0.1-0.3 0.3-0.4 0.3-0.2 0.7-0.2 0.4 0 0.7 0.2 0.3 0.1 0.4 0.4 0.2 0.3 0.2 0.6 0 0.1 0 0.1 0 1.7-1 3.5-0.3 0.4-0.6 0.8zm0.1-10q0-0.3 0.2-0.6 0.1-0.3 0.4-0.4 0.3-0.2 0.7-0.2 0.3 0 0.6 0.2 0.3 0.1 0.4 0.4 0.2 0.3 0.2 0.6 0 0.4-0.2 0.7-0.1 0.3-0.4 0.4-0.3 0.2-0.6 0.2-0.4 0-0.7-0.2-0.3-0.1-0.4-0.4-0.2-0.3-0.2-0.7z"/>
			<path id="path5242" class="s2" d="m139.3 117.3q0.4 0 0.8-0.1 0.3-0.1 0.6-0.3 0.5-0.2 0.7-0.6 0.2-0.4 0.2-0.9 0-0.5-0.3-1.3-0.5-1.1-0.5-1.9 0-0.8 0.4-1.4 0.3-0.7 1-1.1 1-0.6 2.5-0.6v1.2q-1.1 0-1.7 0.4-0.5 0.3-0.7 0.6-0.2 0.4-0.2 0.9 0 0.5 0.3 1.3 0.5 1.1 0.5 1.9 0 0.8-0.4 1.5-0.3 0.6-0.9 0.9 0.6 0.4 0.9 1 0.4 0.6 0.4 1.5 0 0.8-0.5 1.9-0.3 0.8-0.3 1.3 0 0.5 0.2 0.8 0.2 0.4 0.7 0.7 0.6 0.4 1.7 0.4v1.1q-1.5 0-2.5-0.5-0.7-0.5-1-1.1-0.4-0.6-0.4-1.4 0-0.8 0.5-1.9 0.3-0.8 0.3-1.3 0-0.5-0.2-0.9-0.2-0.4-0.7-0.6-0.3-0.2-0.6-0.3-0.4-0.1-0.8-0.1z"/>
			<path id="path5244" class="s2" d="m155.2 122.5h2.3v-9.4h-2.1v-1.2h3.3v10.6h2.1v1.2h-5.6z"/>
			<path id="path5246" fill-rule="evenodd" class="s2" d="m162.8 118.7q0-1.3 0.5-2.2 0.4-0.7 1.1-1 0.6-0.4 1.6-0.4 0.9 0 1.6 0.4 0.6 0.3 1 1 0.5 0.9 0.6 2.2v1.3h-5.1v0.2q0 0.9 0.4 1.5 0.2 0.5 0.6 0.7 0.4 0.3 1 0.3 0.6 0 0.9-0.3 0.5-0.2 0.8-0.7 0.1-0.3 0.2-0.6l1.2 0.5q-0.2 0.4-0.3 0.7-0.5 0.7-1.1 1.1-0.8 0.4-1.7 0.4-1 0-1.7-0.4-0.7-0.4-1.1-1.1-0.5-0.9-0.5-2.1zm1.3 0v0.1h3.8v-0.1q0-1-0.4-1.6-0.2-0.5-0.7-0.7-0.3-0.2-0.8-0.2-0.5 0-0.9 0.2-0.4 0.2-0.6 0.7-0.4 0.6-0.4 1.6z"/>
			<path id="path5248" class="s2" d="m170.8 115.2h1.7v-3.3h1.3v3.3h2.6v1.1h-2.6v4.3q0 0.8 0.4 1.4 0.1 0.3 0.4 0.5 0.3 0.2 0.6 0.2 0.3 0 0.6-0.2 0.1-0.1 0.2-0.2 0.5-0.5 0.6-1.4l1.2 0.3q-0.1 0.8-0.4 1.4-0.4 0.6-0.9 0.9-0.6 0.3-1.3 0.3-0.8 0-1.3-0.3-0.5-0.3-0.9-0.9-0.5-0.8-0.5-2v-4.3h-1.7z"/>
			<path id="path5250" class="s13" d="m186.8 115.2h1.3v0.5q0.2-0.3 0.5-0.5 0.2-0.1 0.5-0.1 0.3 0 0.6 0.1 0.3 0.2 0.5 0.6 0.1 0.2 0.2 0.4 0.1-0.2 0.2-0.5 0.2-0.3 0.5-0.5 0.3-0.1 0.6-0.1 0.2 0 0.5 0.1 0.3 0.2 0.5 0.6 0.5 0.7 0.5 2v5.9h-1.3v-5.9q0-1.1-0.4-1.5-0.1-0.1-0.2-0.1-0.2 0-0.3 0.1-0.4 0.4-0.4 1.5v5.9h-1.3v-5.9q0-1.1-0.3-1.5-0.1-0.1-0.3-0.1-0.1 0-0.2 0.1-0.4 0.4-0.4 1.5v5.9h-1.3z"/>
			<path id="path5252" class="s2" d="m202.9 115.6h6.1v1.1h-6.1zm0 3.4h6.1v1.1h-6.1z"/>
			<path id="path5254" fill-rule="evenodd" class="s2" d="m219.3 118.9q0.3-0.5 1.1-1.2-0.2-0.4-0.4-0.7-0.7-1.3-0.7-2.6 0-0.8 0.3-1.5 0.3-0.5 0.8-0.8 0.6-0.3 1.4-0.3 0.7 0 1.3 0.3 0.5 0.3 0.8 0.8 0.4 0.7 0.4 1.5 0 0.9-0.5 1.7-0.4 0.7-1.6 1.7 0.4 0.6 1.1 1.3 0.3 0.4 0.6 0.7v-2h1.3v2.8q-0.1 0.5-0.2 0.9 0.6 1.1 0.6 2.2h-1.2q0-0.4-0.1-0.8-0.3 0.3-0.6 0.5-0.7 0.4-1.7 0.4-1 0-1.7-0.4-0.7-0.4-1-1-0.5-0.8-0.5-1.7 0-0.9 0.5-1.8zm1.2-4.5q0 0.9 0.7 2 0.1 0.2 0.3 0.4 0.8-0.7 1.1-1.2 0.4-0.6 0.4-1.2 0-0.5-0.2-0.9-0.2-0.3-0.5-0.4-0.2-0.1-0.5-0.2-0.4 0.1-0.6 0.2-0.3 0.1-0.4 0.4-0.3 0.4-0.3 0.9zm-0.4 6.3q0 0.6 0.3 1.1 0.2 0.4 0.6 0.6 0.4 0.3 1 0.3 0.5 0 1-0.3 0.3-0.2 0.6-0.6 0.1-0.1 0.1-0.3-0.4-0.7-1.6-1.9-0.5-0.5-0.9-1-0.5 0.5-0.8 0.8-0.3 0.7-0.3 1.3z"/>
			<path id="path5256" class="s2" d="m226.8 115.2h1.3v0.5q0.2-0.3 0.5-0.5 0.2-0.1 0.5-0.1 0.3 0 0.6 0.1 0.3 0.2 0.5 0.6 0.1 0.2 0.2 0.4 0.1-0.2 0.2-0.5 0.2-0.3 0.5-0.5 0.3-0.1 0.6-0.1 0.2 0 0.5 0.1 0.3 0.2 0.5 0.6 0.5 0.7 0.5 2v5.9h-1.3v-5.9q0-1.1-0.4-1.5-0.1-0.1-0.2-0.1-0.2 0-0.3 0.1-0.4 0.4-0.4 1.5v5.9h-1.3v-5.9q0-1.1-0.3-1.5-0.1-0.1-0.3-0.1-0.1 0-0.2 0.1-0.4 0.4-0.4 1.5v5.9h-1.3z"/>
			<path id="path5258" class="s2" d="m234.9 120.2v-5h1.3v5q0 1 0.4 1.6 0.2 0.5 0.6 0.7 0.3 0.2 0.8 0.2 0.4 0 0.8-0.2 0.3-0.2 0.6-0.7 0.3-0.6 0.3-1.6v-5h1.3v8.5h-1.3v-1.2q0 0 0 0.1-0.4 0.6-0.9 0.9-0.5 0.3-1.2 0.3-0.7 0-1.2-0.3-0.5-0.3-0.9-0.9-0.6-1-0.6-2.4z"/>
			<path id="path5260" class="s2" d="m242.8 115.2h1.7v-3.3h1.3v3.3h2.6v1.1h-2.6v4.3q0 0.8 0.4 1.4 0.1 0.3 0.4 0.5 0.3 0.2 0.6 0.2 0.3 0 0.6-0.2 0.1-0.1 0.2-0.2 0.5-0.5 0.6-1.4l1.2 0.3q-0.1 0.8-0.4 1.4-0.4 0.6-0.9 0.9-0.6 0.3-1.3 0.3-0.8 0-1.3-0.3-0.5-0.3-0.9-0.9-0.5-0.8-0.5-2v-4.3h-1.7z"/>
			<path id="path5262" class="s3" d="m260.1 121.5q0.1 0.2 0.1 0.3 0.2 0.4 0.6 0.6 0.5 0.3 1.1 0.3 0.8 0 1.3-0.3 0.3-0.2 0.4-0.5 0.2-0.2 0.2-0.5 0-0.3-0.2-0.5-0.2-0.3-0.5-0.5-0.4-0.2-1.3-0.3-1.1-0.2-1.6-0.5-0.6-0.3-0.9-0.9-0.4-0.6-0.4-1.3 0-0.6 0.3-1.1 0.3-0.5 0.8-0.8 0.8-0.4 2-0.4 1.1 0 1.9 0.4 0.6 0.3 0.9 1 0.2 0.2 0.3 0.4l-1.2 0.4q-0.1-0.1-0.2-0.2-0.2-0.4-0.5-0.6-0.5-0.3-1.2-0.3-0.7 0-1.2 0.3-0.3 0.2-0.5 0.4-0.1 0.3-0.1 0.5 0 0.4 0.2 0.6 0.1 0.3 0.4 0.5 0.4 0.2 1.3 0.3 1.2 0.2 1.7 0.5 0.6 0.3 0.9 0.9 0.3 0.5 0.3 1.2 0 0.7-0.2 1.1-0.3 0.5-0.9 0.9-0.8 0.4-2 0.4-1.1 0-1.8-0.4-0.6-0.4-1-1-0.1-0.2-0.2-0.5z"/>
			<path id="path5264" class="s2" d="m268.6 126.3q0.3-0.4 0.5-0.7 0.5-0.9 0.7-1.8-0.3 0-0.5-0.1-0.3-0.2-0.4-0.5-0.2-0.2-0.2-0.6 0-0.4 0.2-0.7 0.1-0.3 0.4-0.4 0.3-0.2 0.7-0.2 0.4 0 0.7 0.2 0.2 0.1 0.4 0.4 0.1 0.3 0.1 0.7 0 0 0 0 0 1.7-1 3.5-0.2 0.4-0.5 0.8zm0.1-10q0-0.3 0.1-0.6 0.2-0.3 0.4-0.4 0.3-0.2 0.7-0.2 0.4 0 0.7 0.2 0.2 0.1 0.4 0.4 0.2 0.3 0.2 0.6 0 0.4-0.2 0.7-0.2 0.3-0.4 0.4-0.3 0.2-0.7 0.2-0.4 0-0.7-0.2-0.2-0.1-0.4-0.4-0.1-0.3-0.1-0.7z"/>
			<g id="g5266">
				<path id="path5268" class="s0" d="m48 120.3v-58"/>
			</g>
			<circle id="path5270" class="s3" cx="47.9" cy="63.4" r="8.6"/>
			<g id="g5272">
				<path id="path5274" class="s14" d="m118.8 197.8v11.7"/>
			</g>
			<g id="g5276">
				<path id="path5278" class="s6" d="m48 196.8v11.8"/>
			</g>
			<g id="g5280">
				<path id="path5282" class="s7" d="m48 192.9v-72.6"/>
			</g>
			<circle id="path5284" class="s13" cx="48.1" cy="120.2" r="8.6"/>
			<path id="path5286" class="s13" d="m68.8 168.2h1.3v0.5q0.2-0.4 0.5-0.5 0.3-0.2 0.6-0.2 0.2 0 0.5 0.2 0.3 0.2 0.5 0.5 0.1 0.3 0.2 0.5 0.1-0.3 0.3-0.5 0.2-0.4 0.5-0.5 0.2-0.2 0.5-0.2 0.3 0 0.5 0.2 0.3 0.2 0.5 0.5 0.5 0.8 0.5 2.1v5.8h-1.3v-5.8q0-1.1-0.4-1.5-0.1-0.1-0.2-0.1-0.2 0-0.3 0.1-0.4 0.4-0.3 1.5v5.8h-1.3v-5.8q0-1.1-0.4-1.5-0.1-0.1-0.3-0.1-0.1 0-0.2 0.1-0.4 0.4-0.4 1.5v5.8h-1.3z"/>
			<path id="path5288" class="s2" d="m78.8 175.5q0-0.4 0.1-0.7 0.2-0.2 0.4-0.4 0.3-0.1 0.7-0.1 0.4 0 0.7 0.1 0.2 0.2 0.4 0.4 0.2 0.3 0.2 0.7 0 0.4-0.2 0.7-0.2 0.3-0.4 0.4-0.3 0.2-0.7 0.2-0.4 0-0.7-0.2-0.2-0.1-0.4-0.4-0.1-0.3-0.1-0.7zm0-6.2q0-0.4 0.1-0.7 0.2-0.3 0.4-0.4 0.3-0.2 0.7-0.2 0.4 0 0.7 0.2 0.2 0.1 0.4 0.4 0.2 0.3 0.2 0.7 0 0.4-0.2 0.7-0.2 0.2-0.4 0.3-0.3 0.2-0.7 0.2-0.4 0-0.7-0.2-0.2-0.1-0.4-0.3-0.1-0.3-0.1-0.7z"/>
			<path id="path5290" class="s8" d="m96.7 164.3q0 2.6-0.1 5.1h-1.2q-0.1-2.5-0.1-5.1z"/>
			<path id="path5292" fill-rule="evenodd" class="s8" d="m100.5 172.8l0.2-1.5q0.2-1.1 0.8-1.9 0.5-0.6 1.2-1 0.7-0.4 1.6-0.4 0.9 0 1.6 0.5 0.6 0.4 0.9 1.1 0.4 1 0.2 2.4l-0.3 1.5q-0.2 1.1-0.8 1.9-0.5 0.7-1.2 1-0.7 0.4-1.5 0.4-1 0-1.6-0.5-0.2-0.1-0.4-0.2l-0.7 3.8h-1.3zm1.4 1.9q0.2 0.5 0.5 0.7 0.3 0.2 0.8 0.2 0.5 0 0.9-0.2 0.5-0.2 0.8-0.6 0.4-0.6 0.6-1.5l0.2-1.4q0.2-1.1-0.1-1.8-0.2-0.4-0.5-0.7-0.3-0.2-0.8-0.2-0.5 0-0.9 0.2-0.4 0.3-0.8 0.7-0.4 0.6-0.6 1.5l-0.2 1.4q-0.2 1.1 0.1 1.7z"/>
			<path id="path5294" fill-rule="evenodd" class="s9" d="m42.6 234v-11.1l0.9-0.8h1v-3.2c0-2.5 1.3-3.9 3.6-3.9 2.3 0 3.6 1.4 3.6 3.9v3.2h1l0.8 0.8v11.1l-0.8 0.7h-9.2zm5.2-1.5h0.4l1-0.5-0.6-3.6c0.9-0.3 1.2-0.9 1.2-1.6 0-1-0.8-1.8-1.8-1.8-1 0-1.8 0.8-1.8 1.8 0 0.7 0.4 1.3 1.2 1.6l-0.5 3.6zm2.4-10.2v-3.1c0-1.7-0.7-2.7-2.2-2.7-1.4 0-2.2 1-2.2 2.7v3.1z"/>
			<path id="path5296" class="s2" d="m141.8 320.3q1 0 1.7-0.4 0.5-0.2 0.7-0.6 0.2-0.4 0.2-0.9 0-0.5-0.4-1.3-0.4-1.1-0.4-1.9 0-0.8 0.3-1.4 0.4-0.6 1-1-0.6-0.4-1-1-0.3-0.6-0.3-1.5 0-0.7 0.4-1.9 0.4-0.8 0.4-1.3 0-0.4-0.2-0.8-0.2-0.4-0.7-0.7-0.7-0.4-1.7-0.4v-1.1q1.5 0 2.4 0.6 0.8 0.4 1.1 1 0.4 0.6 0.4 1.4 0 0.8-0.5 1.9-0.3 0.8-0.3 1.3 0 0.5 0.2 0.9 0.2 0.4 0.6 0.6 0.3 0.2 0.7 0.3 0.4 0.1 0.8 0.1v1.1q-0.4 0-0.8 0.1-0.4 0.1-0.7 0.3-0.4 0.2-0.6 0.6-0.2 0.4-0.2 0.9 0 0.5 0.3 1.3 0.5 1.1 0.5 1.9 0 0.9-0.4 1.4-0.3 0.7-1.1 1.1-0.9 0.6-2.4 0.6z"/>
			<g id="g5298">
				<path id="path5300" class="s7" d="m48 312.9v-52.6"/>
			</g>
			<g id="g5302">
				<path id="path5304" class="s6" d="m48 244.8v11.8"/>
			</g>
			<circle id="path5306" class="s3" cx="48.1" cy="312.2" r="8.6"/>
			<path id="path5308" class="s13" d="m121.9 225.5h5.3l-3-5.3h0.2l6.5 6.5v0.1l-6.5 6.5h-0.2l3-5.3h-5.3q-1.4 0-2.7-0.6-1.4-0.6-2.3-1.5-1.4-1.4-3.4-1.4-1.9 0-3.3 1.4l-2 2-1.8-1.8 2-2q1-1 2.3-1.5 1.4-0.6 2.8-0.6 1.5 0 2.8 0.6 1.4 0.5 2.3 1.5 1.4 1.4 3.3 1.4z"/>
			<path id="path5310" class="s2" d="m181.2 179.7q0-1.8 0.5-3.4 0.5-1.6 1.4-3 1-1.3 2-1.8l0.3 0.9q-1.2 0.9-1.9 2.7-0.7 1.8-0.8 4v0.7q0 3 1.1 5.2 0.6 1.3 1.6 2.1l-0.3 0.9q-1.1-0.6-2-2-1.9-2.6-1.9-6.3z"/>
			<path id="path5312" class="s2" d="m190.1 183.3q0.8 0 1.4-0.5 0.6-0.5 0.6-1.2h1.4q0 0.8-0.5 1.4-0.5 0.7-1.2 1.1-0.8 0.4-1.7 0.4-1.7 0-2.7-1.2-1-1.1-1-3.1v-0.3q0-1.2 0.4-2.2 0.5-0.9 1.3-1.5 0.9-0.5 2-0.5 1.5 0 2.4 0.9 1 0.8 1 2.2h-1.4q0-0.9-0.6-1.4-0.5-0.5-1.4-0.5-1.1 0-1.7 0.8-0.6 0.8-0.6 2.3v0.2q0 1.5 0.6 2.3 0.6 0.8 1.7 0.8z"/>
			<path id="path5314" fill-rule="evenodd" class="s2" d="m200.4 184.3q-0.2-0.2-0.3-0.9-1 1.1-2.4 1.1-1.2 0-2-0.7-0.8-0.7-0.8-1.9 0-1.3 1-2 1-0.7 2.8-0.7h1.4v-0.7q0-0.7-0.4-1.2-0.5-0.4-1.4-0.4-0.7 0-1.3 0.4-0.5 0.3-0.5 0.9h-1.4q0-0.6 0.4-1.2 0.5-0.6 1.2-0.9 0.8-0.4 1.7-0.4 1.5 0 2.3 0.7 0.8 0.8 0.9 2v3.9q0 1.2 0.3 1.9v0.1zm-2.4-1.1q0.7 0 1.3-0.4 0.6-0.3 0.8-0.9v-1.7h-1.1q-2.6 0-2.6 1.6 0 0.6 0.4 1 0.5 0.4 1.2 0.4z"/>
			<path id="path5316" class="s2" d="m205.2 175.8l0.1 1.1q0.9-1.2 2.5-1.2 2.7 0 2.7 3v5.6h-1.4v-5.6q0-0.9-0.5-1.3-0.4-0.5-1.2-0.5-0.7 0-1.3 0.4-0.5 0.4-0.8 1v6h-1.4v-8.5z"/>
			<path id="path5318" class="s2" d="m218 175.8l0.1 1q0.9-1.1 2.5-1.1 1.7 0 2.4 1.4 0.4-0.7 1.1-1 0.7-0.4 1.6-0.4 2.8 0 2.8 2.9v5.7h-1.4v-5.6q0-0.9-0.4-1.3-0.5-0.5-1.4-0.5-0.9 0-1.4 0.5-0.5 0.5-0.6 1.3v5.6h-1.4v-5.5q0-1.9-1.8-1.9-1.5 0-2 1.2v6.2h-1.4v-8.5z"/>
			<path id="path5320" fill-rule="evenodd" class="s2" d="m230.3 180q0-1.2 0.5-2.2 0.5-1 1.4-1.6 0.8-0.5 1.9-0.5 1.8 0 2.8 1.2 1.1 1.2 1.1 3.2v0.1q0 1.2-0.5 2.2-0.4 1-1.3 1.5-0.9 0.6-2 0.6-1.7 0-2.8-1.2-1.1-1.2-1.1-3.2zm1.5 0.2q0 1.4 0.6 2.2 0.7 0.9 1.8 0.9 1.1 0 1.7-0.9 0.7-0.8 0.7-2.4 0-1.4-0.7-2.2-0.7-0.9-1.8-0.9-1 0-1.7 0.8-0.6 0.9-0.6 2.5z"/>
			<path id="path5322" class="s2" d="m242.5 182.3l2.1-6.5h1.5l-3.1 8.5h-1.1l-3-8.5h1.4z"/>
			<path id="path5324" fill-rule="evenodd" class="s2" d="m250.9 184.5q-1.8 0-2.8-1.2-1.1-1.1-1.1-3v-0.2q0-1.3 0.5-2.3 0.4-1 1.3-1.5 0.9-0.6 1.9-0.6 1.6 0 2.5 1.1 1 1.1 1 3.1v0.6h-5.8q0.1 1.2 0.8 2 0.7 0.8 1.7 0.8 0.8 0 1.3-0.3 0.6-0.3 1-0.9l0.9 0.7q-1.1 1.7-3.2 1.7zm-0.2-7.6q-0.9 0-1.5 0.6-0.6 0.7-0.7 1.8h4.2v-0.1q0-1.1-0.6-1.7-0.5-0.6-1.4-0.6z"/>
			<path id="path5326" class="s13" d="m259.5 175.8h1.3v0.6q0.2-0.4 0.5-0.6 0.2-0.1 0.5-0.1 0.3 0 0.6 0.1 0.3 0.2 0.5 0.6 0.1 0.2 0.2 0.5 0.1-0.3 0.2-0.5 0.2-0.4 0.5-0.6 0.3-0.1 0.6-0.1 0.3 0 0.5 0.1 0.3 0.2 0.5 0.6 0.5 0.8 0.5 2.1v5.8h-1.3v-5.8q0-1.2-0.4-1.6-0.1-0.1-0.2-0.1-0.2 0-0.3 0.1-0.4 0.4-0.4 1.6v5.8h-1.2v-5.8q0-1.2-0.4-1.6-0.1-0.1-0.3-0.1-0.1 0-0.2 0.1-0.4 0.4-0.4 1.6v5.8h-1.3z"/>
			<path id="path5328" class="s2" d="m271.1 179.8q0 1.7-0.4 3.3-0.5 1.6-1.4 3-1 1.3-2 1.9l-0.3-0.9q1.2-0.9 1.9-2.9 0.8-1.9 0.8-4.3v-0.2q0-1.7-0.4-3.1-0.3-1.4-0.9-2.5-0.6-1.1-1.4-1.8l0.3-0.8q1 0.5 2 1.9 0.9 1.3 1.4 2.9 0.4 1.6 0.4 3.5z"/>
			<path id="path5330" class="s2" d="m181.2 208.7q0-1.8 0.5-3.4 0.5-1.6 1.4-3 1-1.3 2-1.8l0.3 0.9q-1.2 0.9-1.9 2.7-0.7 1.8-0.8 4v0.7q0 3 1.1 5.2 0.6 1.3 1.6 2.1l-0.3 0.9q-1.1-0.6-2-2-1.9-2.6-1.9-6.3z"/>
			<path id="path5332" class="s2" d="m190.1 212.3q0.8 0 1.4-0.5 0.6-0.5 0.6-1.2h1.4q0 0.8-0.5 1.4-0.5 0.7-1.2 1.1-0.8 0.4-1.7 0.4-1.7 0-2.7-1.2-1-1.1-1-3.1v-0.3q0-1.2 0.4-2.2 0.5-0.9 1.3-1.5 0.9-0.5 2-0.5 1.5 0 2.4 0.9 1 0.8 1 2.2h-1.4q0-0.9-0.6-1.4-0.5-0.5-1.4-0.5-1.1 0-1.7 0.8-0.6 0.8-0.6 2.3v0.2q0 1.5 0.6 2.3 0.6 0.8 1.7 0.8z"/>
			<path id="path5334" fill-rule="evenodd" class="s2" d="m200.4 213.3q-0.2-0.2-0.3-0.9-1 1.1-2.4 1.1-1.2 0-2-0.7-0.8-0.7-0.8-1.9 0-1.3 1-2 1-0.7 2.8-0.7h1.4v-0.7q0-0.7-0.4-1.2-0.5-0.4-1.4-0.4-0.7 0-1.3 0.4-0.5 0.3-0.5 0.9h-1.4q0-0.6 0.4-1.2 0.5-0.6 1.2-0.9 0.8-0.4 1.7-0.4 1.5 0 2.3 0.7 0.8 0.8 0.9 2v3.9q0 1.2 0.3 1.9v0.1zm-2.4-1.1q0.7 0 1.3-0.4 0.6-0.3 0.8-0.9v-1.7h-1.1q-2.6 0-2.6 1.6 0 0.6 0.4 1 0.5 0.4 1.2 0.4z"/>
			<path id="path5336" class="s2" d="m205.2 204.8l0.1 1.1q0.9-1.2 2.5-1.2 2.7 0 2.7 3v5.6h-1.4v-5.6q0-0.9-0.5-1.3-0.4-0.5-1.2-0.5-0.7 0-1.3 0.4-0.5 0.4-0.8 1v6h-1.4v-8.5z"/>
			<path id="path5338" fill-rule="evenodd" class="s2" d="m216.3 209q0-1.9 0.9-3.1 1-1.2 2.5-1.2 1.4 0 2.3 1v-4.4h1.4v12h-1.3v-0.9q-0.9 1.1-2.5 1.1-1.4 0-2.4-1.2-0.9-1.2-0.9-3.2zm1.5 0.2q0 1.4 0.5 2.2 0.6 0.8 1.7 0.8 1.4 0 2-1.2v-3.9q-0.6-1.2-2-1.2-1.1 0-1.7 0.8-0.5 0.9-0.5 2.5z"/>
			<path id="path5340" fill-rule="evenodd" class="s2" d="m225.3 209q0-1.2 0.5-2.2 0.5-1 1.4-1.6 0.8-0.5 1.9-0.5 1.8 0 2.8 1.2 1.1 1.2 1.1 3.2v0.1q0 1.2-0.5 2.2-0.4 1-1.3 1.5-0.9 0.6-2 0.6-1.7 0-2.8-1.2-1.1-1.2-1.1-3.2zm1.5 0.2q0 1.4 0.6 2.2 0.7 0.9 1.8 0.9 1.1 0 1.7-0.9 0.7-0.8 0.7-2.4 0-1.4-0.7-2.2-0.7-0.9-1.8-0.9-1 0-1.7 0.8-0.6 0.9-0.6 2.5z"/>
			<path id="path5342" class="s2" d="m242.3 211.3l1.6-6.5h1.5l-2.5 8.5h-1.2l-2-6.4-2 6.4h-1.2l-2.4-8.5h1.4l1.7 6.4 1.9-6.4h1.2z"/>
			<path id="path5344" class="s2" d="m248.2 204.8l0.1 1.1q0.9-1.2 2.5-1.2 2.7 0 2.7 3v5.6h-1.4v-5.6q0-0.9-0.5-1.3-0.4-0.5-1.2-0.5-0.7 0-1.3 0.4-0.5 0.4-0.8 1v6h-1.4v-8.5z"/>
			<path id="path5346" fill-rule="evenodd" class="s2" d="m255.4 209q0-2 0.9-3.1 0.9-1.2 2.4-1.2 1.5 0 2.4 1.1l0.1-1h1.3v8.3q0 1.6-1 2.6-1 0.9-2.6 0.9-0.9 0-1.8-0.4-0.9-0.4-1.3-1l0.7-0.9q1 1.1 2.3 1.1 1.1 0 1.6-0.6 0.6-0.5 0.6-1.6v-0.8q-0.8 1.1-2.3 1.1-1.5 0-2.4-1.2-0.9-1.2-0.9-3.3zm1.4 0.2q0 1.4 0.6 2.2 0.6 0.8 1.6 0.8 1.4 0 2-1.2v-3.9q-0.6-1.2-2-1.2-1 0-1.6 0.8-0.6 0.9-0.6 2.5z"/>
			<path id="path5348" class="s2" d="m268.8 206.1q-0.4 0-0.7 0-1.5 0-2 1.2v6h-1.4v-8.5h1.4v1q0.7-1.1 2-1.1 0.4 0 0.7 0.1z"/>
			<path id="path5350" fill-rule="evenodd" class="s2" d="m275 213.3q-0.1-0.2-0.2-0.9-1 1.1-2.4 1.1-1.3 0-2.1-0.7-0.8-0.7-0.8-1.9 0-1.3 1-2 1-0.7 2.9-0.7h1.3v-0.7q0-0.7-0.4-1.2-0.4-0.4-1.3-0.4-0.8 0-1.3 0.4-0.6 0.3-0.6 0.9h-1.4q0-0.6 0.4-1.2 0.5-0.6 1.3-0.9 0.7-0.4 1.6-0.4 1.5 0 2.3 0.7 0.9 0.8 0.9 2v3.9q0 1.2 0.3 1.9v0.1zm-2.4-1.1q0.7 0 1.3-0.4 0.6-0.3 0.9-0.9v-1.7h-1.2q-2.6 0-2.6 1.6 0 0.6 0.4 1 0.5 0.4 1.2 0.4z"/>
			<path id="path5352" fill-rule="evenodd" class="s2" d="m278.1 209q0-1.9 1-3.1 0.9-1.2 2.4-1.2 1.4 0 2.3 1v-4.4h1.5v12h-1.4v-0.9q-0.9 1.1-2.5 1.1-1.4 0-2.3-1.2-1-1.2-1-3.2zm1.5 0.2q0 1.4 0.6 2.2 0.6 0.8 1.6 0.8 1.4 0 2-1.2v-3.9q-0.6-1.2-2-1.2-1 0-1.6 0.8-0.6 0.9-0.6 2.5z"/>
			<path id="path5354" fill-rule="evenodd" class="s2" d="m291 213.5q-1.7 0-2.8-1.2-1.1-1.1-1.1-3v-0.2q0-1.3 0.5-2.3 0.5-1 1.4-1.5 0.8-0.6 1.8-0.6 1.7 0 2.6 1.1 0.9 1.1 0.9 3.1v0.6h-5.7q0 1.2 0.7 2 0.7 0.8 1.8 0.8 0.8 0 1.3-0.3 0.5-0.3 0.9-0.9l0.9 0.7q-1.1 1.7-3.2 1.7zm-0.2-7.6q-0.8 0-1.4 0.6-0.6 0.7-0.8 1.8h4.3v-0.1q-0.1-1.1-0.6-1.7-0.6-0.6-1.5-0.6z"/>
			<path id="path5356" class="s13" d="m299.7 204.8h1.3v0.6q0.2-0.4 0.5-0.6 0.2-0.1 0.5-0.1 0.3 0 0.5 0.1 0.3 0.2 0.6 0.6 0.1 0.2 0.2 0.5 0.1-0.3 0.2-0.5 0.2-0.4 0.5-0.6 0.2-0.1 0.5-0.1 0.3 0 0.6 0.1 0.3 0.2 0.5 0.6 0.4 0.8 0.4 2.1v5.8h-1.3v-5.8q0-1.2-0.3-1.6-0.1-0.1-0.3-0.1-0.1 0-0.2 0.1-0.4 0.4-0.4 1.6v5.8h-1.3v-5.8q0-1.2-0.3-1.6-0.2-0.1-0.3-0.1-0.2 0-0.3 0.1-0.3 0.4-0.3 1.6v5.8h-1.3z"/>
			<path id="path5358" fill-rule="evenodd" class="s2" d="m316 209.7q0.3-0.6 1-1 0.8-0.5 2.2-0.5h1.4v-0.7q0-0.5-0.2-0.9-0.2-0.3-0.5-0.5-0.5-0.3-1.1-0.3-0.6 0-1.1 0.3-0.3 0.2-0.5 0.6-0.2 0.2-0.2 0.5l-1.2-0.3q0-0.4 0.3-0.8 0.3-0.6 0.9-1 0.7-0.4 1.8-0.4 1.1 0 1.8 0.4 0.6 0.4 0.9 0.9 0.4 0.7 0.4 1.5v5.8h-1.3v-1.2q-0.4 0.6-1 1-0.6 0.3-1.5 0.3-0.7 0-1.3-0.3-0.5-0.3-0.8-0.8-0.3-0.6-0.3-1.4 0-0.7 0.3-1.2zm1.1 1.9q0.2 0.3 0.5 0.5 0.4 0.2 0.9 0.2 0.7 0 1.1-0.3 0.5-0.2 0.7-0.7 0.3-0.5 0.3-1.2v-0.7h-1.4q-0.9 0-1.5 0.3-0.4 0.2-0.6 0.5-0.1 0.3-0.1 0.7 0 0.4 0.1 0.7z"/>
			<path id="path5360" class="s2" d="m325 211.2q0 0.1 0.1 0.2 0.2 0.4 0.6 0.6 0.4 0.3 1.1 0.3 0.8 0 1.3-0.3 0.2-0.2 0.4-0.4 0.1-0.3 0.1-0.5 0-0.4-0.1-0.6-0.2-0.3-0.5-0.5-0.4-0.2-1.3-0.3-1.1-0.1-1.7-0.5-0.5-0.3-0.9-0.9-0.3-0.5-0.3-1.2 0-0.7 0.3-1.2 0.3-0.4 0.8-0.8 0.8-0.4 2-0.4 1.1 0 1.8 0.4 0.7 0.4 1 1 0.2 0.2 0.2 0.5l-1.2 0.4q0-0.2-0.1-0.3-0.2-0.4-0.6-0.6-0.4-0.3-1.1-0.3-0.8 0-1.3 0.3-0.2 0.2-0.4 0.5-0.1 0.2-0.1 0.5 0 0.3 0.1 0.5 0.2 0.3 0.5 0.5 0.4 0.2 1.3 0.3 1.1 0.2 1.7 0.5 0.5 0.3 0.9 0.9 0.3 0.6 0.3 1.3 0 0.6-0.3 1.1-0.2 0.5-0.8 0.8-0.8 0.4-2 0.4-1.1 0-1.8-0.4-0.7-0.3-1-1-0.1-0.2-0.2-0.4z"/>
			<path id="path5362" fill-rule="evenodd" class="s2" d="m340.2 208.6q0.3-0.6 1.1-1.3-0.2-0.3-0.4-0.6-0.8-1.4-0.8-2.6 0-0.9 0.4-1.5 0.3-0.6 0.8-0.9 0.6-0.3 1.3-0.3 0.8 0 1.3 0.3 0.6 0.3 0.9 0.9 0.3 0.6 0.3 1.4 0 0.9-0.4 1.7-0.5 0.8-1.7 1.7 0.5 0.6 1.1 1.3 0.4 0.4 0.6 0.7v-2h1.3v2.8q0 0.5-0.1 0.9 0.6 1.1 0.6 2.2h-1.3q0-0.4-0.1-0.7-0.2 0.2-0.5 0.4-0.7 0.4-1.7 0.4-1 0-1.8-0.4-0.6-0.3-1-1-0.4-0.8-0.4-1.7 0-0.9 0.5-1.7zm1.2-4.5q0 0.8 0.6 1.9 0.1 0.2 0.3 0.5 0.9-0.8 1.2-1.3 0.4-0.6 0.4-1.2 0-0.5-0.3-0.9-0.1-0.2-0.4-0.4-0.2-0.1-0.6-0.1-0.3 0-0.6 0.1-0.2 0.2-0.4 0.4-0.2 0.4-0.2 1zm-0.4 6.2q0 0.6 0.2 1.1 0.3 0.4 0.7 0.6 0.4 0.3 0.9 0.3 0.6 0 1-0.3 0.4-0.2 0.7-0.6 0-0.1 0.1-0.3-0.5-0.7-1.6-1.9-0.5-0.5-0.9-1-0.6 0.5-0.8 0.9-0.3 0.6-0.3 1.2z"/>
			<path id="path5364" class="s2" d="m347.8 212.2h6.1v1.1h-6.1z"/>
			<path id="path5366" class="s2" d="m359.3 208.8q0 1.7-0.5 3.3-0.4 1.6-1.4 3-0.9 1.3-1.9 1.9l-0.4-0.9q1.2-0.9 2-2.9 0.7-1.9 0.7-4.3v-0.2q0-1.7-0.3-3.1-0.4-1.4-1-2.5-0.6-1.1-1.4-1.8l0.4-0.8q1 0.5 1.9 1.9 1 1.3 1.4 2.9 0.5 1.6 0.5 3.5z"/>
			<path id="path5368" class="s2" d="m181.2 237.7q0-1.8 0.5-3.4 0.5-1.6 1.4-3 1-1.3 2-1.8l0.3 0.9q-1.2 0.9-1.9 2.7-0.7 1.8-0.8 4v0.7q0 3 1.1 5.2 0.6 1.3 1.6 2.1l-0.3 0.9q-1.1-0.6-2-2-1.9-2.6-1.9-6.3z"/>
			<path id="path5370" class="s2" d="m190 240.6q0.7 0 1.1-0.3 0.4-0.4 0.4-0.9h2.1q0 0.8-0.5 1.6-0.4 0.7-1.2 1.1-0.8 0.4-1.8 0.4-1.8 0-2.9-1.2-1-1.1-1-3.2v-0.1q0-2 1-3.1 1.1-1.2 2.9-1.2 1.6 0 2.5 0.9 1 0.9 1 2.4h-2.1q0-0.7-0.4-1.1-0.4-0.4-1.1-0.4-0.8 0-1.2 0.6-0.4 0.6-0.4 1.8v0.3q0 1.3 0.4 1.9 0.4 0.5 1.2 0.5z"/>
			<path id="path5372" fill-rule="evenodd" class="s2" d="m199.8 242.3q-0.2-0.3-0.2-0.7-0.9 0.9-2.2 0.9-1.2 0-2-0.8-0.8-0.7-0.8-1.8-0.1-1.3 0.9-2 1-0.8 2.9-0.8h1v-0.4q0-0.6-0.2-1-0.3-0.3-1-0.3-0.6 0-0.9 0.2-0.3 0.3-0.3 0.8h-2.3q0-0.7 0.5-1.4 0.4-0.6 1.3-0.9 0.8-0.4 1.8-0.4 1.6 0 2.5 0.8 0.9 0.8 0.9 2.2v3.6q0 1.3 0.4 1.9v0.1zm-1.9-1.6q0.5 0 0.9-0.2 0.4-0.2 0.6-0.6v-1.5h-0.8q-1.7 0-1.8 1.2v0.2q0 0.4 0.3 0.7 0.3 0.2 0.8 0.2z"/>
			<path id="path5374" class="s2" d="m205.5 233.8l0.1 1q0.9-1.1 2.4-1.1 1.4 0 2 0.8 0.7 0.8 0.7 2.3v5.5h-2.2v-5.4q0-0.7-0.4-1-0.3-0.4-1-0.4-0.9 0-1.4 0.8v6h-2.3v-8.5z"/>
			<path id="path5376" class="s2" d="m214.5 233.8l0.1 1q0.9-1.1 2.4-1.1 1.4 0 2 0.8 0.7 0.8 0.7 2.3v5.5h-2.3v-5.4q0-0.7-0.3-1-0.3-0.4-1-0.4-1 0-1.4 0.8v6h-2.3v-8.5z"/>
			<path id="path5378" fill-rule="evenodd" class="s2" d="m221.1 238q0-1.3 0.4-2.2 0.5-1 1.4-1.6 1-0.5 2.1-0.5 1.8 0 2.8 1 1.1 1.1 1.2 2.9l0.1 0.6q0 1.9-1.1 3.1-1.1 1.2-2.9 1.2-1.9 0-3-1.2-1-1.2-1-3.2zm2.2 0.2q0 1.2 0.5 1.8 0.4 0.6 1.3 0.6 0.8 0 1.3-0.6 0.4-0.6 0.4-2 0-1.2-0.4-1.8-0.5-0.7-1.4-0.7-0.8 0-1.2 0.7-0.5 0.6-0.5 2z"/>
			<path id="path5380" class="s2" d="m233.2 231.8v2h1.4v1.7h-1.4v4.2q0 0.5 0.2 0.7 0.1 0.2 0.6 0.2 0.4 0 0.7 0v1.7q-0.7 0.2-1.4 0.2-2.3 0-2.4-2.4v-4.6h-1.2v-1.7h1.2v-2z"/>
			<path id="path5382" class="s2" d="m243.5 241.3q0.7 0 1.3-0.5 0.6-0.5 0.7-1.2h1.3q0 0.8-0.5 1.4-0.4 0.7-1.2 1.1-0.8 0.4-1.6 0.4-1.8 0-2.8-1.2-1-1.1-1-3.1v-0.3q0-1.2 0.4-2.2 0.5-0.9 1.3-1.5 0.9-0.5 2.1-0.5 1.4 0 2.3 0.9 1 0.8 1 2.2h-1.3q-0.1-0.9-0.7-1.4-0.5-0.5-1.3-0.5-1.2 0-1.8 0.8-0.6 0.8-0.6 2.3v0.2q0 1.5 0.6 2.3 0.6 0.8 1.8 0.8z"/>
			<path id="path5384" fill-rule="evenodd" class="s2" d="m248.1 238q0-1.2 0.4-2.2 0.5-1 1.4-1.6 0.9-0.5 2-0.5 1.7 0 2.8 1.2 1.1 1.2 1.1 3.2v0.1q0 1.2-0.5 2.2-0.5 1-1.4 1.5-0.8 0.6-2 0.6-1.7 0-2.8-1.2-1-1.2-1-3.2zm1.4 0.2q0 1.4 0.7 2.2 0.6 0.9 1.7 0.9 1.1 0 1.8-0.9 0.6-0.8 0.6-2.4 0-1.4-0.7-2.2-0.6-0.9-1.7-0.9-1.1 0-1.7 0.8-0.7 0.9-0.7 2.5z"/>
			<path id="path5386" fill-rule="evenodd" class="s2" d="m264.7 238.2q0 1.9-0.9 3.1-0.8 1.2-2.4 1.2-1.5 0-2.4-1v4.1h-1.4v-11.8h1.3l0.1 1q0.9-1.1 2.4-1.1 1.5 0 2.4 1.1 0.9 1.2 0.9 3.2zm-1.4-0.1q0-1.5-0.7-2.3-0.6-0.8-1.6-0.8-1.3 0-2 1.1v4.1q0.7 1.1 2 1.1 1 0 1.6-0.8 0.7-0.8 0.7-2.4z"/>
			<path id="path5388" class="s2" d="m269.2 240.2l2-6.4h1.5l-3.4 9.8q-0.8 2.1-2.5 2.1h-0.3l-0.5-0.1v-1.2h0.4q0.7 0 1.1-0.2 0.5-0.3 0.7-1.1l0.3-0.9-3-8.4h1.6z"/>
			<path id="path5390" class="s13" d="m277.7 233.8h1.3v0.6q0.2-0.4 0.5-0.6 0.2-0.1 0.5-0.1 0.3 0 0.6 0.1 0.3 0.2 0.5 0.6 0.1 0.2 0.2 0.5 0.1-0.3 0.2-0.5 0.2-0.4 0.5-0.6 0.3-0.1 0.6-0.1 0.2 0 0.5 0.1 0.3 0.2 0.5 0.6 0.5 0.8 0.5 2.1v5.8h-1.3v-5.8q0-1.2-0.4-1.6-0.1-0.1-0.2-0.1-0.2 0-0.3 0.1-0.4 0.4-0.4 1.6v5.8h-1.3v-5.8q0-1.2-0.3-1.6-0.1-0.1-0.3-0.1-0.1 0-0.2 0.1-0.4 0.4-0.4 1.6v5.8h-1.3z"/>
			<path id="path5392" class="s2" d="m289.3 237.8q0 1.7-0.4 3.3-0.5 1.6-1.5 3-0.9 1.3-1.9 1.9l-0.3-0.9q1.2-0.9 1.9-2.9 0.7-1.9 0.8-4.3v-0.2q0-1.7-0.4-3.1-0.3-1.4-0.9-2.5-0.7-1.1-1.4-1.8l0.3-0.8q1 0.5 1.9 1.9 1 1.3 1.4 2.9 0.5 1.6 0.5 3.5z"/>
			<path id="path5394" class="s2" d="m181.2 266.7q0-1.8 0.5-3.4 0.5-1.6 1.4-3 1-1.3 2-1.8l0.3 0.9q-1.2 0.9-1.9 2.7-0.7 1.8-0.8 4v0.7q0 3 1.1 5.2 0.6 1.3 1.6 2.1l-0.3 0.9q-1.1-0.6-2-2-1.9-2.6-1.9-6.3z"/>
			<path id="path5396" class="s2" d="m190 269.6q0.7 0 1.1-0.3 0.4-0.4 0.4-0.9h2.1q0 0.8-0.5 1.6-0.4 0.7-1.2 1.1-0.8 0.4-1.8 0.4-1.8 0-2.9-1.2-1-1.1-1-3.2v-0.1q0-2 1-3.1 1.1-1.2 2.9-1.2 1.6 0 2.5 0.9 1 0.9 1 2.4h-2.1q0-0.7-0.4-1.1-0.4-0.4-1.1-0.4-0.8 0-1.2 0.6-0.4 0.6-0.4 1.8v0.3q0 1.3 0.4 1.9 0.4 0.5 1.2 0.5z"/>
			<path id="path5398" fill-rule="evenodd" class="s2" d="m199.8 271.3q-0.2-0.3-0.2-0.7-0.9 0.9-2.2 0.9-1.2 0-2-0.8-0.8-0.7-0.8-1.8-0.1-1.3 0.9-2 1-0.8 2.9-0.8h1v-0.4q0-0.6-0.2-1-0.3-0.3-1-0.3-0.6 0-0.9 0.2-0.3 0.3-0.3 0.8h-2.3q0-0.7 0.5-1.4 0.4-0.6 1.3-0.9 0.8-0.4 1.8-0.4 1.6 0 2.5 0.8 0.9 0.8 0.9 2.2v3.6q0 1.3 0.4 1.9v0.1zm-1.9-1.6q0.5 0 0.9-0.2 0.4-0.2 0.6-0.6v-1.5h-0.8q-1.7 0-1.8 1.2v0.2q0 0.4 0.3 0.7 0.3 0.2 0.8 0.2z"/>
			<path id="path5400" class="s2" d="m205.5 262.8l0.1 1q0.9-1.1 2.4-1.1 1.4 0 2 0.8 0.7 0.8 0.7 2.3v5.5h-2.2v-5.4q0-0.7-0.4-1-0.3-0.4-1-0.4-0.9 0-1.4 0.8v6h-2.3v-8.5z"/>
			<path id="path5402" class="s2" d="m214.5 262.8l0.1 1q0.9-1.1 2.4-1.1 1.4 0 2 0.8 0.7 0.8 0.7 2.3v5.5h-2.3v-5.4q0-0.7-0.3-1-0.3-0.4-1-0.4-1 0-1.4 0.8v6h-2.3v-8.5z"/>
			<path id="path5404" fill-rule="evenodd" class="s2" d="m221.1 267q0-1.3 0.4-2.2 0.5-1 1.4-1.6 1-0.5 2.1-0.5 1.8 0 2.8 1 1.1 1.1 1.2 2.9l0.1 0.6q0 1.9-1.1 3.1-1.1 1.2-2.9 1.2-1.9 0-3-1.2-1-1.2-1-3.2zm2.2 0.2q0 1.2 0.5 1.8 0.4 0.6 1.3 0.6 0.8 0 1.3-0.6 0.4-0.6 0.4-2 0-1.2-0.4-1.8-0.5-0.7-1.4-0.7-0.8 0-1.2 0.7-0.5 0.6-0.5 2z"/>
			<path id="path5406" class="s2" d="m233.2 260.8v2h1.4v1.7h-1.4v4.2q0 0.5 0.2 0.7 0.1 0.2 0.6 0.2 0.4 0 0.7 0v1.7q-0.7 0.2-1.4 0.2-2.3 0-2.4-2.4v-4.6h-1.2v-1.7h1.2v-2z"/>
			<path id="path5408" class="s2" d="m245.3 270.5q-0.8 1-2.5 1-1.3 0-2.1-0.8-0.7-0.8-0.7-2.4v-5.5h1.5v5.5q0 1.9 1.5 1.9 1.7 0 2.3-1.2v-6.2h1.4v8.5h-1.4z"/>
			<path id="path5410" class="s2" d="m253.8 269.1q0-0.6-0.4-0.9-0.5-0.4-1.6-0.6-1.1-0.2-1.7-0.6-0.7-0.3-1-0.7-0.3-0.5-0.3-1.1 0-1.1 0.9-1.8 0.9-0.7 2.3-0.7 1.4 0 2.3 0.7 0.9 0.8 0.9 1.9h-1.5q0-0.6-0.5-1-0.5-0.4-1.2-0.4-0.8 0-1.3 0.3-0.4 0.4-0.4 0.9 0 0.5 0.4 0.8 0.4 0.3 1.5 0.5 1.1 0.3 1.7 0.6 0.7 0.3 1 0.8 0.3 0.5 0.4 1.1-0.1 1.2-1 1.9-0.9 0.7-2.3 0.7-1 0-1.8-0.4-0.8-0.4-1.2-1-0.5-0.6-0.5-1.4h1.5q0 0.7 0.6 1.2 0.5 0.4 1.4 0.4 0.8 0 1.3-0.4 0.5-0.3 0.5-0.8z"/>
			<path id="path5412" fill-rule="evenodd" class="s2" d="m260.6 271.5q-1.7 0-2.8-1.2-1-1.1-1-3v-0.2q0-1.3 0.5-2.3 0.4-1 1.3-1.5 0.9-0.6 1.9-0.6 1.6 0 2.5 1.1 0.9 1.1 0.9 3.1v0.6h-5.7q0 1.2 0.7 2 0.7 0.8 1.8 0.8 0.8 0 1.3-0.3 0.5-0.3 1-0.9l0.8 0.7q-1 1.7-3.2 1.7zm-0.1-7.6q-0.9 0-1.5 0.6-0.6 0.7-0.7 1.8h4.2v-0.1q-0.1-1.1-0.6-1.7-0.5-0.6-1.4-0.6z"/>
			<path id="path5414" class="s3" d="m270.6 269.2q0 0.1 0.1 0.2 0.2 0.4 0.6 0.6 0.4 0.3 1.1 0.3 0.8 0 1.3-0.3 0.3-0.2 0.4-0.4 0.1-0.3 0.2-0.5-0.1-0.4-0.2-0.6-0.2-0.3-0.5-0.5-0.4-0.2-1.3-0.3-1.1-0.1-1.7-0.5-0.5-0.3-0.9-0.9-0.3-0.5-0.3-1.2 0-0.7 0.3-1.2 0.3-0.4 0.8-0.8 0.8-0.4 2-0.4 1.1 0 1.9 0.4 0.6 0.4 0.9 1 0.2 0.2 0.3 0.5l-1.2 0.4q-0.1-0.2-0.2-0.3-0.2-0.4-0.6-0.6-0.4-0.3-1.1-0.3-0.8 0-1.2 0.3-0.3 0.2-0.5 0.5-0.1 0.2-0.1 0.5 0 0.3 0.2 0.5 0.1 0.3 0.4 0.5 0.4 0.2 1.3 0.3 1.1 0.2 1.7 0.5 0.6 0.3 0.9 0.9 0.3 0.6 0.3 1.3 0 0.6-0.2 1.1-0.3 0.5-0.9 0.8-0.8 0.4-2 0.4-1.1 0-1.8-0.4-0.6-0.3-1-1-0.1-0.2-0.2-0.4z"/>
			<path id="path5416" fill-rule="evenodd" class="s2" d="m286.8 271.3q-0.2-0.2-0.2-0.9-1.1 1.1-2.4 1.1-1.3 0-2.1-0.7-0.8-0.7-0.8-1.9 0-1.3 1-2 1-0.7 2.8-0.7h1.4v-0.7q0-0.7-0.4-1.2-0.5-0.4-1.4-0.4-0.7 0-1.3 0.4-0.5 0.3-0.5 0.9h-1.4q0-0.6 0.4-1.2 0.5-0.6 1.2-0.9 0.8-0.4 1.7-0.4 1.5 0 2.3 0.7 0.8 0.8 0.9 2v3.9q0 1.2 0.3 1.9v0.1zm-2.4-1.1q0.7 0 1.3-0.4 0.6-0.3 0.9-0.9v-1.7h-1.2q-2.6 0-2.6 1.6 0 0.6 0.4 1 0.5 0.4 1.2 0.4z"/>
			<path id="path5418" class="s2" d="m292.2 260.8v2h1.6v1.2h-1.6v5.2q0 0.5 0.2 0.8 0.2 0.2 0.7 0.2 0.3 0 0.7-0.1v1.2q-0.5 0.2-1.1 0.2-0.9 0-1.4-0.6-0.5-0.6-0.5-1.7v-5.2h-1.6v-1.2h1.6v-2z"/>
			<path id="path5420" fill-rule="evenodd" class="s2" d="m304.7 271.3q-0.2-0.2-0.2-0.9-1 1.1-2.4 1.1-1.3 0-2.1-0.7-0.8-0.7-0.8-1.9 0-1.3 1-2 1-0.7 2.8-0.7h1.4v-0.7q0-0.7-0.4-1.2-0.5-0.4-1.4-0.4-0.7 0-1.2 0.4-0.6 0.3-0.6 0.9h-1.4q0-0.6 0.4-1.2 0.5-0.6 1.2-0.9 0.8-0.4 1.7-0.4 1.5 0 2.3 0.7 0.8 0.8 0.9 2v3.9q0 1.2 0.3 1.9v0.1zm-2.4-1.1q0.7 0 1.3-0.4 0.6-0.3 0.9-0.9v-1.7h-1.2q-2.6 0-2.6 1.6 0 0.6 0.4 1 0.5 0.4 1.2 0.4z"/>
			<path id="path5422" class="s2" d="m308.3 259.3h1.4v12h-1.4z"/>
			<path id="path5424" class="s2" d="m312.2 259.3h1.4v12h-1.4z"/>
			<path id="path5426" class="s2" d="m319.3 266.8q0 1.7-0.5 3.3-0.5 1.6-1.4 3-1 1.3-2 1.9l-0.3-0.9q1.2-0.9 2-2.9 0.7-1.9 0.7-4.3v-0.2q0-1.7-0.4-3.1-0.3-1.4-0.9-2.5-0.6-1.1-1.4-1.8l0.3-0.8q1 0.5 2 1.9 0.9 1.3 1.4 2.9 0.5 1.6 0.5 3.5z"/>
			<g id="g5428">
				<path id="path5430" class="s11" d="m34.9 312.7h-7.2v-192.8h7.2"/>
			</g>
			<path id="path5432" class="s8" d="m9 218.4q0 2.6-0.1 5.2h-1.2q-0.2-2.6-0.2-5.2z"/>
			<path id="path5434" fill-rule="evenodd" class="s8" d="m12.7 226.9l0.3-1.4q0.2-1.2 0.8-2 0.5-0.6 1.2-1 0.7-0.3 1.5-0.3 1 0 1.6 0.4 0.7 0.4 1 1.1 0.4 1 0.1 2.4l-0.2 1.5q-0.2 1.1-0.8 1.9-0.5 0.7-1.2 1-0.7 0.4-1.6 0.4-0.9 0-1.6-0.4-0.2-0.1-0.3-0.3l-0.7 3.8h-1.3zm1.3 2q0.2 0.4 0.6 0.7 0.3 0.2 0.8 0.2 0.4 0 0.9-0.2 0.4-0.3 0.7-0.7 0.5-0.6 0.6-1.5l0.3-1.4q0.2-1.1-0.1-1.8-0.2-0.4-0.6-0.7-0.3-0.2-0.7-0.2-0.6 0-1 0.2-0.4 0.3-0.7 0.7-0.5 0.6-0.6 1.5l-0.3 1.4q-0.2 1.1 0.1 1.8z"/>
		</g>
	</g>
</svg>