<svg version="1.2" xmlns="http://www.w3.org/2000/svg" viewBox="0 0 794 426" width="794" height="426">
	<title>rust-move-copy-borrow-svg</title>
	<style>
		.s0 { fill: #000000 } 
		.s1 { fill: #2196f3 } 
		.s2 { fill: #4caf50 } 
		.s3 { fill: #ff5722 } 
		.s4 { fill: #e91e63 } 
		.s5 { fill: none;stroke: #ce93d8;stroke-width: 3.8 } 
		.s6 { fill: none;stroke: #03a9f4;stroke-width: 3.8;stroke-dasharray: 4,4 } 
		.s7 { fill: none;stroke: #9c27b0;stroke-width: 3.8 } 
		.s8 { fill: none;stroke: #03a9f4;stroke-width: 3.8 } 
		.s9 { fill: none;stroke: #81d4fa;stroke-width: 3.8 } 
		.s10 { fill: #9c27b0 } 
		.s11 { fill: #03a9f4 } 
		.s12 { fill: #81d4fa } 
		.s13 { fill: none;stroke: #3f51b5;stroke-width: 3.8 } 
		.s14 { fill: #3f51b5 } 
		.s15 { fill: #ce93d8 } 
	</style>
	<g id="g4512">
		<g id="g4514">
			<path id="path5436" fill-rule="evenodd" class="s0" d="m424.3 287.5q0-1.5 0.8-2.9 0.5-0.8 1.7-1.9-0.2-0.3-0.4-0.5-1.3-2.3-1.3-4.5 0-1.5 0.7-2.6 0.5-1 1.4-1.5 1-0.6 2.4-0.6 1.4 0 2.4 0.6 0.9 0.5 1.5 1.5 0.6 1.1 0.6 2.6 0 1.4-0.7 2.7-0.7 1.2-2.5 2.6 0.7 1 1.6 2.1v-2.1h3.2v4.2q0 1-0.2 1.8 1.1 1.9 1.1 3.8h-3.2q0-0.3 0-0.7-0.2 0.1-0.3 0.2-1.3 0.7-3.1 0.7-1.8 0-3-0.7-1.2-0.7-1.9-1.8-0.8-1.4-0.8-3zm4-9.8q0 1.3 1 3 0.8-0.8 1.2-1.4 0.5-0.8 0.5-1.7 0-0.9-0.6-1.4-0.3-0.3-0.8-0.3-0.5 0-0.8 0.3-0.5 0.5-0.5 1.5zm-0.8 9.8q0 0.9 0.4 1.5 0.3 0.6 0.8 0.9 0.6 0.3 1.3 0.3 0.8 0 1.3-0.3 0.5-0.3 0.8-0.9-0.7-1-2.1-2.5-0.8-0.8-1.4-1.5-0.4 0.4-0.6 0.7-0.5 0.9-0.5 1.8z"/>
			<path id="path5438" class="s1" d="m425.8 316.2l0.1 1.1q0.9-1.2 2.5-1.2 2.7 0 2.7 3v5.6h-1.4v-5.6q-0.1-0.9-0.5-1.3-0.4-0.5-1.2-0.5-0.7 0-1.3 0.4-0.5 0.4-0.8 1v6h-1.4v-8.5z"/>
			<path id="path5440" fill-rule="evenodd" class="s1" d="m432.9 320.4q0-1.3 0.5-2.3 0.5-1 1.4-1.5 0.8-0.5 1.9-0.5 1.8 0 2.8 1.2 1.1 1.2 1.1 3.2v0.1q0 1.2-0.5 2.2-0.4 1-1.3 1.5-0.9 0.6-2 0.6-1.7 0-2.8-1.2-1.1-1.2-1.1-3.2zm1.5 0.2q0 1.4 0.6 2.2 0.7 0.9 1.8 0.9 1.1 0 1.7-0.9 0.7-0.9 0.7-2.4 0-1.4-0.7-2.2-0.7-0.9-1.8-0.9-1 0-1.7 0.8-0.6 0.9-0.6 2.5z"/>
			<path id="path5442" class="s1" d="m443.8 316.2v1.1q1-1.2 2.6-1.2 2.7 0 2.7 3v5.6h-1.5v-5.6q0-0.9-0.4-1.3-0.4-0.5-1.3-0.5-0.7 0-1.2 0.4-0.5 0.4-0.8 1v6h-1.5v-8.5z"/>
			<path id="path5444" fill-rule="evenodd" class="s1" d="m454.8 324.9q-1.8 0-2.8-1.2-1.1-1.1-1.1-3v-0.3q0-1.2 0.5-2.2 0.5-1 1.3-1.6 0.9-0.5 1.9-0.5 1.6 0 2.6 1.1 0.9 1.1 0.9 3.1v0.6h-5.8q0.1 1.2 0.8 2 0.7 0.8 1.8 0.8 0.7 0 1.2-0.3 0.6-0.4 1-0.9l0.9 0.7q-1.1 1.7-3.2 1.7zm-0.2-7.6q-0.9 0-1.5 0.6-0.6 0.6-0.7 1.8h4.2v-0.1q0-1.1-0.6-1.7-0.5-0.6-1.4-0.6z"/>
			<path id="path5446" class="s1" d="m462.6 319.3l1.9-3.1h1.6l-2.7 4.2 2.8 4.3h-1.6l-2-3.2-2 3.2h-1.6l2.8-4.3-2.7-4.2h1.6z"/>
			<path id="path5448" class="s1" d="m470.9 323.7q0.8 0 1.4-0.5 0.5-0.5 0.6-1.2h1.4q-0.1 0.8-0.5 1.4-0.5 0.7-1.3 1.1-0.7 0.4-1.6 0.4-1.7 0-2.7-1.2-1-1.2-1-3.2v-0.2q0-1.2 0.4-2.2 0.4-0.9 1.3-1.5 0.8-0.5 2-0.5 1.4 0 2.4 0.8 0.9 0.9 1 2.2h-1.4q-0.1-0.8-0.6-1.3-0.6-0.5-1.4-0.5-1.1 0-1.7 0.8-0.6 0.8-0.6 2.3v0.2q0 1.5 0.6 2.3 0.6 0.8 1.7 0.8z"/>
			<path id="path5450" class="s1" d="m476 312.7h1.5v12h-1.5z"/>
			<path id="path5452" class="s1" d="m485 323.9q-0.9 1-2.5 1-1.4 0-2.1-0.8-0.7-0.8-0.7-2.4v-5.5h1.5v5.5q0 1.9 1.5 1.9 1.7 0 2.2-1.2v-6.2h1.5v8.5h-1.4z"/>
			<path id="path5454" class="s1" d="m493.5 322.4q0-0.5-0.5-0.9-0.4-0.3-1.5-0.5-1.1-0.2-1.7-0.6-0.7-0.3-1-0.8-0.3-0.4-0.3-1 0-1.1 0.9-1.8 0.9-0.7 2.3-0.7 1.4 0 2.3 0.7 0.9 0.8 0.9 1.9h-1.5q0-0.6-0.5-1-0.5-0.4-1.2-0.4-0.8 0-1.3 0.3-0.4 0.4-0.4 0.9 0 0.5 0.4 0.8 0.4 0.3 1.5 0.5 1.1 0.2 1.7 0.6 0.7 0.3 1 0.8 0.3 0.5 0.3 1.1 0 1.2-0.9 1.9-0.9 0.7-2.3 0.7-1 0-1.8-0.4-0.8-0.4-1.2-1-0.5-0.7-0.5-1.4h1.5q0 0.7 0.6 1.2 0.5 0.4 1.4 0.4 0.8 0 1.3-0.4 0.5-0.3 0.5-0.9z"/>
			<path id="path5456" class="s1" d="m498.4 324.7h-1.4v-8.5h1.4zm-1.6-10.7q0-0.3 0.2-0.6 0.3-0.2 0.7-0.2 0.4 0 0.6 0.2 0.2 0.3 0.2 0.6 0 0.4-0.2 0.6-0.2 0.3-0.6 0.3-0.4 0-0.7-0.3-0.2-0.2-0.2-0.6z"/>
			<path id="path5458" class="s1" d="m503.5 322.7l2.1-6.5h1.5l-3.1 8.5h-1.1l-3-8.5h1.4z"/>
			<path id="path5460" fill-rule="evenodd" class="s1" d="m511.9 324.9q-1.8 0-2.8-1.2-1.1-1.1-1.1-3v-0.3q0-1.2 0.5-2.2 0.4-1 1.3-1.6 0.9-0.5 1.9-0.5 1.6 0 2.5 1.1 1 1.1 1 3.1v0.6h-5.8q0.1 1.2 0.8 2 0.7 0.8 1.8 0.8 0.7 0 1.2-0.3 0.6-0.4 1-0.9l0.9 0.7q-1.1 1.7-3.2 1.7zm-0.2-7.6q-0.9 0-1.5 0.6-0.6 0.6-0.7 1.8h4.2v-0.1q0-1.1-0.6-1.7-0.5-0.6-1.4-0.6z"/>
			<path id="path5462" class="s0" d="m524.2 323.7q0.7 0 1.3-0.5 0.6-0.5 0.7-1.2h1.4q-0.1 0.8-0.6 1.4-0.4 0.7-1.2 1.1-0.7 0.4-1.6 0.4-1.8 0-2.8-1.2-1-1.2-1-3.2v-0.2q0-1.2 0.5-2.2 0.4-0.9 1.3-1.5 0.8-0.5 2-0.5 1.4 0 2.3 0.8 1 0.9 1.1 2.2h-1.4q-0.1-0.8-0.6-1.3-0.6-0.5-1.4-0.5-1.1 0-1.7 0.8-0.6 0.8-0.6 2.3v0.2q0 1.5 0.6 2.3 0.6 0.8 1.7 0.8z"/>
			<path id="path5464" fill-rule="evenodd" class="s0" d="m528.8 320.4q0-1.3 0.5-2.3 0.5-1 1.3-1.5 0.9-0.5 2-0.5 1.7 0 2.8 1.2 1.1 1.2 1.1 3.2v0.1q0 1.2-0.5 2.2-0.5 1-1.3 1.5-0.9 0.6-2.1 0.6-1.7 0-2.8-1.2-1-1.2-1-3.2zm1.4 0.2q0 1.4 0.7 2.2 0.7 0.9 1.7 0.9 1.1 0 1.8-0.9 0.6-0.9 0.6-2.4 0-1.4-0.6-2.2-0.7-0.9-1.8-0.9-1 0-1.7 0.8-0.7 0.9-0.7 2.5z"/>
			<path id="path5466" class="s0" d="m539.7 316.2v1.1q1-1.2 2.5-1.2 2.7 0 2.8 3v5.6h-1.5v-5.6q0-0.9-0.4-1.3-0.4-0.5-1.3-0.5-0.7 0-1.2 0.4-0.6 0.4-0.9 1v6h-1.4v-8.5z"/>
			<path id="path5468" class="s0" d="m549.1 314.2v2h1.6v1.2h-1.6v5.2q0 0.5 0.2 0.8 0.2 0.2 0.7 0.2 0.3 0 0.7-0.1v1.2q-0.5 0.2-1.1 0.2-1 0-1.4-0.6-0.5-0.6-0.5-1.7v-5.2h-1.6v-1.2h1.6v-2z"/>
			<path id="path5470" class="s0" d="m556.5 317.5q-0.4 0-0.8 0-1.4 0-1.9 1.2v6h-1.4v-8.5h1.4v1q0.7-1.1 2-1.1 0.4 0 0.7 0.1z"/>
			<path id="path5472" fill-rule="evenodd" class="s0" d="m557.2 320.4q0-1.3 0.5-2.3 0.5-1 1.4-1.5 0.8-0.5 2-0.5 1.7 0 2.7 1.2 1.1 1.2 1.1 3.2v0.1q0 1.2-0.4 2.2-0.5 1-1.4 1.5-0.9 0.6-2 0.6-1.7 0-2.8-1.2-1.1-1.2-1.1-3.2zm1.5 0.2q0 1.4 0.6 2.2 0.7 0.9 1.8 0.9 1.1 0 1.7-0.9 0.7-0.9 0.7-2.4 0-1.4-0.7-2.2-0.6-0.9-1.7-0.9-1.1 0-1.8 0.8-0.6 0.9-0.6 2.5z"/>
			<path id="path5474" class="s0" d="m566.9 312.7h1.4v12h-1.4z"/>
			<path id="path5476" class="s0" d="m574.5 320.1q0-1.8 0.5-3.4 0.5-1.6 1.4-3 0.9-1.3 2-1.8l0.3 0.9q-1.2 0.9-1.9 2.7-0.8 1.8-0.8 4v0.7q0 3 1.1 5.2 0.6 1.3 1.6 2.1l-0.3 0.9q-1.1-0.6-2-2-1.9-2.6-1.9-6.3z"/>
			<path id="path5478" class="s0" d="m584.1 317.5q-0.3 0-0.7 0-1.4 0-1.9 1.2v6h-1.4v-8.5h1.4v1q0.7-1.1 2-1.1 0.4 0 0.6 0.1z"/>
			<path id="path5480" fill-rule="evenodd" class="s0" d="m588.8 324.9q-1.7 0-2.8-1.2-1.1-1.1-1.1-3v-0.3q0-1.2 0.5-2.2 0.5-1 1.3-1.6 0.9-0.5 1.9-0.5 1.7 0 2.6 1.1 0.9 1.1 0.9 3.1v0.6h-5.7q0 1.2 0.7 2 0.7 0.8 1.8 0.8 0.7 0 1.3-0.3 0.5-0.4 0.9-0.9l0.9 0.7q-1.1 1.7-3.2 1.7zm-0.2-7.6q-0.9 0-1.5 0.6-0.5 0.6-0.7 1.8h4.3v-0.1q-0.1-1.1-0.6-1.7-0.6-0.6-1.5-0.6z"/>
			<path id="path5482" class="s0" d="m594.5 324.7v-7.3h-1.3v-1.2h1.3v-0.8q0-1.4 0.7-2.1 0.7-0.8 2.1-0.8 0.5 0 1 0.1l-0.1 1.2q-0.4 0-0.8 0-0.7 0-1.1 0.4-0.4 0.4-0.4 1.1v0.9h1.8v1.2h-1.8v7.3z"/>
			<path id="path5484" fill-rule="evenodd" class="s0" d="m602.7 324.9q-1.8 0-2.9-1.2-1-1.1-1-3v-0.3q0-1.2 0.5-2.2 0.4-1 1.3-1.6 0.9-0.5 1.9-0.5 1.6 0 2.5 1.1 0.9 1.1 0.9 3.1v0.6h-5.7q0.1 1.2 0.7 2 0.7 0.8 1.8 0.8 0.8 0 1.3-0.3 0.5-0.4 1-0.9l0.8 0.7q-1 1.7-3.1 1.7zm-0.2-7.6q-0.9 0-1.5 0.6-0.6 0.6-0.7 1.8h4.2v-0.1q-0.1-1.1-0.6-1.7-0.5-0.6-1.4-0.6z"/>
			<path id="path5486" class="s0" d="m611.7 317.5q-0.3 0-0.7 0-1.4 0-1.9 1.2v6h-1.5v-8.5h1.4v1q0.7-1.1 2.1-1.1 0.4 0 0.6 0.1z"/>
			<path id="path5488" fill-rule="evenodd" class="s0" d="m616.4 324.9q-1.8 0-2.8-1.2-1.1-1.1-1.1-3v-0.3q0-1.2 0.5-2.2 0.4-1 1.3-1.6 0.9-0.5 1.9-0.5 1.6 0 2.5 1.1 1 1.1 1 3.1v0.6h-5.8q0.1 1.2 0.8 2 0.7 0.8 1.8 0.8 0.7 0 1.2-0.3 0.6-0.4 1-0.9l0.9 0.7q-1.1 1.7-3.2 1.7zm-0.2-7.6q-0.9 0-1.5 0.6-0.6 0.6-0.7 1.8h4.2v-0.1q0-1.1-0.6-1.7-0.5-0.6-1.4-0.6z"/>
			<path id="path5490" class="s0" d="m622.7 316.2v1.1q1-1.2 2.6-1.2 2.7 0 2.7 3v5.6h-1.5v-5.6q0-0.9-0.4-1.3-0.4-0.5-1.3-0.5-0.7 0-1.2 0.4-0.5 0.4-0.8 1v6h-1.5v-8.5z"/>
			<path id="path5492" class="s0" d="m633.6 323.7q0.7 0 1.3-0.5 0.6-0.5 0.7-1.2h1.3q0 0.8-0.5 1.4-0.5 0.7-1.2 1.1-0.8 0.4-1.6 0.4-1.8 0-2.8-1.2-1-1.2-1-3.2v-0.2q0-1.2 0.4-2.2 0.5-0.9 1.3-1.5 0.9-0.5 2.1-0.5 1.4 0 2.3 0.8 1 0.9 1 2.2h-1.3q-0.1-0.8-0.7-1.3-0.5-0.5-1.3-0.5-1.2 0-1.8 0.8-0.6 0.8-0.6 2.3v0.2q0 1.5 0.6 2.3 0.6 0.8 1.8 0.8z"/>
			<path id="path5494" fill-rule="evenodd" class="s0" d="m642.1 324.9q-1.8 0-2.9-1.2-1-1.1-1-3v-0.3q0-1.2 0.5-2.2 0.4-1 1.3-1.6 0.9-0.5 1.9-0.5 1.6 0 2.5 1.1 0.9 1.1 0.9 3.1v0.6h-5.7q0.1 1.2 0.7 2 0.8 0.8 1.8 0.8 0.8 0 1.3-0.3 0.5-0.4 1-0.9l0.8 0.7q-1 1.7-3.1 1.7zm-0.2-7.6q-0.9 0-1.5 0.6-0.6 0.6-0.7 1.8h4.2v-0.1q-0.1-1.1-0.6-1.7-0.5-0.6-1.4-0.6z"/>
			<path id="path5496" class="s0" d="m652.6 324.7h-1.5v-8.5h1.5zm-1.6-10.7q0-0.3 0.2-0.6 0.2-0.2 0.6-0.2 0.5 0 0.7 0.2 0.2 0.3 0.2 0.6 0 0.4-0.2 0.6-0.2 0.3-0.7 0.3-0.4 0-0.6-0.3-0.2-0.2-0.2-0.6z"/>
			<path id="path5498" class="s0" d="m656.8 314.2v2h1.6v1.2h-1.6v5.2q0 0.5 0.2 0.8 0.2 0.2 0.7 0.2 0.3 0 0.7-0.1v1.2q-0.5 0.2-1.1 0.2-0.9 0-1.4-0.6-0.5-0.6-0.5-1.7v-5.2h-1.6v-1.2h1.6v-2z"/>
			<path id="path5500" class="s0" d="m665 322.4q0-0.5-0.5-0.9-0.4-0.3-1.5-0.5-1.1-0.2-1.7-0.6-0.7-0.3-1-0.8-0.3-0.4-0.3-1 0-1.1 0.9-1.8 0.9-0.7 2.3-0.7 1.4 0 2.3 0.7 0.9 0.8 0.9 1.9h-1.5q0-0.6-0.5-1-0.5-0.4-1.2-0.4-0.8 0-1.3 0.3-0.4 0.4-0.4 0.9 0 0.5 0.4 0.8 0.4 0.3 1.5 0.5 1.1 0.2 1.7 0.6 0.7 0.3 1 0.8 0.3 0.5 0.3 1.1 0 1.2-0.9 1.9-0.9 0.7-2.3 0.7-1 0-1.8-0.4-0.8-0.4-1.2-1-0.5-0.7-0.5-1.4h1.5q0 0.7 0.6 1.2 0.5 0.4 1.4 0.4 0.8 0 1.3-0.4 0.5-0.3 0.5-0.9z"/>
			<path id="path5502" fill-rule="evenodd" class="s0" d="m671.8 324.9q-1.7 0-2.8-1.2-1-1.1-1-3v-0.3q0-1.2 0.4-2.2 0.5-1 1.4-1.6 0.9-0.5 1.9-0.5 1.6 0 2.5 1.1 0.9 1.1 0.9 3.1v0.6h-5.7q0 1.2 0.7 2 0.7 0.8 1.8 0.8 0.8 0 1.3-0.3 0.5-0.4 1-0.9l0.8 0.7q-1 1.7-3.2 1.7zm-0.1-7.6q-0.9 0-1.5 0.6-0.6 0.6-0.7 1.8h4.2v-0.1q-0.1-1.1-0.6-1.7-0.5-0.6-1.4-0.6z"/>
			<path id="path5504" class="s0" d="m676.9 312.7h1.5v12h-1.5z"/>
			<path id="path5506" class="s0" d="m681.4 324.7v-7.3h-1.3v-1.2h1.3v-0.8q0-1.4 0.7-2.1 0.7-0.8 2.1-0.8 0.5 0 1 0.1l-0.1 1.2q-0.4 0-0.8 0-0.7 0-1.1 0.4-0.4 0.4-0.4 1.1v0.9h1.8v1.2h-1.8v7.3z"/>
			<path id="path5508" class="s0" d="m691.8 324.7h-1.5v-8.5h1.5zm-1.6-10.7q0-0.3 0.2-0.6 0.2-0.2 0.7-0.2 0.4 0 0.6 0.2 0.2 0.3 0.2 0.6 0 0.4-0.2 0.6-0.2 0.3-0.6 0.3-0.5 0-0.7-0.3-0.2-0.2-0.2-0.6z"/>
			<path id="path5510" class="s0" d="m699 322.4q0-0.5-0.5-0.9-0.4-0.3-1.5-0.5-1.1-0.2-1.7-0.6-0.7-0.3-1-0.8-0.3-0.4-0.3-1 0-1.1 0.9-1.8 0.9-0.7 2.3-0.7 1.4 0 2.3 0.7 0.9 0.8 0.9 1.9h-1.5q0-0.6-0.5-1-0.5-0.4-1.2-0.4-0.8 0-1.3 0.3-0.4 0.4-0.4 0.9 0 0.5 0.4 0.8 0.4 0.3 1.5 0.5 1.1 0.2 1.7 0.6 0.7 0.3 1 0.8 0.3 0.5 0.3 1.1 0 1.2-0.9 1.9-0.9 0.7-2.3 0.7-1 0-1.8-0.4-0.8-0.4-1.2-1-0.5-0.7-0.5-1.4h1.5q0 0.7 0.6 1.2 0.5 0.4 1.4 0.4 0.8 0 1.3-0.4 0.5-0.3 0.5-0.9z"/>
			<path id="path5512" class="s0" d="m709.7 323.7q0.7 0 1.3-0.5 0.6-0.5 0.7-1.2h1.4q-0.1 0.8-0.6 1.4-0.4 0.7-1.2 1.1-0.7 0.4-1.6 0.4-1.8 0-2.8-1.2-1-1.2-1-3.2v-0.2q0-1.2 0.5-2.2 0.4-0.9 1.3-1.5 0.8-0.5 2-0.5 1.4 0 2.3 0.8 1 0.9 1.1 2.2h-1.4q-0.1-0.8-0.6-1.3-0.6-0.5-1.4-0.5-1.1 0-1.7 0.8-0.6 0.8-0.6 2.3v0.2q0 1.5 0.6 2.3 0.6 0.8 1.7 0.8z"/>
			<path id="path5514" fill-rule="evenodd" class="s0" d="m714.3 320.4q0-1.3 0.5-2.3 0.5-1 1.3-1.5 0.9-0.5 2-0.5 1.7 0 2.8 1.2 1.1 1.2 1.1 3.2v0.1q0 1.2-0.5 2.2-0.5 1-1.3 1.5-0.9 0.6-2.1 0.6-1.7 0-2.8-1.2-1-1.2-1-3.2zm1.4 0.2q0 1.4 0.7 2.2 0.7 0.9 1.7 0.9 1.1 0 1.8-0.9 0.6-0.9 0.6-2.4 0-1.4-0.6-2.2-0.7-0.9-1.8-0.9-1 0-1.7 0.8-0.7 0.9-0.7 2.5z"/>
			<path id="path5516" fill-rule="evenodd" class="s0" d="m730.9 320.6q0 1.9-0.8 3.1-0.9 1.2-2.4 1.2-1.6 0-2.5-1v4h-1.4v-11.7h1.3l0.1 1q0.9-1.1 2.4-1.1 1.6 0 2.4 1.1 0.9 1.2 0.9 3.2zm-1.4-0.1q0-1.5-0.6-2.3-0.6-0.8-1.7-0.8-1.3 0-2 1.1v4.1q0.7 1.1 2 1.1 1.1 0 1.7-0.8 0.6-0.8 0.6-2.4z"/>
			<path id="path5518" class="s0" d="m735.4 322.6l2-6.4h1.6l-3.4 9.8q-0.8 2.1-2.5 2.1h-0.3l-0.6-0.1v-1.2h0.4q0.8 0 1.2-0.3 0.4-0.3 0.7-1l0.3-0.9-3.1-8.4h1.6z"/>
			<path id="path5520" fill-rule="evenodd" class="s0" d="m745.3 324.7q-0.1-0.3-0.2-0.9-1 1.1-2.4 1.1-1.2 0-2-0.8-0.8-0.7-0.8-1.8 0-1.3 1-2 1-0.7 2.8-0.7h1.4v-0.7q0-0.8-0.5-1.2-0.4-0.4-1.3-0.4-0.8 0-1.3 0.3-0.5 0.4-0.5 1h-1.5q0-0.7 0.5-1.2 0.4-0.6 1.2-1 0.8-0.3 1.7-0.3 1.5 0 2.3 0.7 0.8 0.7 0.9 2v3.9q0 1.2 0.2 1.9v0.1zm-2.3-1.1q0.6 0 1.2-0.4 0.6-0.3 0.9-0.9v-1.7h-1.1q-2.7 0-2.7 1.5 0 0.7 0.5 1.1 0.4 0.4 1.2 0.4z"/>
			<path id="path5522" fill-rule="evenodd" class="s0" d="m756 320.6q0 1.9-0.9 3.1-0.9 1.2-2.4 1.2-1.6 0-2.5-1.2v1h-1.4v-12h1.5v4.5q0.8-1.1 2.4-1.1 1.5 0 2.4 1.2 0.9 1.1 0.9 3.1zm-1.5-0.1q0-1.5-0.5-2.3-0.6-0.8-1.7-0.8-1.4 0-2 1.3v3.7q0.6 1.3 2 1.3 1.1 0 1.7-0.8 0.5-0.8 0.5-2.4z"/>
			<path id="path5524" class="s0" d="m757.9 312.7h1.5v12h-1.5z"/>
			<path id="path5526" fill-rule="evenodd" class="s0" d="m765.2 324.9q-1.8 0-2.8-1.2-1.1-1.1-1.1-3v-0.3q0-1.2 0.5-2.2 0.5-1 1.3-1.6 0.9-0.5 1.9-0.5 1.6 0 2.6 1.1 0.9 1.1 0.9 3.1v0.6h-5.8q0.1 1.2 0.8 2 0.7 0.8 1.8 0.8 0.7 0 1.2-0.3 0.6-0.4 1-0.9l0.9 0.7q-1.1 1.7-3.2 1.7zm-0.2-7.6q-0.9 0-1.5 0.6-0.6 0.6-0.7 1.8h4.2v-0.1q0-1.1-0.6-1.7-0.5-0.6-1.4-0.6z"/>
			<path id="path5528" class="s0" d="m773.5 320.1q0 1.8-0.5 3.4-0.4 1.6-1.4 2.9-0.9 1.4-1.9 2l-0.4-0.9q1.2-0.9 2-2.9 0.7-1.9 0.7-4.3v-0.2q0-1.7-0.3-3.1-0.4-1.4-1-2.5-0.6-1.1-1.4-1.8l0.4-0.8q1 0.5 1.9 1.9 0.9 1.3 1.4 2.9 0.5 1.6 0.5 3.4z"/>
			<path id="path5530" fill-rule="evenodd" class="s0" d="m428 349.8q-1.8 0-2.8-1.1-1.1-1.1-1.1-3v-0.3q0-1.2 0.5-2.2 0.4-1 1.3-1.6 0.9-0.5 1.9-0.5 1.6 0 2.5 1.1 1 1 1 3.1v0.6h-5.8q0.1 1.2 0.8 2 0.7 0.8 1.7 0.8 0.8 0 1.3-0.4 0.6-0.3 1-0.8l0.9 0.7q-1.1 1.6-3.2 1.6zm-0.2-7.5q-0.9 0-1.5 0.6-0.6 0.6-0.7 1.8h4.2v-0.1q0-1.1-0.6-1.7-0.5-0.6-1.4-0.6z"/>
			<path id="path5532" class="s0" d="m435.8 344.3l1.8-3.1h1.7l-2.7 4.2 2.8 4.3h-1.7l-1.9-3.2-2 3.2h-1.7l2.9-4.3-2.8-4.2h1.7z"/>
			<path id="path5534" class="s0" d="m442.8 339.2v2h1.6v1.1h-1.6v5.3q0 0.5 0.2 0.7 0.2 0.3 0.7 0.3 0.3 0 0.7-0.1v1.2q-0.5 0.1-1.1 0.1-0.9 0-1.4-0.5-0.5-0.6-0.5-1.7v-5.3h-1.6v-1.1h1.6v-2z"/>
			<path id="path5536" fill-rule="evenodd" class="s0" d="m449.6 349.8q-1.7 0-2.8-1.1-1.1-1.1-1.1-3v-0.3q0-1.2 0.5-2.2 0.5-1 1.3-1.6 0.9-0.5 1.9-0.5 1.6 0 2.6 1.1 0.9 1 0.9 3.1v0.6h-5.7q0 1.2 0.7 2 0.7 0.8 1.8 0.8 0.7 0 1.2-0.4 0.6-0.3 1-0.8l0.9 0.7q-1.1 1.6-3.2 1.6zm-0.2-7.5q-0.9 0-1.5 0.6-0.6 0.6-0.7 1.8h4.2v-0.1q0-1.1-0.6-1.7-0.5-0.6-1.4-0.6z"/>
			<path id="path5538" class="s0" d="m458.6 342.5q-0.3 0-0.7 0-1.4 0-1.9 1.2v6h-1.4v-8.5h1.4v1q0.7-1.1 2-1.1 0.4 0 0.6 0.1z"/>
			<path id="path5540" class="s0" d="m461.5 349.7h-1.4v-8.5h1.4zm-1.5-10.7q0-0.3 0.2-0.6 0.2-0.2 0.6-0.2 0.4 0 0.6 0.2 0.3 0.3 0.3 0.6 0 0.4-0.3 0.6-0.2 0.2-0.6 0.2-0.4 0-0.6-0.2-0.2-0.2-0.2-0.6z"/>
			<path id="path5542" fill-rule="evenodd" class="s0" d="m463.4 345.4q0-1.3 0.5-2.3 0.5-1 1.4-1.5 0.9-0.5 2-0.5 1.7 0 2.8 1.2 1 1.1 1.1 3.1v0.1q-0.1 1.3-0.5 2.3-0.5 0.9-1.4 1.5-0.9 0.5-2 0.5-1.7 0-2.8-1.1-1.1-1.3-1.1-3.2zm1.5 0.2q0 1.3 0.6 2.2 0.7 0.9 1.8 0.9 1.1 0 1.7-0.9 0.7-0.9 0.7-2.4 0-1.4-0.7-2.3-0.6-0.8-1.7-0.8-1.1 0-1.8 0.8-0.6 0.8-0.6 2.5z"/>
			<path id="path5544" class="s0" d="m477 342.5q-0.3 0-0.7 0-1.4 0-1.9 1.2v6h-1.4v-8.5h1.4v1q0.7-1.1 2-1.1 0.4 0 0.6 0.1z"/>
			<path id="path5546" class="s0" d="m478.5 337.7h1.4v12h-1.4z"/>
			<path id="path5548" class="s0" d="m485 347.5l2-6.3h1.5l-3.4 9.8q-0.8 2.1-2.5 2.1h-0.3l-0.5-0.1v-1.2h0.4q0.7 0 1.1-0.3 0.4-0.3 0.7-1.1l0.3-0.8-3-8.4h1.6z"/>
			<path id="path5550" class="s2" d="m495.3 349.7h-1.4v-8.5h1.4zm-1.5-10.7q0-0.3 0.2-0.6 0.2-0.2 0.6-0.2 0.4 0 0.7 0.2 0.2 0.3 0.2 0.6 0 0.4-0.2 0.6-0.3 0.2-0.7 0.2-0.4 0-0.6-0.2-0.2-0.2-0.2-0.6z"/>
			<path id="path5552" class="s2" d="m499 341.2v1q1-1.1 2.5-1.1 1.8 0 2.5 1.3 0.4-0.6 1-1 0.7-0.3 1.7-0.3 2.7 0 2.8 2.9v5.7h-1.5v-5.6q0-0.9-0.4-1.3-0.4-0.5-1.4-0.5-0.8 0-1.3 0.5-0.5 0.5-0.6 1.3v5.6h-1.5v-5.6q0-1.8-1.8-1.8-1.4 0-1.9 1.2v6.2h-1.5v-8.5z"/>
			<path id="path5554" class="s2" d="m513 341.2l0.1 1q0.9-1.1 2.5-1.1 1.7 0 2.4 1.3 0.4-0.6 1.1-1 0.7-0.3 1.6-0.3 2.8 0 2.8 2.9v5.7h-1.4v-5.6q0-0.9-0.4-1.3-0.5-0.5-1.4-0.5-0.8 0-1.4 0.5-0.5 0.5-0.6 1.3v5.6h-1.4v-5.6q0-1.8-1.8-1.8-1.5 0-2 1.2v6.2h-1.4v-8.5z"/>
			<path id="path5556" class="s2" d="m530.9 348.8q-0.8 1-2.5 1-1.3 0-2-0.8-0.7-0.7-0.7-2.3v-5.5h1.4v5.5q0 1.9 1.6 1.9 1.6 0 2.2-1.2v-6.2h1.4v8.5h-1.3z"/>
			<path id="path5558" class="s2" d="m536.5 339.2v2h1.5v1.1h-1.5v5.3q0 0.5 0.2 0.7 0.2 0.3 0.7 0.3 0.3 0 0.7-0.1v1.2q-0.6 0.1-1.1 0.1-1 0-1.5-0.5-0.5-0.6-0.5-1.7v-5.3h-1.5v-1.1h1.5v-2z"/>
			<path id="path5560" fill-rule="evenodd" class="s2" d="m545 349.7q-0.2-0.3-0.3-0.9-1 1-2.4 1-1.2 0-2-0.7-0.8-0.7-0.8-1.8 0-1.3 1-2 1-0.8 2.8-0.8h1.4v-0.6q0-0.8-0.4-1.2-0.5-0.5-1.4-0.5-0.7 0-1.3 0.4-0.5 0.4-0.5 1h-1.4q0-0.7 0.4-1.3 0.5-0.5 1.2-0.9 0.8-0.3 1.7-0.3 1.5 0 2.3 0.7 0.8 0.7 0.9 2v3.9q0 1.2 0.3 1.8v0.2zm-2.4-1.1q0.7 0 1.3-0.4 0.6-0.3 0.8-0.9v-1.7h-1.1q-2.7 0-2.6 1.5 0 0.7 0.4 1.1 0.5 0.4 1.2 0.4z"/>
			<path id="path5562" fill-rule="evenodd" class="s2" d="m555.6 345.5q0 2-0.9 3.2-0.9 1.1-2.4 1.1-1.6 0-2.4-1.1l-0.1 1h-1.3v-12h1.4v4.5q0.9-1.1 2.4-1.1 1.6 0 2.4 1.1 0.9 1.2 0.9 3.2zm-1.4-0.1q0-1.5-0.6-2.3-0.6-0.8-1.6-0.8-1.5 0-2.1 1.3v3.7q0.7 1.3 2.1 1.3 1 0 1.6-0.8 0.6-0.8 0.6-2.4z"/>
			<path id="path5564" class="s2" d="m557.6 337.7h1.4v12h-1.4z"/>
			<path id="path5566" fill-rule="evenodd" class="s2" d="m564.8 349.8q-1.7 0-2.8-1.1-1.1-1.1-1.1-3v-0.3q0-1.2 0.5-2.2 0.5-1 1.3-1.6 0.9-0.5 1.9-0.5 1.7 0 2.6 1.1 0.9 1 0.9 3.1v0.6h-5.7q0 1.2 0.7 2 0.7 0.8 1.8 0.8 0.7 0 1.3-0.4 0.5-0.3 0.9-0.8l0.9 0.7q-1.1 1.6-3.2 1.6zm-0.2-7.5q-0.9 0-1.5 0.6-0.5 0.6-0.7 1.8h4.3v-0.1q-0.1-1.1-0.6-1.7-0.6-0.6-1.5-0.6z"/>
			<path id="path5568" class="s0" d="m427.8 373.6q0.8 0 1.4-0.4 0.6-0.5 0.6-1.2h1.4q0 0.7-0.5 1.4-0.5 0.6-1.2 1-0.8 0.4-1.7 0.4-1.7 0-2.7-1.1-1-1.2-1-3.2v-0.2q0-1.3 0.4-2.2 0.5-1 1.3-1.5 0.9-0.5 2-0.5 1.5 0 2.4 0.8 0.9 0.8 1 2.2h-1.4q0-0.8-0.6-1.3-0.5-0.6-1.4-0.6-1.1 0-1.7 0.8-0.6 0.8-0.6 2.3v0.3q0 1.5 0.6 2.2 0.6 0.8 1.7 0.8z"/>
			<path id="path5570" fill-rule="evenodd" class="s0" d="m438 374.7q-0.1-0.3-0.2-0.9-1 1-2.4 1-1.2 0-2-0.7-0.8-0.7-0.8-1.8 0-1.3 1-2 1-0.8 2.8-0.8h1.4v-0.6q0-0.8-0.4-1.2-0.5-0.5-1.4-0.5-0.7 0-1.3 0.4-0.5 0.4-0.5 1h-1.4q0-0.7 0.4-1.3 0.4-0.6 1.2-0.9 0.8-0.3 1.7-0.3 1.5 0 2.3 0.7 0.8 0.7 0.9 2v3.9q0 1.1 0.3 1.8v0.2zm-2.4-1.1q0.7 0 1.3-0.4 0.6-0.4 0.8-0.9v-1.7h-1.1q-2.7 0-2.7 1.5 0 0.7 0.5 1.1 0.5 0.4 1.2 0.4z"/>
			<path id="path5572" class="s0" d="m442.9 366.2l0.1 1.1q0.9-1.2 2.5-1.2 2.7 0 2.7 3v5.6h-1.5v-5.6q0-0.9-0.4-1.4-0.4-0.4-1.2-0.4-0.8 0-1.3 0.4-0.5 0.3-0.8 0.9v6.1h-1.4v-8.5z"/>
			<path id="path5574" class="s0" d="m451.8 366.2v1.1q1-1.2 2.5-1.2 2.7 0 2.7 3v5.6h-1.4v-5.6q0-0.9-0.4-1.4-0.4-0.4-1.3-0.4-0.7 0-1.2 0.4-0.6 0.3-0.9 0.9v6.1h-1.4v-8.5z"/>
			<path id="path5576" fill-rule="evenodd" class="s0" d="m458.8 370.3q0-1.2 0.5-2.2 0.5-1 1.4-1.5 0.9-0.5 2-0.5 1.7 0 2.8 1.1 1.1 1.2 1.1 3.2v0.1q0 1.3-0.5 2.2-0.5 1-1.4 1.6-0.9 0.5-2 0.5-1.7 0-2.8-1.2-1.1-1.2-1.1-3.2zm1.5 0.2q0 1.4 0.7 2.3 0.6 0.8 1.7 0.8 1.1 0 1.8-0.8 0.6-0.9 0.6-2.5 0-1.3-0.7-2.2-0.6-0.9-1.7-0.9-1.1 0-1.7 0.9-0.7 0.8-0.7 2.4z"/>
			<path id="path5578" class="s0" d="m470.3 364.2v2h1.6v1.1h-1.6v5.3q0 0.5 0.2 0.7 0.2 0.3 0.7 0.3 0.3 0 0.7-0.1v1.2q-0.5 0.1-1.1 0.1-0.9 0-1.4-0.6-0.5-0.6-0.5-1.6v-5.3h-1.6v-1.1h1.6v-2z"/>
			<path id="path5580" class="s0" d="m478.9 366.2l0.1 0.9q0.9-1 2.5-1 1.7 0 2.4 1.3 0.4-0.6 1.1-1 0.6-0.3 1.6-0.3 2.7 0 2.8 2.9v5.7h-1.4v-5.6q0-0.9-0.5-1.4-0.4-0.4-1.4-0.4-0.8 0-1.3 0.5-0.5 0.4-0.6 1.3v5.6h-1.5v-5.6q0-1.8-1.8-1.8-1.4 0-1.9 1.2v6.2h-1.5v-8.5z"/>
			<path id="path5582" fill-rule="evenodd" class="s0" d="m491.2 370.3q0-1.2 0.5-2.2 0.5-1 1.3-1.5 0.9-0.5 2-0.5 1.8 0 2.8 1.1 1.1 1.2 1.1 3.2v0.1q0 1.3-0.5 2.2-0.5 1-1.3 1.6-0.9 0.5-2.1 0.5-1.7 0-2.7-1.2-1.1-1.2-1.1-3.2zm1.5 0.2q-0.1 1.4 0.6 2.3 0.7 0.8 1.7 0.8 1.1 0 1.8-0.8 0.6-0.9 0.6-2.5 0-1.3-0.6-2.2-0.7-0.9-1.8-0.9-1 0-1.7 0.9-0.7 0.8-0.6 2.4z"/>
			<path id="path5584" class="s0" d="m503.4 372.7l2.1-6.5h1.4l-3 8.5h-1.1l-3.1-8.5h1.5z"/>
			<path id="path5586" fill-rule="evenodd" class="s0" d="m511.7 374.8q-1.7 0-2.8-1.1-1-1.1-1-3v-0.3q0-1.3 0.4-2.2 0.5-1 1.4-1.6 0.9-0.5 1.9-0.5 1.6 0 2.5 1 0.9 1.1 0.9 3.1v0.6h-5.7q0 1.3 0.7 2.1 0.7 0.7 1.8 0.7 0.8 0 1.3-0.3 0.5-0.3 1-0.8l0.8 0.7q-1 1.6-3.2 1.6zm-0.1-7.6q-0.9 0-1.5 0.7-0.6 0.6-0.7 1.8h4.2v-0.1q-0.1-1.1-0.6-1.8-0.5-0.6-1.4-0.6z"/>
			<path id="path5588" class="s0" d="m524.8 367.5q-0.4-0.1-0.7-0.1-1.5 0.1-2 1.3v6h-1.4v-8.5h1.4v1q0.7-1.1 2-1.1 0.4 0 0.7 0.1z"/>
			<path id="path5590" fill-rule="evenodd" class="s0" d="m529.4 374.8q-1.7 0-2.8-1.1-1-1.1-1-3v-0.3q0-1.3 0.4-2.2 0.5-1 1.4-1.6 0.8-0.5 1.8-0.5 1.7 0 2.6 1 0.9 1.1 0.9 3.1v0.6h-5.7q0 1.3 0.7 2.1 0.7 0.7 1.8 0.7 0.8 0 1.3-0.3 0.5-0.3 0.9-0.8l0.9 0.7q-1 1.6-3.2 1.6zm-0.2-7.6q-0.8 0-1.4 0.7-0.6 0.6-0.7 1.8h4.2v-0.1q-0.1-1.1-0.6-1.8-0.5-0.6-1.5-0.6z"/>
			<path id="path5592" class="s0" d="m535.1 374.7v-7.4h-1.3v-1.1h1.3v-0.9q0-1.3 0.7-2.1 0.7-0.7 2.1-0.7 0.5 0 1 0.1l-0.1 1.2q-0.4-0.1-0.8-0.1-0.7 0-1.1 0.4-0.4 0.5-0.4 1.2v0.9h1.9v1.1h-1.9v7.4z"/>
			<path id="path5594" fill-rule="evenodd" class="s0" d="m543.3 374.8q-1.8 0-2.8-1.1-1.1-1.1-1.1-3v-0.3q0-1.3 0.5-2.2 0.5-1 1.3-1.6 0.9-0.5 1.9-0.5 1.6 0 2.6 1 0.9 1.1 0.9 3.1v0.6h-5.8q0.1 1.3 0.8 2.1 0.7 0.7 1.8 0.7 0.7 0 1.2-0.3 0.6-0.3 1-0.8l0.9 0.7q-1.1 1.6-3.2 1.6zm-0.2-7.6q-0.9 0-1.5 0.7-0.6 0.6-0.7 1.8h4.2v-0.1q0-1.1-0.6-1.8-0.5-0.6-1.4-0.6z"/>
			<path id="path5596" class="s0" d="m552.3 367.5q-0.3-0.1-0.7-0.1-1.4 0.1-1.9 1.3v6h-1.5v-8.5h1.4l0.1 1q0.7-1.1 2-1.1 0.4 0 0.6 0.1z"/>
			<path id="path5598" fill-rule="evenodd" class="s0" d="m557 374.8q-1.7 0-2.8-1.1-1.1-1.1-1.1-3v-0.3q0-1.3 0.5-2.2 0.5-1 1.3-1.6 0.9-0.5 1.9-0.5 1.6 0 2.6 1 0.9 1.1 0.9 3.1v0.6h-5.7q0 1.3 0.7 2.1 0.7 0.7 1.8 0.7 0.7 0 1.2-0.3 0.6-0.3 1-0.8l0.9 0.7q-1.1 1.6-3.2 1.6zm-0.2-7.6q-0.9 0-1.5 0.7-0.6 0.6-0.7 1.8h4.2v-0.1q0-1.1-0.6-1.8-0.5-0.6-1.4-0.6z"/>
			<path id="path5600" class="s0" d="m563.3 366.2l0.1 1.1q0.9-1.2 2.5-1.2 2.7 0 2.7 3v5.6h-1.4v-5.6q-0.1-0.9-0.5-1.4-0.4-0.4-1.2-0.4-0.7 0-1.3 0.4-0.5 0.3-0.8 0.9v6.1h-1.4v-8.5z"/>
			<path id="path5602" class="s0" d="m572.8 364.2v2h1.5v1.1h-1.5v5.3q0 0.5 0.2 0.7 0.2 0.3 0.7 0.3 0.2 0 0.7-0.1v1.2q-0.6 0.1-1.1 0.1-1 0-1.5-0.6-0.5-0.6-0.5-1.6v-5.3h-1.5v-1.1h1.5v-2z"/>
			<path id="path5604" class="s0" d="m425.8 391.2l0.1 0.9q0.9-1.1 2.5-1.1 1.7 0 2.4 1.4 0.4-0.6 1.1-1 0.6-0.4 1.6-0.4 2.8 0 2.8 3v5.6h-1.4v-5.5q0-0.9-0.5-1.4-0.4-0.4-1.4-0.4-0.8 0-1.3 0.4-0.5 0.5-0.6 1.3v5.6h-1.4v-5.5q0-1.8-1.9-1.8-1.4 0-1.9 1.2v6.1h-1.5v-8.4z"/>
			<path id="path5606" class="s0" d="m443.7 398.8q-0.8 1-2.5 1-1.3 0-2-0.8-0.7-0.8-0.7-2.3v-5.5h1.4v5.4q0 2 1.6 2 1.6 0 2.2-1.3v-6.1h1.4v8.4h-1.4z"/>
			<path id="path5608" class="s0" d="m452.2 397.4q0-0.6-0.4-0.9-0.5-0.3-1.6-0.6-1.1-0.2-1.7-0.5-0.7-0.4-1-0.8-0.3-0.5-0.3-1.1 0-1 0.9-1.7 0.9-0.8 2.3-0.8 1.4 0 2.3 0.8 0.9 0.7 0.9 1.9h-1.5q0-0.6-0.5-1-0.5-0.5-1.2-0.5-0.8 0-1.3 0.4-0.4 0.3-0.4 0.9 0 0.5 0.4 0.7 0.4 0.3 1.5 0.6 1.1 0.2 1.7 0.5 0.7 0.4 1 0.8 0.4 0.5 0.4 1.2 0 1.1-1 1.8-0.9 0.7-2.3 0.7-1 0-1.8-0.3-0.8-0.4-1.2-1.1-0.4-0.6-0.4-1.4h1.4q0 0.8 0.6 1.2 0.5 0.4 1.4 0.4 0.8 0 1.3-0.3 0.5-0.3 0.5-0.9z"/>
			<path id="path5610" class="s0" d="m457.5 389.1v2.1h1.6v1.1h-1.6v5.2q0 0.6 0.2 0.8 0.2 0.3 0.7 0.3 0.3 0 0.7-0.1v1.1q-0.5 0.2-1.1 0.2-0.9 0-1.4-0.6-0.5-0.6-0.5-1.7v-5.2h-1.6v-1.1h1.6v-2.1z"/>
			<path id="path5612" class="s0" d="m466.1 391.2v1q1-1.2 2.6-1.2 2.7 0 2.7 3.1v5.5h-1.5v-5.6q0-0.9-0.4-1.3-0.4-0.4-1.3-0.4-0.7 0-1.2 0.3-0.5 0.4-0.8 1v6h-1.5v-8.4z"/>
			<path id="path5614" fill-rule="evenodd" class="s0" d="m473.2 395.3q0-1.2 0.5-2.2 0.5-1 1.3-1.5 0.9-0.6 2-0.6 1.8 0 2.8 1.2 1.1 1.2 1.1 3.2v0.1q0 1.2-0.5 2.2-0.5 1-1.3 1.6-0.9 0.5-2.1 0.5-1.7 0-2.7-1.2-1.1-1.2-1.1-3.2zm1.5 0.2q-0.1 1.4 0.6 2.3 0.7 0.8 1.7 0.8 1.1 0 1.8-0.8 0.6-0.9 0.6-2.5 0-1.3-0.6-2.2-0.7-0.9-1.8-0.9-1 0-1.7 0.9-0.7 0.8-0.6 2.4z"/>
			<path id="path5616" class="s0" d="m484.7 389.1v2.1h1.5v1.1h-1.5v5.2q0 0.6 0.2 0.8 0.2 0.3 0.7 0.3 0.2 0 0.7-0.1v1.1q-0.6 0.2-1.1 0.2-1 0-1.5-0.6-0.5-0.6-0.5-1.7v-5.2h-1.5v-1.1h1.5v-2.1z"/>
			<path id="path5618" fill-rule="evenodd" class="s0" d="m491.5 395.3q0-1.2 0.5-2.2 0.5-1 1.4-1.5 0.8-0.6 1.9-0.6 1.8 0 2.8 1.2 1.1 1.2 1.1 3.2v0.1q0 1.2-0.5 2.2-0.4 1-1.3 1.6-0.9 0.5-2 0.5-1.8 0-2.8-1.2-1.1-1.2-1.1-3.2zm1.5 0.2q0 1.4 0.6 2.3 0.7 0.8 1.8 0.8 1.1 0 1.7-0.8 0.7-0.9 0.7-2.5 0-1.3-0.7-2.2-0.7-0.9-1.8-0.9-1 0-1.7 0.9-0.6 0.8-0.6 2.4z"/>
			<path id="path5620" class="s0" d="m506.2 398.8q-0.8 1-2.4 1-1.4 0-2.1-0.8-0.7-0.8-0.7-2.3v-5.5h1.4v5.4q0 2 1.6 2 1.6 0 2.2-1.3v-6.1h1.5v8.4h-1.4z"/>
			<path id="path5622" class="s0" d="m511.8 389.1v2.1h1.6v1.1h-1.6v5.2q0 0.6 0.2 0.8 0.2 0.3 0.7 0.3 0.3 0 0.7-0.1v1.1q-0.6 0.2-1.1 0.2-1 0-1.5-0.6-0.5-0.6-0.5-1.7v-5.2h-1.5v-1.1h1.5v-2.1z"/>
			<path id="path5624" class="s0" d="m515.2 387.6h1.4v12h-1.4z"/>
			<path id="path5626" class="s0" d="m520.5 399.6h-1.4v-8.4h1.4zm-1.6-10.7q0-0.4 0.2-0.6 0.3-0.3 0.7-0.3 0.4 0 0.6 0.3 0.2 0.2 0.2 0.6 0 0.3-0.2 0.6-0.2 0.2-0.6 0.2-0.4 0-0.7-0.2-0.2-0.3-0.2-0.6z"/>
			<path id="path5628" class="s0" d="m525.6 397.7l2.1-6.5h1.5l-3.1 8.4h-1.1l-3-8.4h1.4z"/>
			<path id="path5630" fill-rule="evenodd" class="s0" d="m534 399.8q-1.8 0-2.8-1.1-1.1-1.2-1.1-3.1v-0.2q0-1.3 0.5-2.3 0.4-1 1.3-1.5 0.9-0.6 1.9-0.6 1.6 0 2.5 1.1 1 1.1 1 3.1v0.6h-5.8q0.1 1.3 0.8 2 0.7 0.8 1.7 0.8 0.8 0 1.3-0.3 0.6-0.3 1-0.8l0.9 0.7q-1.1 1.6-3.2 1.6zm-0.2-7.6q-0.9 0-1.5 0.7-0.6 0.6-0.7 1.7h4.2v-0.1q0-1.1-0.6-1.7-0.5-0.6-1.4-0.6z"/>
			<path id="path5632" class="s0" d="m544.5 399.6h-1.5v-8.4h1.5zm-1.6-10.7q0-0.4 0.2-0.6 0.2-0.3 0.7-0.3 0.4 0 0.6 0.3 0.2 0.2 0.2 0.6 0 0.3-0.2 0.6-0.2 0.2-0.6 0.2-0.5 0-0.7-0.2-0.2-0.3-0.2-0.6z"/>
			<path id="path5634" class="s0" d="m548.7 389.1v2.1h1.6v1.1h-1.6v5.2q0 0.6 0.2 0.8 0.2 0.3 0.8 0.3 0.2 0 0.6-0.1v1.1q-0.5 0.2-1.1 0.2-0.9 0-1.4-0.6-0.5-0.6-0.5-1.7v-5.2h-1.6v-1.1h1.6v-2.1z"/>
			<path id="path5636" class="s0" d="m556.9 397.4q0-0.6-0.4-0.9-0.5-0.3-1.6-0.6-1.1-0.2-1.7-0.5-0.7-0.4-1-0.8-0.3-0.5-0.3-1.1 0-1 0.9-1.7 0.9-0.8 2.3-0.8 1.4 0 2.3 0.8 0.9 0.7 0.9 1.9h-1.5q0-0.6-0.5-1-0.5-0.5-1.2-0.5-0.8 0-1.3 0.4-0.4 0.3-0.4 0.9 0 0.5 0.4 0.7 0.4 0.3 1.5 0.6 1.1 0.2 1.7 0.5 0.7 0.4 1 0.8 0.3 0.5 0.3 1.2 0 1.1-0.9 1.8-0.9 0.7-2.3 0.7-1 0-1.8-0.3-0.8-0.4-1.2-1.1-0.5-0.6-0.5-1.4h1.5q0 0.8 0.6 1.2 0.5 0.4 1.4 0.4 0.8 0 1.3-0.3 0.5-0.3 0.5-0.9z"/>
			<path id="path5638" class="s0" d="m568.3 392.5q-0.3-0.1-0.7-0.1-1.4 0-1.9 1.2v6h-1.5v-8.4h1.4v1q0.7-1.2 2.1-1.2 0.4 0 0.6 0.1z"/>
			<path id="path5640" fill-rule="evenodd" class="s0" d="m573 399.8q-1.8 0-2.8-1.1-1.1-1.2-1.1-3.1v-0.2q0-1.3 0.5-2.3 0.4-1 1.3-1.5 0.9-0.6 1.9-0.6 1.6 0 2.5 1.1 1 1.1 1 3.1v0.6h-5.8q0.1 1.3 0.8 2 0.7 0.8 1.7 0.8 0.8 0 1.3-0.3 0.6-0.3 1-0.8l0.9 0.7q-1.1 1.6-3.2 1.6zm-0.2-7.6q-0.9 0-1.5 0.7-0.6 0.6-0.7 1.7h4.2v-0.1q0-1.1-0.6-1.7-0.5-0.6-1.4-0.6z"/>
			<path id="path5642" class="s0" d="m578.6 399.6v-7.3h-1.3v-1.1h1.3v-0.9q0-1.3 0.7-2.1 0.8-0.7 2.1-0.7 0.5 0 1 0.1l-0.1 1.2q-0.3-0.1-0.7-0.1-0.8 0-1.1 0.4-0.4 0.4-0.4 1.2v0.9h1.8v1.1h-1.8v7.3z"/>
			<path id="path5644" fill-rule="evenodd" class="s0" d="m586.8 399.8q-1.7 0-2.8-1.1-1.1-1.2-1.1-3.1v-0.2q0-1.3 0.5-2.3 0.5-1 1.3-1.5 0.9-0.6 1.9-0.6 1.7 0 2.6 1.1 0.9 1.1 0.9 3.1v0.6h-5.7q0 1.3 0.7 2 0.7 0.8 1.8 0.8 0.7 0 1.3-0.3 0.5-0.3 0.9-0.8l0.9 0.7q-1.1 1.6-3.2 1.6zm-0.2-7.6q-0.9 0-1.5 0.7-0.5 0.6-0.7 1.7h4.3v-0.1q-0.1-1.1-0.6-1.7-0.6-0.6-1.5-0.6z"/>
			<path id="path5646" class="s0" d="m595.9 392.5q-0.4-0.1-0.7-0.1-1.5 0-2 1.2v6h-1.4v-8.4h1.4v1q0.7-1.2 2-1.2 0.4 0 0.7 0.1z"/>
			<path id="path5648" fill-rule="evenodd" class="s0" d="m600.5 399.8q-1.7 0-2.8-1.1-1-1.2-1-3.1v-0.2q-0.1-1.3 0.4-2.3 0.5-1 1.4-1.5 0.8-0.6 1.8-0.6 1.7 0 2.6 1.1 0.9 1.1 0.9 3.1v0.6h-5.7q0 1.3 0.7 2 0.7 0.8 1.8 0.8 0.8 0 1.3-0.3 0.5-0.3 0.9-0.8l0.9 0.7q-1 1.6-3.2 1.6zm-0.2-7.6q-0.8 0-1.4 0.7-0.6 0.6-0.7 1.7h4.2v-0.1q-0.1-1.1-0.6-1.7-0.5-0.6-1.5-0.6z"/>
			<path id="path5650" class="s0" d="m606.8 391.2l0.1 1q1-1.2 2.5-1.2 2.7 0 2.7 3.1v5.5h-1.4v-5.6q0-0.9-0.4-1.3-0.4-0.4-1.3-0.4-0.7 0-1.3 0.3-0.5 0.4-0.8 1v6h-1.4v-8.4z"/>
			<path id="path5652" class="s0" d="m616.3 389.1v2.1h1.6v1.1h-1.6v5.2q0 0.6 0.2 0.8 0.2 0.3 0.7 0.3 0.3 0 0.7-0.1v1.1q-0.6 0.2-1.1 0.2-1 0-1.5-0.6-0.5-0.6-0.5-1.7v-5.2h-1.5v-1.1h1.5v-2.1z"/>
			<path id="path5654" fill-rule="evenodd" class="s0" d="m23.3 287.5q0-1.5 0.8-2.9 0.5-0.8 1.6-1.9-0.1-0.3-0.3-0.5-1.3-2.3-1.3-4.5 0-1.5 0.6-2.6 0.6-1 1.5-1.5 1-0.6 2.4-0.6 1.4 0 2.4 0.6 0.9 0.5 1.4 1.5 0.7 1.1 0.7 2.6 0 1.4-0.8 2.7-0.6 1.2-2.5 2.6 0.7 1 1.7 2.1v-2.1h3.2v4.2q0 1-0.2 1.8 1.1 1.9 1.1 3.8h-3.2q0-0.3-0.1-0.7-0.1 0.1-0.2 0.2-1.3 0.7-3.1 0.7-1.8 0-3.1-0.7-1.2-0.7-1.8-1.8-0.8-1.4-0.8-3zm4-9.8q0 1.3 0.9 3 0.9-0.8 1.3-1.4 0.4-0.8 0.4-1.7 0-0.9-0.5-1.4-0.3-0.3-0.8-0.3-0.5 0-0.8 0.3-0.5 0.5-0.5 1.5zm-0.8 9.8q0 0.9 0.4 1.5 0.3 0.6 0.8 0.9 0.5 0.3 1.3 0.3 0.7 0 1.2-0.3 0.5-0.3 0.9-0.9-0.7-1-2.1-2.5-0.8-0.8-1.5-1.5-0.3 0.4-0.5 0.7-0.5 0.9-0.5 1.8z"/>
			<path id="path5656" class="s0" d="m36.6 278.7h2.9v0.9q0.4-0.6 0.8-0.9 0.4-0.2 0.9-0.2 0.5 0 0.9 0.2 0.6 0.3 0.9 1 0.2 0.3 0.4 0.7 0.1-0.4 0.3-0.8 0.4-0.6 0.9-0.9 0.4-0.2 0.9-0.2 0.5 0 0.9 0.2 0.5 0.3 0.9 1 0.7 1.2 0.7 3.4v9.7h-2.8v-9.7q0-1.5-0.5-1.9-0.1-0.2-0.2-0.2-0.2 0-0.3 0.2-0.5 0.4-0.4 1.9v9.7h-2.9v-9.7q0-1.5-0.4-1.9-0.2-0.2-0.3-0.2-0.1 0-0.3 0.2-0.4 0.4-0.4 1.9v9.7h-2.9z"/>
			<path id="path5658" class="s0" d="m50.2 287v-8.3h3.2v8.3q0 1.3 0.5 2.1 0.3 0.5 0.8 0.8 0.4 0.3 1 0.3 0.5 0 0.9-0.3 0.5-0.3 0.9-0.8 0.4-0.8 0.4-2.1v-8.3h3.2v14.1h-3.2v-1.7q-0.6 1-1.5 1.5-0.8 0.4-1.9 0.4-1 0-1.9-0.4-0.9-0.6-1.5-1.6-0.9-1.6-0.9-4z"/>
			<path id="path5660" class="s0" d="m63.6 278.7h2.5v-5.5h3.2v5.5h3.7v2.9h-3.7v5.5q0 1.4 0.4 2.3 0.3 0.4 0.6 0.6 0.3 0.2 0.7 0.2 0.4 0 0.6-0.2 0.4-0.2 0.7-0.7 0.3-0.6 0.4-1.5l3 0.9q-0.1 1.1-0.7 2-0.6 1.2-1.6 1.8-1.1 0.5-2.4 0.5-1.4 0-2.4-0.5-1-0.6-1.7-1.8-0.8-1.4-0.8-3.6v-5.5h-2.5z"/>
			<path id="path5662" fill-rule="evenodd" class="s3" d="m26.9 324.9q-1.7 0-2.8-1.2-1-1.1-1-3v-0.3q0-1.2 0.4-2.2 0.5-1 1.4-1.5 0.8-0.6 1.8-0.6 1.7 0 2.6 1.1 0.9 1.1 0.9 3.1v0.6h-5.7q0 1.2 0.7 2 0.7 0.8 1.8 0.8 0.8 0 1.3-0.3 0.5-0.3 1-0.9l0.8 0.7q-1 1.7-3.2 1.7zm-0.2-7.6q-0.8 0-1.4 0.6-0.6 0.7-0.7 1.8h4.2v-0.1q-0.1-1.1-0.6-1.7-0.5-0.6-1.5-0.6z"/>
			<path id="path5664" class="s3" d="m34.7 319.3l1.9-3.1h1.7l-2.8 4.2 2.9 4.3h-1.7l-1.9-3.2-2 3.2h-1.7l2.9-4.3-2.8-4.2h1.7z"/>
			<path id="path5666" class="s3" d="m43.1 323.7q0.7 0 1.3-0.5 0.6-0.5 0.7-1.2h1.3q0 0.8-0.5 1.4-0.4 0.7-1.2 1.1-0.8 0.4-1.6 0.4-1.8 0-2.8-1.2-1-1.1-1-3.1v-0.3q0-1.2 0.4-2.2 0.5-0.9 1.3-1.5 0.9-0.5 2.1-0.5 1.4 0 2.3 0.8 1 0.9 1 2.3h-1.3q-0.1-0.9-0.7-1.4-0.5-0.5-1.3-0.5-1.1 0-1.7 0.8-0.7 0.8-0.7 2.3v0.2q0 1.5 0.7 2.3 0.6 0.8 1.7 0.8z"/>
			<path id="path5668" class="s3" d="m48.2 312.7h1.4v12h-1.4z"/>
			<path id="path5670" class="s3" d="m57.1 323.9q-0.8 1-2.4 1-1.4 0-2.1-0.8-0.7-0.8-0.7-2.4v-5.5h1.4v5.5q0 1.9 1.6 1.9 1.7 0 2.2-1.2v-6.2h1.5v8.5h-1.4z"/>
			<path id="path5672" class="s3" d="m65.7 322.4q0-0.5-0.5-0.8-0.4-0.4-1.5-0.6-1.1-0.2-1.8-0.6-0.6-0.3-0.9-0.7-0.3-0.5-0.3-1.1 0-1.1 0.9-1.8 0.8-0.7 2.2-0.7 1.4 0 2.3 0.7 0.9 0.8 0.9 1.9h-1.4q0-0.6-0.5-1-0.5-0.4-1.3-0.4-0.8 0-1.2 0.3-0.5 0.4-0.5 0.9 0 0.5 0.4 0.8 0.5 0.3 1.5 0.5 1.1 0.3 1.8 0.6 0.7 0.3 1 0.8 0.3 0.5 0.3 1.1 0 1.2-0.9 1.9-0.9 0.7-2.3 0.7-1.1 0-1.9-0.4-0.7-0.4-1.2-1-0.4-0.7-0.4-1.4h1.4q0.1 0.7 0.6 1.2 0.6 0.4 1.5 0.4 0.8 0 1.3-0.4 0.5-0.3 0.5-0.9z"/>
			<path id="path5674" class="s3" d="m70.6 324.7h-1.5v-8.5h1.5zm-1.6-10.6q0-0.4 0.2-0.7 0.2-0.2 0.7-0.2 0.4 0 0.6 0.2 0.2 0.3 0.2 0.7 0 0.3-0.2 0.5-0.2 0.3-0.6 0.3-0.5 0-0.7-0.3-0.2-0.2-0.2-0.5z"/>
			<path id="path5676" class="s3" d="m75.6 322.7l2.1-6.5h1.5l-3 8.5h-1.1l-3.1-8.5h1.5z"/>
			<path id="path5678" fill-rule="evenodd" class="s3" d="m84 324.9q-1.7 0-2.8-1.2-1-1.1-1-3v-0.3q0-1.2 0.4-2.2 0.5-1 1.4-1.5 0.8-0.6 1.8-0.6 1.7 0 2.6 1.1 0.9 1.1 0.9 3.1v0.6h-5.7q0 1.2 0.7 2 0.7 0.8 1.8 0.8 0.8 0 1.3-0.3 0.5-0.3 0.9-0.9l0.9 0.7q-1 1.7-3.2 1.7zm-0.2-7.6q-0.8 0-1.4 0.6-0.6 0.7-0.7 1.8h4.2v-0.1q-0.1-1.1-0.6-1.7-0.5-0.6-1.5-0.6z"/>
			<path id="path5680" class="s0" d="m96.3 323.7q0.8 0 1.4-0.5 0.6-0.5 0.6-1.2h1.4q0 0.8-0.5 1.4-0.5 0.7-1.2 1.1-0.8 0.4-1.7 0.4-1.7 0-2.7-1.2-1-1.1-1-3.1v-0.3q0-1.2 0.4-2.2 0.5-0.9 1.3-1.5 0.9-0.5 2-0.5 1.5 0 2.4 0.8 1 0.9 1 2.3h-1.4q0-0.9-0.6-1.4-0.5-0.5-1.4-0.5-1.1 0-1.7 0.8-0.6 0.8-0.6 2.3v0.2q0 1.5 0.6 2.3 0.6 0.8 1.7 0.8z"/>
			<path id="path5682" fill-rule="evenodd" class="s0" d="m100.9 320.4q0-1.2 0.5-2.2 0.5-1 1.4-1.6 0.9-0.5 2-0.5 1.7 0 2.8 1.2 1.1 1.2 1.1 3.2v0.1q0 1.2-0.5 2.2-0.5 1-1.4 1.5-0.9 0.6-2 0.6-1.7 0-2.8-1.2-1.1-1.2-1.1-3.2zm1.5 0.2q0 1.4 0.7 2.2 0.6 0.9 1.7 0.9 1.1 0 1.8-0.9 0.6-0.8 0.6-2.4 0-1.4-0.7-2.2-0.6-0.9-1.7-0.9-1.1 0-1.7 0.8-0.7 0.9-0.7 2.5z"/>
			<path id="path5684" class="s0" d="m111.8 316.2l0.1 1.1q0.9-1.2 2.5-1.2 2.7 0 2.7 3v5.6h-1.4v-5.6q0-0.9-0.5-1.3-0.4-0.5-1.2-0.5-0.7 0-1.3 0.4-0.5 0.4-0.8 1v6h-1.4v-8.5z"/>
			<path id="path5686" class="s0" d="m121.3 314.2v2h1.5v1.2h-1.5v5.2q0 0.5 0.2 0.8 0.2 0.2 0.7 0.2 0.2 0 0.7-0.1v1.2q-0.6 0.2-1.1 0.2-1 0-1.5-0.6-0.5-0.6-0.5-1.7v-5.2h-1.5v-1.2h1.5v-2z"/>
			<path id="path5688" class="s0" d="m128.6 317.5q-0.3 0-0.7 0-1.4 0-1.9 1.2v6h-1.5v-8.5h1.4v1q0.8-1.1 2.1-1.1 0.4 0 0.6 0.1z"/>
			<path id="path5690" fill-rule="evenodd" class="s0" d="m129.4 320.4q0-1.2 0.5-2.2 0.5-1 1.3-1.6 0.9-0.5 2-0.5 1.7 0 2.8 1.2 1.1 1.2 1.1 3.2v0.1q0 1.2-0.5 2.2-0.5 1-1.3 1.5-0.9 0.6-2.1 0.6-1.7 0-2.8-1.2-1-1.2-1-3.2zm1.4 0.2q0 1.4 0.7 2.2 0.7 0.9 1.7 0.9 1.1 0 1.8-0.9 0.6-0.8 0.6-2.4 0-1.4-0.6-2.2-0.7-0.9-1.8-0.9-1 0-1.7 0.8-0.7 0.9-0.7 2.5z"/>
			<path id="path5692" class="s0" d="m139 312.7h1.5v12h-1.5z"/>
			<path id="path5694" class="s0" d="m146.7 320.1q0-1.8 0.4-3.4 0.5-1.6 1.5-3 0.9-1.3 1.9-1.8l0.3 0.9q-1.1 0.9-1.9 2.7-0.7 1.8-0.8 4v0.7q0 3 1.1 5.2 0.7 1.3 1.6 2.1l-0.3 0.9q-1-0.6-2-2-1.8-2.6-1.8-6.3z"/>
			<path id="path5696" class="s0" d="m156.3 317.5q-0.3 0-0.7 0-1.4 0-1.9 1.2v6h-1.5v-8.5h1.4v1q0.7-1.1 2.1-1.1 0.4 0 0.6 0.1z"/>
			<path id="path5698" fill-rule="evenodd" class="s0" d="m161 324.9q-1.8 0-2.8-1.2-1.1-1.1-1.1-3v-0.3q0-1.2 0.5-2.2 0.4-1 1.3-1.5 0.9-0.6 1.9-0.6 1.6 0 2.5 1.1 1 1.1 1 3.1v0.6h-5.8q0.1 1.2 0.8 2 0.7 0.8 1.8 0.8 0.7 0 1.2-0.3 0.6-0.3 1-0.9l0.9 0.7q-1.1 1.7-3.2 1.7zm-0.2-7.6q-0.9 0-1.5 0.6-0.6 0.7-0.7 1.8h4.2v-0.1q0-1.1-0.6-1.7-0.5-0.6-1.4-0.6z"/>
			<path id="path5700" class="s0" d="m166.6 324.7v-7.3h-1.3v-1.2h1.3v-0.8q0-1.4 0.8-2.1 0.7-0.8 2-0.8 0.5 0 1 0.2l-0.1 1.1q-0.3 0-0.7 0-0.8 0-1.1 0.4-0.4 0.4-0.4 1.1v0.9h1.8v1.2h-1.8v7.3z"/>
			<path id="path5702" fill-rule="evenodd" class="s0" d="m174.8 324.9q-1.7 0-2.8-1.2-1.1-1.1-1.1-3v-0.3q0-1.2 0.5-2.2 0.5-1 1.3-1.5 0.9-0.6 1.9-0.6 1.7 0 2.6 1.1 0.9 1.1 0.9 3.1v0.6h-5.7q0 1.2 0.7 2 0.7 0.8 1.8 0.8 0.7 0 1.3-0.3 0.5-0.3 0.9-0.9l0.9 0.7q-1.1 1.7-3.2 1.7zm-0.2-7.6q-0.9 0-1.5 0.6-0.5 0.7-0.7 1.8h4.3v-0.1q-0.1-1.1-0.6-1.7-0.6-0.6-1.5-0.6z"/>
			<path id="path5704" class="s0" d="m183.9 317.5q-0.4 0-0.7 0-1.5 0-2 1.2v6h-1.4v-8.5h1.4v1q0.7-1.1 2-1.1 0.4 0 0.7 0.1z"/>
			<path id="path5706" fill-rule="evenodd" class="s0" d="m188.5 324.9q-1.7 0-2.8-1.2-1-1.1-1-3v-0.3q0-1.2 0.4-2.2 0.5-1 1.4-1.5 0.8-0.6 1.8-0.6 1.7 0 2.6 1.1 0.9 1.1 0.9 3.1v0.6h-5.7q0 1.2 0.7 2 0.7 0.8 1.8 0.8 0.8 0 1.3-0.3 0.5-0.3 0.9-0.9l0.9 0.7q-1 1.7-3.2 1.7zm-0.2-7.6q-0.8 0-1.4 0.6-0.6 0.7-0.7 1.8h4.2v-0.1q-0.1-1.1-0.6-1.7-0.5-0.6-1.5-0.6z"/>
			<path id="path5708" class="s0" d="m194.9 316.2v1.1q1-1.2 2.5-1.2 2.7 0 2.7 3v5.6h-1.4v-5.6q0-0.9-0.4-1.3-0.4-0.5-1.3-0.5-0.7 0-1.3 0.4-0.5 0.4-0.8 1v6h-1.4v-8.5z"/>
			<path id="path5710" class="s0" d="m205.7 323.7q0.8 0 1.4-0.5 0.6-0.5 0.6-1.2h1.4q-0.1 0.8-0.5 1.4-0.5 0.7-1.3 1.1-0.7 0.4-1.6 0.4-1.7 0-2.7-1.2-1-1.1-1-3.1v-0.3q0-1.2 0.4-2.2 0.5-0.9 1.3-1.5 0.8-0.5 2-0.5 1.4 0 2.4 0.8 0.9 0.9 1 2.3h-1.4q0-0.9-0.6-1.4-0.6-0.5-1.4-0.5-1.1 0-1.7 0.8-0.6 0.8-0.6 2.3v0.2q0 1.5 0.6 2.3 0.6 0.8 1.7 0.8z"/>
			<path id="path5712" fill-rule="evenodd" class="s0" d="m214.2 324.9q-1.7 0-2.8-1.2-1.1-1.1-1.1-3v-0.3q0-1.2 0.5-2.2 0.5-1 1.4-1.5 0.8-0.6 1.8-0.6 1.7 0 2.6 1.1 0.9 1.1 0.9 3.1v0.6h-5.7q0 1.2 0.7 2 0.7 0.8 1.8 0.8 0.8 0 1.3-0.3 0.5-0.3 0.9-0.9l0.9 0.7q-1.1 1.7-3.2 1.7zm-0.2-7.6q-0.8 0-1.4 0.6-0.6 0.7-0.8 1.8h4.3v-0.1q-0.1-1.1-0.6-1.7-0.6-0.6-1.5-0.6z"/>
			<path id="path5714" class="s0" d="m224.7 324.7h-1.4v-8.5h1.4zm-1.5-10.6q0-0.4 0.2-0.7 0.2-0.2 0.6-0.2 0.4 0 0.6 0.2 0.3 0.3 0.3 0.7 0 0.3-0.3 0.5-0.2 0.3-0.6 0.3-0.4 0-0.6-0.3-0.2-0.2-0.2-0.5z"/>
			<path id="path5716" class="s0" d="m229 314.2v2h1.6v1.2h-1.6v5.2q0 0.5 0.2 0.8 0.2 0.2 0.7 0.2 0.3 0 0.7-0.1v1.2q-0.6 0.2-1.1 0.2-1 0-1.5-0.6-0.5-0.6-0.5-1.7v-5.2h-1.5v-1.2h1.5v-2z"/>
			<path id="path5718" class="s0" d="m237.2 322.4q0-0.5-0.5-0.8-0.4-0.4-1.5-0.6-1.1-0.2-1.8-0.6-0.6-0.3-0.9-0.7-0.3-0.5-0.3-1.1 0-1.1 0.9-1.8 0.8-0.7 2.2-0.7 1.4 0 2.3 0.7 0.9 0.8 0.9 1.9h-1.4q0-0.6-0.5-1-0.5-0.4-1.3-0.4-0.8 0-1.2 0.3-0.5 0.4-0.5 0.9 0 0.5 0.4 0.8 0.5 0.3 1.5 0.5 1.1 0.3 1.8 0.6 0.7 0.3 1 0.8 0.3 0.5 0.3 1.1 0 1.2-0.9 1.9-0.9 0.7-2.3 0.7-1.1 0-1.9-0.4-0.7-0.4-1.2-1-0.4-0.7-0.4-1.4h1.4q0.1 0.7 0.6 1.2 0.6 0.4 1.5 0.4 0.8 0 1.3-0.4 0.5-0.3 0.5-0.9z"/>
			<path id="path5720" fill-rule="evenodd" class="s0" d="m244 324.9q-1.7 0-2.8-1.2-1.1-1.1-1.1-3v-0.3q0-1.2 0.5-2.2 0.5-1 1.3-1.5 0.9-0.6 1.9-0.6 1.7 0 2.6 1.1 0.9 1.1 0.9 3.1v0.6h-5.7q0 1.2 0.7 2 0.7 0.8 1.8 0.8 0.7 0 1.3-0.3 0.5-0.3 0.9-0.9l0.9 0.7q-1.1 1.7-3.2 1.7zm-0.2-7.6q-0.9 0-1.5 0.6-0.6 0.7-0.7 1.8h4.3v-0.1q-0.1-1.1-0.6-1.7-0.6-0.6-1.5-0.6z"/>
			<path id="path5722" class="s0" d="m249.1 312.7h1.4v12h-1.4z"/>
			<path id="path5724" class="s0" d="m253.6 324.7v-7.3h-1.4v-1.2h1.4v-0.8q0-1.4 0.7-2.1 0.7-0.8 2-0.8 0.5 0 1 0.2l-0.1 1.1q-0.3 0-0.7 0-0.7 0-1.1 0.4-0.4 0.4-0.4 1.1v0.9h1.8v1.2h-1.8v7.3z"/>
			<path id="path5726" class="s0" d="m263.9 324.7h-1.4v-8.5h1.4zm-1.5-10.6q0-0.4 0.2-0.7 0.2-0.2 0.6-0.2 0.4 0 0.7 0.2 0.2 0.3 0.2 0.7 0 0.3-0.2 0.5-0.3 0.3-0.7 0.3-0.4 0-0.6-0.3-0.2-0.2-0.2-0.5z"/>
			<path id="path5728" class="s0" d="m271.2 322.4q0-0.5-0.5-0.8-0.4-0.4-1.5-0.6-1.1-0.2-1.8-0.6-0.6-0.3-0.9-0.7-0.3-0.5-0.3-1.1 0-1.1 0.9-1.8 0.8-0.7 2.2-0.7 1.4 0 2.3 0.7 0.9 0.8 0.9 1.9h-1.4q0-0.6-0.5-1-0.5-0.4-1.3-0.4-0.8 0-1.2 0.3-0.5 0.4-0.5 0.9 0 0.5 0.4 0.8 0.5 0.3 1.5 0.5 1.1 0.3 1.8 0.6 0.7 0.3 1 0.8 0.3 0.5 0.3 1.1 0 1.2-0.9 1.9-0.9 0.7-2.3 0.7-1.1 0-1.9-0.4-0.7-0.4-1.2-1-0.4-0.7-0.4-1.4h1.4q0.1 0.7 0.6 1.2 0.6 0.4 1.5 0.4 0.8 0 1.3-0.4 0.5-0.3 0.5-0.9z"/>
			<path id="path5730" class="s0" d="m279.8 316.2l0.1 1q0.9-1.1 2.5-1.1 1.7 0 2.4 1.3 0.4-0.6 1.1-0.9 0.6-0.4 1.6-0.4 2.8 0 2.8 2.9v5.7h-1.4v-5.6q0-0.9-0.5-1.3-0.4-0.5-1.3-0.5-0.9 0-1.4 0.5-0.5 0.5-0.6 1.3v5.6h-1.4v-5.5q0-1.9-1.9-1.9-1.4 0-1.9 1.2v6.2h-1.5v-8.5z"/>
			<path id="path5732" fill-rule="evenodd" class="s0" d="m292.1 320.4q0-1.2 0.5-2.2 0.5-1 1.4-1.6 0.8-0.5 1.9-0.5 1.8 0 2.8 1.2 1.1 1.2 1.1 3.2v0.1q0 1.2-0.5 2.2-0.4 1-1.3 1.5-0.9 0.6-2 0.6-1.8 0-2.8-1.2-1.1-1.2-1.1-3.2zm1.5 0.2q0 1.4 0.6 2.2 0.7 0.9 1.8 0.9 1.1 0 1.7-0.9 0.7-0.8 0.7-2.4 0-1.4-0.7-2.2-0.7-0.9-1.8-0.9-1 0-1.7 0.8-0.6 0.9-0.6 2.5z"/>
			<path id="path5734" class="s0" d="m304.3 322.7l2.1-6.5h1.5l-3.1 8.5h-1.1l-3.1-8.5h1.5z"/>
			<path id="path5736" fill-rule="evenodd" class="s0" d="m314.3 324.7q-0.1-0.3-0.2-0.9-1 1.1-2.4 1.1-1.2 0-2-0.7-0.8-0.7-0.8-1.9 0-1.3 1-2 1-0.7 2.8-0.7h1.4v-0.7q0-0.7-0.5-1.2-0.4-0.4-1.3-0.4-0.8 0-1.3 0.4-0.5 0.3-0.5 0.9h-1.5q0-0.6 0.5-1.2 0.4-0.6 1.2-1 0.8-0.3 1.7-0.3 1.5 0 2.3 0.7 0.8 0.8 0.9 2v3.9q0 1.2 0.3 1.9v0.1zm-2.4-1.1q0.6 0 1.3-0.4 0.6-0.3 0.8-0.9v-1.7h-1.1q-2.7 0-2.7 1.6 0 0.6 0.5 1 0.4 0.4 1.2 0.4z"/>
			<path id="path5738" fill-rule="evenodd" class="s0" d="m325 320.6q0 1.9-0.9 3.1-0.9 1.2-2.4 1.2-1.6 0-2.5-1.2v1h-1.4v-12h1.5v4.5q0.9-1.1 2.4-1.1 1.5 0 2.4 1.2 0.9 1.1 0.9 3.1zm-1.4-0.1q-0.1-1.5-0.6-2.3-0.6-0.8-1.7-0.8-1.4 0-2 1.3v3.7q0.6 1.3 2 1.3 1.1 0 1.7-0.8 0.5-0.8 0.6-2.4z"/>
			<path id="path5740" class="s0" d="m326.9 312.7h1.5v12h-1.5z"/>
			<path id="path5742" fill-rule="evenodd" class="s0" d="m334.2 324.9q-1.7 0-2.8-1.2-1.1-1.1-1.1-3v-0.3q0-1.2 0.5-2.2 0.5-1 1.3-1.5 0.9-0.6 1.9-0.6 1.6 0 2.6 1.1 0.9 1.1 0.9 3.1v0.6h-5.8q0.1 1.2 0.8 2 0.7 0.8 1.8 0.8 0.7 0 1.2-0.3 0.6-0.3 1-0.9l0.9 0.7q-1.1 1.7-3.2 1.7zm-0.2-7.6q-0.9 0-1.5 0.6-0.6 0.7-0.7 1.8h4.2v-0.1q0-1.1-0.6-1.7-0.5-0.6-1.4-0.6z"/>
			<path id="path5744" class="s0" d="m342.5 320.2q0 1.7-0.5 3.3-0.4 1.6-1.4 2.9-0.9 1.4-1.9 2l-0.4-0.9q1.2-0.9 2-2.9 0.7-1.9 0.7-4.3v-0.2q0-1.7-0.3-3.1-0.4-1.4-1-2.5-0.6-1.1-1.4-1.8l0.4-0.8q1 0.5 1.9 1.9 1 1.3 1.4 2.9 0.5 1.6 0.5 3.5z"/>
			<path id="path5746" class="s4" d="m24.8 341.2v1q0.9-1.1 2.5-1.1 1.8 0 2.4 1.3 0.5-0.6 1.1-0.9 0.7-0.4 1.6-0.4 2.8 0 2.9 2.9v5.7h-1.5v-5.6q0-0.9-0.4-1.3-0.4-0.5-1.4-0.5-0.8 0-1.3 0.5-0.6 0.5-0.6 1.3v5.6h-1.5v-5.5q0-1.9-1.8-1.9-1.4 0-1.9 1.2v6.2h-1.5v-8.5z"/>
			<path id="path5748" class="s4" d="m42.7 348.9q-0.9 1-2.5 1-1.4 0-2.1-0.8-0.7-0.8-0.7-2.4v-5.5h1.5v5.5q0 1.9 1.5 1.9 1.7 0 2.2-1.2v-6.2h1.5v8.5h-1.4z"/>
			<path id="path5750" class="s4" d="m48.2 339.2v2h1.6v1.2h-1.6v5.2q0 0.5 0.2 0.8 0.3 0.2 0.8 0.2 0.2 0 0.6-0.1v1.2q-0.5 0.2-1.1 0.2-0.9 0-1.4-0.6-0.5-0.6-0.5-1.7v-5.2h-1.6v-1.2h1.6v-2z"/>
			<path id="path5752" fill-rule="evenodd" class="s4" d="m56.7 349.7q-0.1-0.3-0.2-0.9-1 1.1-2.4 1.1-1.2 0-2.1-0.7-0.8-0.7-0.7-1.9 0-1.3 1-2 0.9-0.7 2.8-0.7h1.4v-0.7q0-0.7-0.5-1.2-0.4-0.4-1.3-0.4-0.8 0-1.3 0.4-0.5 0.3-0.5 0.9h-1.5q0-0.6 0.5-1.2 0.4-0.6 1.2-1 0.7-0.3 1.7-0.3 1.4 0 2.3 0.7 0.8 0.8 0.8 2v3.9q0 1.2 0.3 1.9v0.1zm-2.4-1.1q0.7 0 1.3-0.4 0.6-0.3 0.9-0.9v-1.7h-1.1q-2.7 0-2.7 1.6 0 0.6 0.5 1 0.4 0.4 1.1 0.4z"/>
			<path id="path5754" fill-rule="evenodd" class="s4" d="m67.4 345.6q0 1.9-0.9 3.1-0.9 1.2-2.4 1.2-1.6 0-2.5-1.2l-0.1 1h-1.3v-12h1.5v4.5q0.8-1.1 2.4-1.1 1.5 0 2.4 1.2 0.9 1.1 0.9 3.1zm-1.5-0.1q0-1.5-0.6-2.3-0.5-0.8-1.6-0.8-1.4 0-2 1.3v3.7q0.6 1.3 2 1.3 1.1 0 1.6-0.8 0.6-0.8 0.6-2.4z"/>
			<path id="path5756" class="s4" d="m69.3 337.7h1.4v12h-1.4z"/>
			<path id="path5758" fill-rule="evenodd" class="s4" d="m76.6 349.9q-1.8 0-2.9-1.2-1-1.1-1-3v-0.3q0-1.2 0.5-2.2 0.4-1 1.3-1.5 0.9-0.6 1.9-0.6 1.6 0 2.5 1.1 1 1.1 1 3.1v0.6h-5.8q0.1 1.2 0.8 2 0.7 0.8 1.7 0.8 0.8 0 1.3-0.3 0.6-0.3 1-0.9l0.8 0.7q-1 1.7-3.1 1.7zm-0.2-7.6q-0.9 0-1.5 0.6-0.6 0.7-0.7 1.8h4.2v-0.1q0-1.1-0.6-1.7-0.5-0.6-1.4-0.6z"/>
			<path id="path5760" class="s0" d="m26.8 373.7q0.8 0 1.4-0.5 0.5-0.5 0.6-1.2h1.4q-0.1 0.8-0.5 1.4-0.5 0.7-1.3 1.1-0.7 0.4-1.6 0.4-1.7 0-2.7-1.2-1-1.1-1-3.1v-0.3q0-1.2 0.4-2.2 0.5-0.9 1.3-1.5 0.8-0.5 2-0.5 1.4 0 2.4 0.8 0.9 0.9 1 2.3h-1.4q-0.1-0.9-0.6-1.4-0.6-0.5-1.4-0.5-1.1 0-1.7 0.8-0.6 0.8-0.6 2.3v0.2q0 1.5 0.6 2.3 0.6 0.8 1.7 0.8z"/>
			<path id="path5762" fill-rule="evenodd" class="s0" d="m37 374.7q-0.1-0.3-0.2-0.9-1 1.1-2.4 1.1-1.2 0-2-0.7-0.8-0.7-0.8-1.9 0-1.3 1-2 1-0.7 2.8-0.7h1.4v-0.7q0-0.7-0.5-1.2-0.4-0.4-1.3-0.4-0.8 0-1.3 0.4-0.5 0.3-0.5 0.9h-1.5q0-0.6 0.5-1.2 0.4-0.6 1.2-1 0.8-0.3 1.7-0.3 1.5 0 2.3 0.7 0.8 0.8 0.9 2v3.9q-0.1 1.2 0.2 1.9v0.1zm-2.4-1.1q0.7 0 1.3-0.4 0.6-0.3 0.9-0.9v-1.7h-1.1q-2.7 0-2.7 1.6 0 0.6 0.5 1 0.4 0.4 1.1 0.4z"/>
			<path id="path5764" class="s0" d="m41.9 366.2v1.1q1-1.2 2.6-1.2 2.7 0 2.7 3v5.6h-1.5v-5.6q0-0.9-0.4-1.3-0.4-0.5-1.3-0.5-0.7 0-1.2 0.4-0.5 0.4-0.8 1v6h-1.5v-8.5z"/>
			<path id="path5766" class="s0" d="m50.7 366.2l0.1 1.1q0.9-1.2 2.5-1.2 2.7 0 2.7 3v5.6h-1.4v-5.6q0-0.9-0.5-1.3-0.4-0.5-1.2-0.5-0.7 0-1.3 0.4-0.5 0.4-0.8 1v6h-1.4v-8.5z"/>
			<path id="path5768" fill-rule="evenodd" class="s0" d="m57.8 370.4q0-1.2 0.5-2.2 0.5-1 1.4-1.6 0.8-0.5 2-0.5 1.7 0 2.7 1.2 1.1 1.2 1.1 3.2v0.1q0 1.2-0.4 2.2-0.5 1-1.4 1.5-0.9 0.6-2 0.6-1.7 0-2.8-1.2-1.1-1.2-1.1-3.2zm1.5 0.2q0 1.4 0.6 2.2 0.7 0.9 1.8 0.9 1.1 0 1.7-0.9 0.7-0.8 0.7-2.4 0-1.4-0.7-2.2-0.6-0.9-1.7-0.9-1.1 0-1.8 0.8-0.6 0.9-0.6 2.5z"/>
			<path id="path5770" class="s0" d="m69.3 364.2v2h1.6v1.2h-1.6v5.2q0 0.5 0.2 0.8 0.2 0.2 0.7 0.2 0.3 0 0.7-0.1v1.2q-0.6 0.2-1.1 0.2-1 0-1.5-0.6-0.5-0.6-0.5-1.7v-5.2h-1.5v-1.2h1.5v-2z"/>
			<path id="path5772" class="s0" d="m77.9 366.2v1q0.9-1.1 2.5-1.1 1.8 0 2.4 1.3 0.5-0.6 1.1-0.9 0.7-0.4 1.6-0.4 2.8 0 2.9 2.9v5.7h-1.5v-5.6q0-0.9-0.4-1.3-0.4-0.5-1.4-0.5-0.8 0-1.3 0.5-0.6 0.5-0.6 1.3v5.6h-1.5v-5.5q0-1.9-1.8-1.9-1.4 0-1.9 1.2v6.2h-1.5v-8.5z"/>
			<path id="path5774" fill-rule="evenodd" class="s0" d="m90.2 370.4q0-1.2 0.4-2.2 0.5-1 1.4-1.6 0.9-0.5 2-0.5 1.7 0 2.8 1.2 1.1 1.2 1.1 3.2v0.1q0 1.2-0.5 2.2-0.5 1-1.4 1.5-0.8 0.6-2 0.6-1.7 0-2.8-1.2-1-1.2-1-3.2zm1.4 0.2q0 1.4 0.7 2.2 0.6 0.9 1.7 0.9 1.1 0 1.8-0.9 0.6-0.8 0.6-2.4 0-1.4-0.7-2.2-0.6-0.9-1.7-0.9-1.1 0-1.7 0.8-0.7 0.9-0.7 2.5z"/>
			<path id="path5776" class="s0" d="m102.3 372.7l2.1-6.5h1.5l-3 8.5h-1.1l-3.1-8.5h1.5z"/>
			<path id="path5778" fill-rule="evenodd" class="s0" d="m110.7 374.9q-1.7 0-2.8-1.2-1.1-1.1-1.1-3v-0.3q0-1.2 0.5-2.2 0.5-1 1.4-1.5 0.8-0.6 1.8-0.6 1.7 0 2.6 1.1 0.9 1.1 0.9 3.1v0.6h-5.7q0 1.2 0.7 2 0.7 0.8 1.8 0.8 0.8 0 1.3-0.3 0.5-0.3 0.9-0.9l0.9 0.7q-1.1 1.7-3.2 1.7zm-0.2-7.6q-0.8 0-1.4 0.6-0.6 0.7-0.8 1.8h4.3v-0.1q-0.1-1.1-0.6-1.7-0.6-0.6-1.5-0.6z"/>
			<path id="path5780" class="s0" d="m123.7 367.5q-0.3 0-0.7 0-1.4 0-1.9 1.2v6h-1.4v-8.5h1.4v1q0.7-1.1 2-1.1 0.4 0 0.6 0.1z"/>
			<path id="path5782" fill-rule="evenodd" class="s0" d="m128.4 374.9q-1.7 0-2.8-1.2-1.1-1.1-1.1-3v-0.3q0-1.2 0.5-2.2 0.5-1 1.3-1.5 0.9-0.6 1.9-0.6 1.7 0 2.6 1.1 0.9 1.1 0.9 3.1v0.6h-5.7q0 1.2 0.7 2 0.7 0.8 1.8 0.8 0.7 0 1.3-0.3 0.5-0.3 0.9-0.9l0.9 0.7q-1.1 1.7-3.2 1.7zm-0.2-7.6q-0.9 0-1.5 0.6-0.5 0.7-0.7 1.8h4.3v-0.1q-0.1-1.1-0.6-1.7-0.6-0.6-1.5-0.6z"/>
			<path id="path5784" class="s0" d="m134.1 374.7v-7.3h-1.4v-1.2h1.4v-0.8q0-1.4 0.7-2.1 0.7-0.8 2.1-0.8 0.5 0 1 0.2l-0.1 1.1q-0.4 0-0.8 0-0.7 0-1.1 0.4-0.4 0.4-0.4 1.1v0.9h1.8v1.2h-1.8v7.3z"/>
			<path id="path5786" fill-rule="evenodd" class="s0" d="m142.3 374.9q-1.8 0-2.9-1.2-1-1.1-1-3v-0.3q0-1.2 0.5-2.2 0.4-1 1.3-1.5 0.9-0.6 1.9-0.6 1.6 0 2.5 1.1 0.9 1.1 0.9 3.1v0.6h-5.7q0.1 1.2 0.7 2 0.7 0.8 1.8 0.8 0.8 0 1.3-0.3 0.5-0.3 1-0.9l0.8 0.7q-1 1.7-3.1 1.7zm-0.2-7.6q-0.9 0-1.5 0.6-0.6 0.7-0.7 1.8h4.2v-0.1q-0.1-1.1-0.6-1.7-0.5-0.6-1.4-0.6z"/>
			<path id="path5788" class="s0" d="m151.3 367.5q-0.3 0-0.7 0-1.4 0-1.9 1.2v6h-1.5v-8.5h1.4v1q0.7-1.1 2.1-1.1 0.4 0 0.6 0.1z"/>
			<path id="path5790" fill-rule="evenodd" class="s0" d="m156 374.9q-1.8 0-2.8-1.2-1.1-1.1-1.1-3v-0.3q0-1.2 0.5-2.2 0.4-1 1.3-1.5 0.9-0.6 1.9-0.6 1.6 0 2.5 1.1 1 1.1 1 3.1v0.6h-5.8q0.1 1.2 0.8 2 0.7 0.8 1.8 0.8 0.7 0 1.2-0.3 0.6-0.3 1-0.9l0.9 0.7q-1.1 1.7-3.2 1.7zm-0.2-7.6q-0.9 0-1.5 0.6-0.6 0.7-0.7 1.8h4.2v-0.1q0-1.1-0.6-1.7-0.5-0.6-1.4-0.6z"/>
			<path id="path5792" class="s0" d="m162.3 366.2v1.1q1-1.2 2.6-1.2 2.7 0 2.7 3v5.6h-1.5v-5.6q0-0.9-0.4-1.3-0.4-0.5-1.3-0.5-0.7 0-1.2 0.4-0.5 0.4-0.8 1v6h-1.5v-8.5z"/>
			<path id="path5794" class="s0" d="m171.7 364.2v2h1.6v1.2h-1.6v5.2q0 0.5 0.2 0.8 0.3 0.2 0.8 0.2 0.2 0 0.6-0.1v1.2q-0.5 0.2-1.1 0.2-0.9 0-1.4-0.6-0.5-0.6-0.5-1.7v-5.2h-1.6v-1.2h1.6v-2z"/>
			<path id="path5796" class="s0" d="m24.8 391.2v1q0.9-1.1 2.5-1.1 1.8 0 2.4 1.3 0.5-0.6 1.1-0.9 0.7-0.4 1.6-0.4 2.8 0 2.9 2.9v5.7h-1.5v-5.6q0-0.9-0.4-1.3-0.4-0.5-1.4-0.5-0.8 0-1.3 0.5-0.6 0.5-0.6 1.3v5.6h-1.5v-5.5q0-1.9-1.8-1.9-1.4 0-1.9 1.2v6.2h-1.5v-8.5z"/>
			<path id="path5798" class="s0" d="m42.7 398.9q-0.9 1-2.5 1-1.4 0-2.1-0.8-0.7-0.8-0.7-2.4v-5.5h1.5v5.5q0 1.9 1.5 1.9 1.7 0 2.2-1.2v-6.2h1.5v8.5h-1.4z"/>
			<path id="path5800" class="s0" d="m51.2 397.4q0-0.5-0.5-0.8-0.4-0.4-1.5-0.6-1.1-0.2-1.7-0.6-0.7-0.3-1-0.7-0.3-0.5-0.3-1.1 0-1.1 0.9-1.8 0.9-0.7 2.2-0.7 1.5 0 2.4 0.7 0.8 0.8 0.9 1.9h-1.5q0-0.6-0.5-1-0.5-0.4-1.3-0.4-0.8 0-1.2 0.3-0.4 0.4-0.4 0.9 0 0.5 0.4 0.8 0.4 0.3 1.5 0.5 1.1 0.3 1.7 0.6 0.7 0.3 1 0.8 0.3 0.5 0.3 1.1 0 1.2-0.9 1.9-0.9 0.7-2.3 0.7-1 0-1.8-0.4-0.8-0.4-1.2-1-0.5-0.7-0.5-1.4h1.5q0 0.7 0.5 1.2 0.6 0.4 1.5 0.4 0.8 0 1.3-0.4 0.5-0.3 0.5-0.9z"/>
			<path id="path5802" class="s0" d="m56.5 389.2v2h1.6v1.2h-1.6v5.2q0 0.5 0.2 0.8 0.2 0.2 0.7 0.2 0.3 0 0.7-0.1v1.2q-0.6 0.2-1.1 0.2-1 0-1.5-0.6-0.5-0.6-0.5-1.7v-5.2h-1.5v-1.2h1.5v-2z"/>
			<path id="path5804" class="s0" d="m65.1 391.2v1.1q1-1.2 2.6-1.2 2.6 0 2.7 3v5.6h-1.5v-5.6q0-0.9-0.4-1.3-0.4-0.5-1.3-0.5-0.7 0-1.2 0.4-0.6 0.4-0.8 1v6h-1.5v-8.5z"/>
			<path id="path5806" fill-rule="evenodd" class="s0" d="m72.2 395.4q0-1.2 0.4-2.2 0.5-1 1.4-1.6 0.9-0.5 2-0.5 1.7 0 2.8 1.2 1.1 1.2 1.1 3.2v0.1q0 1.2-0.5 2.2-0.5 1-1.4 1.5-0.8 0.6-2 0.6-1.7 0-2.8-1.2-1-1.2-1-3.2zm1.4 0.2q0 1.4 0.7 2.2 0.6 0.9 1.7 0.9 1.1 0 1.8-0.9 0.6-0.8 0.6-2.4 0-1.4-0.7-2.2-0.6-0.9-1.7-0.9-1.1 0-1.7 0.8-0.7 0.9-0.7 2.5z"/>
			<path id="path5808" class="s0" d="m83.6 389.2v2h1.6v1.2h-1.6v5.2q0 0.5 0.3 0.8 0.2 0.2 0.7 0.2 0.2 0 0.7-0.1v1.2q-0.6 0.2-1.2 0.2-0.9 0-1.4-0.6-0.5-0.6-0.5-1.7v-5.2h-1.6v-1.2h1.6v-2z"/>
			<path id="path5810" fill-rule="evenodd" class="s0" d="m90.5 395.4q0-1.2 0.5-2.2 0.5-1 1.3-1.6 0.9-0.5 2-0.5 1.7 0 2.8 1.2 1.1 1.2 1.1 3.2v0.1q0 1.2-0.5 2.2-0.5 1-1.3 1.5-0.9 0.6-2.1 0.6-1.7 0-2.8-1.2-1-1.2-1-3.2zm1.4 0.2q0 1.4 0.7 2.2 0.6 0.9 1.7 0.9 1.1 0 1.8-0.9 0.6-0.8 0.6-2.4 0-1.4-0.6-2.2-0.7-0.9-1.8-0.9-1.1 0-1.7 0.8-0.7 0.9-0.7 2.5z"/>
			<path id="path5812" class="s0" d="m105.2 398.9q-0.8 1-2.5 1-1.3 0-2-0.8-0.7-0.8-0.7-2.4v-5.5h1.4v5.5q0 1.9 1.6 1.9 1.6 0 2.2-1.2v-6.2h1.4v8.5h-1.3z"/>
			<path id="path5814" class="s0" d="m110.8 389.2v2h1.5v1.2h-1.5v5.2q0 0.5 0.2 0.8 0.2 0.2 0.7 0.2 0.2 0 0.7-0.1v1.2q-0.6 0.2-1.1 0.2-1 0-1.5-0.6-0.5-0.6-0.5-1.7v-5.2h-1.5v-1.2h1.5v-2z"/>
			<path id="path5816" class="s0" d="m114.2 387.7h1.4v12h-1.4z"/>
			<path id="path5818" class="s0" d="m119.5 399.7h-1.5v-8.5h1.5zm-1.6-10.6q0-0.4 0.2-0.7 0.2-0.2 0.7-0.2 0.4 0 0.6 0.2 0.2 0.3 0.2 0.7 0 0.3-0.2 0.5-0.2 0.3-0.6 0.3-0.5 0-0.7-0.3-0.2-0.2-0.2-0.5z"/>
			<path id="path5820" class="s0" d="m124.6 397.7l2.1-6.5h1.4l-3 8.5h-1.1l-3.1-8.5h1.5z"/>
			<path id="path5822" fill-rule="evenodd" class="s0" d="m132.9 399.9q-1.7 0-2.8-1.2-1-1.1-1-3v-0.3q0-1.2 0.4-2.2 0.5-1 1.4-1.5 0.8-0.6 1.8-0.6 1.7 0 2.6 1.1 0.9 1.1 0.9 3.1v0.6h-5.7q0 1.2 0.7 2 0.7 0.8 1.8 0.8 0.8 0 1.3-0.3 0.5-0.3 1-0.9l0.8 0.7q-1 1.7-3.2 1.7zm-0.2-7.6q-0.8 0-1.4 0.6-0.6 0.7-0.7 1.8h4.2v-0.1q-0.1-1.1-0.6-1.7-0.5-0.6-1.5-0.6z"/>
			<path id="path5824" class="s0" d="m143.4 399.7h-1.4v-8.5h1.4zm-1.5-10.6q0-0.4 0.2-0.7 0.2-0.2 0.6-0.2 0.4 0 0.7 0.2 0.2 0.3 0.2 0.7 0 0.3-0.2 0.5-0.3 0.3-0.7 0.3-0.4 0-0.6-0.3-0.2-0.2-0.2-0.5z"/>
			<path id="path5826" class="s0" d="m147.7 389.2v2h1.6v1.2h-1.6v5.2q0 0.5 0.2 0.8 0.2 0.2 0.7 0.2 0.3 0 0.7-0.1v1.2q-0.6 0.2-1.1 0.2-1 0-1.5-0.6-0.5-0.6-0.4-1.7v-5.2h-1.6v-1.2h1.6v-2z"/>
			<path id="path5828" class="s0" d="m155.9 397.4q0-0.5-0.5-0.8-0.4-0.4-1.5-0.6-1.1-0.2-1.7-0.6-0.7-0.3-1-0.7-0.3-0.5-0.3-1.1 0-1.1 0.9-1.8 0.9-0.7 2.2-0.7 1.5 0 2.3 0.7 0.9 0.8 0.9 1.9h-1.4q0-0.6-0.5-1-0.5-0.4-1.3-0.4-0.8 0-1.2 0.3-0.5 0.4-0.5 0.9 0 0.5 0.5 0.8 0.4 0.3 1.5 0.5 1 0.3 1.7 0.6 0.7 0.3 1 0.8 0.3 0.5 0.3 1.1 0 1.2-0.9 1.9-0.9 0.7-2.3 0.7-1.1 0-1.8-0.4-0.8-0.4-1.2-1-0.5-0.7-0.5-1.4h1.5q0 0.7 0.5 1.2 0.6 0.4 1.5 0.4 0.8 0 1.3-0.4 0.5-0.3 0.5-0.9z"/>
			<path id="path5830" class="s0" d="m167.3 392.5q-0.4 0-0.7 0-1.5 0-2 1.2v6h-1.4v-8.5h1.4v1q0.7-1.1 2-1.1 0.4 0 0.7 0.1z"/>
			<path id="path5832" fill-rule="evenodd" class="s0" d="m171.9 399.9q-1.7 0-2.8-1.2-1-1.1-1-3v-0.3q0-1.2 0.4-2.2 0.5-1 1.4-1.5 0.8-0.6 1.8-0.6 1.7 0 2.6 1.1 0.9 1.1 0.9 3.1v0.6h-5.7q0 1.2 0.7 2 0.7 0.8 1.8 0.8 0.8 0 1.3-0.3 0.5-0.3 1-0.9l0.8 0.7q-1 1.7-3.2 1.7zm-0.2-7.6q-0.8 0-1.4 0.6-0.6 0.7-0.7 1.8h4.2v-0.1q-0.1-1.1-0.6-1.7-0.5-0.6-1.5-0.6z"/>
			<path id="path5834" class="s0" d="m177.6 399.7v-7.3h-1.3v-1.2h1.3v-0.8q0-1.4 0.7-2.1 0.7-0.8 2.1-0.8 0.5 0 1 0.2l-0.1 1.1q-0.4 0-0.8 0-0.7 0-1.1 0.4-0.3 0.4-0.3 1.1v0.9h1.8v1.2h-1.8v7.3z"/>
			<path id="path5836" fill-rule="evenodd" class="s0" d="m185.8 399.9q-1.8 0-2.8-1.2-1.1-1.1-1.1-3v-0.3q0-1.2 0.5-2.2 0.5-1 1.3-1.5 0.9-0.6 1.9-0.6 1.6 0 2.6 1.1 0.9 1.1 0.9 3.1v0.6h-5.8q0.1 1.2 0.8 2 0.7 0.8 1.8 0.8 0.7 0 1.2-0.3 0.6-0.3 1-0.9l0.9 0.7q-1.1 1.7-3.2 1.7zm-0.2-7.6q-0.9 0-1.5 0.6-0.6 0.7-0.7 1.8h4.2v-0.1q0-1.1-0.6-1.7-0.5-0.6-1.4-0.6z"/>
			<path id="path5838" class="s0" d="m194.8 392.5q-0.3 0-0.7 0-1.4 0-1.9 1.2v6h-1.5v-8.5h1.4l0.1 1q0.7-1.1 2-1.1 0.4 0 0.6 0.1z"/>
			<path id="path5840" fill-rule="evenodd" class="s0" d="m199.5 399.9q-1.7 0-2.8-1.2-1.1-1.1-1.1-3v-0.3q0-1.2 0.5-2.2 0.5-1 1.3-1.5 0.9-0.6 1.9-0.6 1.7 0 2.6 1.1 0.9 1.1 0.9 3.1v0.6h-5.7q0 1.2 0.7 2 0.7 0.8 1.8 0.8 0.7 0 1.3-0.3 0.5-0.3 0.9-0.9l0.9 0.7q-1.1 1.7-3.2 1.7zm-0.2-7.6q-0.9 0-1.5 0.6-0.6 0.7-0.7 1.8h4.3v-0.1q-0.1-1.1-0.7-1.7-0.5-0.6-1.4-0.6z"/>
			<path id="path5842" class="s0" d="m205.8 391.2l0.1 1.1q0.9-1.2 2.5-1.2 2.7 0 2.7 3v5.6h-1.4v-5.6q0-0.9-0.5-1.3-0.4-0.5-1.2-0.5-0.7 0-1.3 0.4-0.5 0.4-0.8 1v6h-1.4v-8.5z"/>
			<path id="path5844" class="s0" d="m215.3 389.2v2h1.5v1.2h-1.5v5.2q0 0.5 0.2 0.8 0.2 0.2 0.7 0.2 0.2 0 0.7-0.1v1.2q-0.6 0.2-1.1 0.2-1 0-1.5-0.6-0.5-0.6-0.5-1.7v-5.2h-1.5v-1.2h1.5v-2z"/>
			<g id="g5846">
				<path id="path5848" class="s5" d="m206.4 114.9v46.6"/>
			</g>
			<g id="g5850">
				<path id="path5852" class="s6" d="m139.7 21v11.7"/>
			</g>
			<g id="g5854">
				<path id="path5856" class="s6" d="m139.7 248.2v11.7"/>
			</g>
			<g id="g5858">
				<path id="path5860" class="s7" d="m206.4 114.9l-41-16.6v-15.6l-25.7-12.8m42.6 123.4v-18.2l24.1-13.6"/>
			</g>
			<g id="g5862">
				<path id="path5864" class="s8" d="m139.7 69.9v-33.1"/>
			</g>
			<g id="g5866">
				<path id="path5868" class="s9" d="m139.7 211.5v-141.6"/>
			</g>
			<g id="g5870">
				<path id="path5872" class="s8" d="m139.7 244.6v-33.1"/>
			</g>
			<circle id="path5874" class="s10" cx="139.7" cy="69.9" r="8.6"/>
			<circle id="path5876" class="s11" cx="139.5" cy="209.9" r="8.6"/>
			<path id="path5878" fill-rule="evenodd" class="s12" d="m116.5 151.3v-11l0.9-0.8h1v-3.2c0-2.5 1.3-4 3.6-4 2.3 0 3.6 1.5 3.6 4v3.2h1l0.8 0.8v11l-0.8 0.8h-9.2zm5.2-1.5h0.4l1-0.5-0.6-3.6c0.9-0.3 1.2-0.9 1.2-1.7 0-1-0.8-1.7-1.8-1.7-1 0-1.8 0.7-1.8 1.7 0 0.8 0.4 1.4 1.3 1.7l-0.6 3.6zm2.4-10.2v-3.1c0-1.7-0.7-2.7-2.2-2.7-1.4 0-2.1 1-2.1 2.7v3.1z"/>
			<g id="g5880">
				<path id="path5882" class="s13" d="m206.4 114.9l28.5 11.5v16.4"/>
			</g>
			<circle id="path5884" class="s14" cx="206.4" cy="114.7" r="8.6"/>
			<circle id="path5886" class="s10" cx="206.4" cy="160.8" r="8.6"/>
			<circle id="path5888" class="s10" cx="182.5" cy="193.3" r="8.6"/>
			<circle id="path5890" class="s14" cx="234.8" cy="142.8" r="8.6"/>
			<path id="path5892" class="s15" d="m187.5 137.1l-3.7-2.1-3.1 1.7-0.9-1.6 2.1-1.2-3.1-1.8 1-1.6 3 1.8v-2.5h1.9v3.5l3.7 2.2v-4.3l-3-1.7 0.9-1.7 2.1 1.2v-3.5h1.9v3.5l2.1-1.2 0.9 1.7-3 1.7v4.3l3.8-2.2v-3.5h1.8v2.5l3.1-1.8 0.9 1.6-3 1.8 2.1 1.2-1 1.6-3-1.7-3.7 2.1 3.7 2.2 3-1.7 1 1.6-2.1 1.2 3 1.8-0.9 1.6-3.1-1.8v2.4h-1.8v-3.5l-3.8-2.1v4.3l3 1.7-0.9 1.7-2.1-1.2v3.5h-1.9v-3.5l-2.1 1.2-0.9-1.7 3-1.7v-4.3l-3.7 2.1v3.5h-1.9v-2.4l-3 1.8-1-1.6 3.1-1.8-2.1-1.2 0.9-1.6 3.1 1.7z"/>
			<g id="g5894">
				<path id="path5896" class="s8" d="m548.7 73.8v-33.1"/>
			</g>
			<g id="g5898">
				<path id="path5900" class="s9" d="m548.7 215.4v-141.6"/>
			</g>
			<g id="g5902">
				<path id="path5904" class="s8" d="m548.7 248.6v-33.2"/>
			</g>
			<circle id="path5906" class="s14" cx="548.7" cy="73.8" r="8.6"/>
			<circle id="path5908" class="s11" cx="548.5" cy="213.8" r="8.6"/>
			<g id="g5910">
				<path id="path5912" class="s13" d="m546.7 112.6l28.4 14.6v31.5"/>
			</g>
			<circle id="path5914" class="s14" cx="548.4" cy="113" r="8.6"/>
			<path id="path5916" class="s12" d="m525.7 142.4l-3.7-2.1-3.1 1.7-0.9-1.6 2.1-1.2-3-1.8 0.9-1.6 3.1 1.8v-2.5h1.8v3.5l3.8 2.2v-4.3l-3.1-1.7 1-1.7 2.1 1.2v-3.5h1.9v3.5l2-1.2 1 1.7-3 1.7v4.3l3.7-2.2v-3.5h1.9v2.5l3-1.8 1 1.6-3.1 1.8 2.1 1.2-0.9 1.6-3.1-1.7-3.7 2.1 3.7 2.2 3.1-1.7 0.9 1.6-2.1 1.2 3.1 1.8-1 1.6-3-1.8v2.4h-1.9v-3.5l-3.7-2.1v4.3l3 1.7-1 1.7-2-1.2v3.5h-1.9v-3.5l-2.1 1.2-1-1.7 3.1-1.7v-4.3l-3.8 2.1v3.5h-1.8v-2.4l-3.1 1.8-0.9-1.6 3-1.8-2.1-1.2 0.9-1.6 3.1 1.7z"/>
			<g id="g5918">
				<path id="path5920" class="s13" d="m548.7 73.8l55.2 27.1v102.9"/>
			</g>
			<g id="g5922">
				<path id="path5924" class="s13" d="m604.8 115.1l18.9 10.8v50.3"/>
			</g>
			<g id="g5926">
				<path id="path5928" class="s13" d="m623.6 141.3l20.4 11.8v42.2"/>
			</g>
			<g id="g5930">
				<path id="path5932" class="s6" d="m548.7 25.3v11.7"/>
			</g>
			<g id="g5934">
				<path id="path5936" class="s6" d="m548.8 251.9v11.7"/>
			</g>
			<circle id="path5938" class="s14" cx="575.2" cy="159.2" r="8.6"/>
			<circle id="path5940" class="s14" cx="603.8" cy="204.4" r="8.6"/>
			<circle id="path5942" class="s14" cx="623.7" cy="176.4" r="8.6"/>
			<circle id="path5944" class="s14" cx="644.1" cy="195.3" r="8.6"/>
		</g>
	</g>
</svg>