<svg version="1.2" xmlns="http://www.w3.org/2000/svg" viewBox="0 0 768 247" width="768" height="247">
	<title>rust-move-copy-borrow-svg</title>
	<style>
		.s0 { fill: none;stroke: #f44336;stroke-width: 3.8 } 
		.s1 { fill: #000000 } 
		.s2 { fill: #03a9f4 } 
		.s3 { fill: #f44336 } 
		.s4 { fill: none;stroke: #f44336;stroke-width: 3.8;stroke-dasharray: 4,4 } 
		.s5 { fill: none;stroke: #03a9f4;stroke-width: 3.8 } 
		.s6 { fill: none;stroke: #4caf50;stroke-width: 3.8 } 
		.s7 { fill: none;stroke: #ff9800;stroke-width: 3.8 } 
		.s8 { fill: #4caf50 } 
		.s9 { fill: #ff9800 } 
		.s10 { fill: none;stroke: #ff9800;stroke-width: 3.8;stroke-dasharray: 4,4 } 
		.s11 { fill: none;stroke: #4caf50;stroke-width: 3.8;stroke-dasharray: 4,4 } 
	</style>
	<g id="g4512">
		<g id="g4514">
			<g id="g4516">
				<path id="path4518" class="s0" d="m46.3 176.7v-50"/>
			</g>
			<path id="path4520" class="s1" d="m23.7 24.7h2.6l-1.5-2.6h0.1l3.3 3.2v0.1l-3.3 3.2h-0.1l1.5-2.6h-2.6q-0.7 0-1.4-0.3-0.7-0.2-1.2-0.7-0.6-0.7-1.6-0.7-1 0-1.7 0.7l-1 1-0.8-0.9 1-1q0.4-0.5 1.1-0.8 0.7-0.3 1.4-0.3 0.7 0 1.4 0.3 0.7 0.3 1.1 0.8 0.7 0.6 1.7 0.6z"/>
			<path id="path4522" class="s1" d="m36.8 22.1l0.1 1q0.9-1.1 2.4-1.1 1.7 0 2.3 1.2 0.9-1.2 2.5-1.2 1.4 0 2.1 0.8 0.6 0.8 0.6 2.4v5.4h-2.2v-5.4q0-0.7-0.3-1.1-0.3-0.3-1-0.3-1 0-1.4 0.9v5.9h-2.3v-5.4q0-0.8-0.3-1.1-0.2-0.3-0.9-0.3-1 0-1.4 0.8v6h-2.3v-8.5z"/>
			<path id="path4524" fill-rule="evenodd" class="s1" d="m48.2 26.2q0-1.2 0.5-2.2 0.5-1 1.4-1.5 0.9-0.5 2.1-0.5 1.7 0 2.8 1 1.1 1 1.2 2.8v0.6q0 2-1.1 3.2-1.1 1.1-2.9 1.1-1.8 0-2.9-1.1-1.1-1.2-1.1-3.3zm2.3 0.2q0 1.2 0.4 1.9 0.5 0.6 1.3 0.6 0.8 0 1.3-0.6 0.5-0.7 0.5-2.1 0-1.1-0.5-1.8-0.5-0.6-1.3-0.6-0.8 0-1.3 0.6-0.4 0.7-0.4 2z"/>
			<path id="path4526" class="s1" d="m60.7 27.8l1.5-5.7h2.4l-2.9 8.5h-2.1l-2.9-8.5h2.4z"/>
			<path id="path4528" fill-rule="evenodd" class="s1" d="m69.4 30.7q-1.9 0-3-1.1-1.2-1.2-1.2-3.1v-0.2q0-1.3 0.5-2.3 0.5-1 1.4-1.5 0.9-0.5 2-0.5 1.8 0 2.8 1.1 1 1 1 3v1h-5.4q0.1 0.8 0.6 1.3 0.6 0.5 1.4 0.5 1.3 0 2.1-0.9l1.1 1.2q-0.5 0.7-1.4 1.1-0.9 0.4-1.9 0.4zm-0.3-6.9q-0.6 0-1.1 0.4-0.4 0.5-0.5 1.3h3.2v-0.2q-0.1-0.7-0.5-1.1-0.3-0.4-1.1-0.4z"/>
			<path id="path4530" class="s1" d="m78.3 25.9q0-1.8 0.4-3.4 0.5-1.6 1.4-2.8 1-1.3 2.1-1.8l0.4 1.2q-1.2 0.9-1.8 2.7-0.6 1.7-0.6 4.1v0.2q0 2.4 0.6 4.2 0.6 1.7 1.8 2.6l-0.4 1.2q-1.1-0.5-2-1.7-0.9-1.2-1.4-2.8-0.5-1.5-0.5-3.3z"/>
			<path id="path4532" class="s1" d="m84.4 30.6v-6.8h-1.3v-1.7h1.3v-0.7q0-1.4 0.8-2.2 0.8-0.8 2.3-0.8 0.5 0 1.1 0.2v1.7q-0.3-0.1-0.7-0.1-1.2 0-1.2 1.2v0.7h1.6v1.7h-1.6v6.8z"/>
			<path id="path4534" fill-rule="evenodd" class="s1" d="m89.2 26.2q0-1.2 0.5-2.2 0.4-1 1.4-1.5 0.9-0.5 2.1-0.5 1.7 0 2.8 1 1 1 1.2 2.8v0.6q0 2-1.1 3.2-1.1 1.1-2.9 1.1-1.9 0-2.9-1.1-1.1-1.2-1.1-3.3zm2.2 0.2q0 1.2 0.5 1.9 0.4 0.6 1.3 0.6 0.8 0 1.3-0.6 0.4-0.7 0.4-2.1 0-1.1-0.4-1.8-0.5-0.6-1.3-0.6-0.9 0-1.3 0.6-0.5 0.7-0.5 2z"/>
			<path id="path4536" class="s1" d="m103.3 24.2q-0.4 0-0.8 0-1.3 0-1.7 0.8v5.6h-2.2v-8.5h2.1l0.1 1q0.7-1.1 1.9-1.1 0.3 0 0.7 0.1z"/>
			<path id="path4538" class="s1" d="m111.1 20v2.1h1.5v1.7h-1.5v4.2q0 0.5 0.2 0.7 0.2 0.1 0.7 0.1 0.4 0.1 0.7 0v1.7q-0.7 0.2-1.4 0.2-2.4 0-2.4-2.4v-4.5h-1.2v-1.7h1.2v-2.1z"/>
			<path id="path4540" class="s1" d="m117 27.4l1.6-5.3h2.4l-3.4 9.8-0.2 0.4q-0.8 1.7-2.5 1.7-0.5 0-1-0.2v-1.7h0.3q0.7 0 1-0.2 0.3-0.2 0.5-0.6l0.3-0.7-3-8.5h2.4z"/>
			<path id="path4542" fill-rule="evenodd" class="s1" d="m129.5 26.4q0 2-0.9 3.2-0.9 1.1-2.4 1.1-1.3 0-2.1-0.9v4h-2.2v-11.7h2.1v0.8q0.9-0.9 2.2-0.9 1.6 0 2.4 1.1 0.9 1.2 0.9 3.2zm-2.3-0.2q0-1.2-0.4-1.8-0.4-0.6-1.2-0.6-1.1 0-1.5 0.8v3.4q0.4 0.9 1.5 0.9 1.6 0 1.6-2.7z"/>
			<path id="path4544" fill-rule="evenodd" class="s1" d="m134.8 30.7q-1.9 0-3.1-1.1-1.1-1.2-1.1-3.1v-0.2q0-1.3 0.4-2.3 0.5-1 1.4-1.5 1-0.5 2.1-0.5 1.8 0 2.7 1.1 1 1 1 3v1h-5.3q0.1 0.8 0.6 1.3 0.6 0.5 1.4 0.5 1.3 0 2-0.9l1.2 1.2q-0.6 0.7-1.4 1.1-0.9 0.4-1.9 0.4zm-0.3-6.9q-0.7 0-1.1 0.4-0.4 0.5-0.5 1.3h3.1v-0.2q0-0.7-0.4-1.1-0.4-0.4-1.1-0.4z"/>
			<path id="path4546" class="s1" d="m144.1 28.2q0-0.4-0.4-0.6-0.4-0.3-1.3-0.5-3-0.6-3-2.5 0-1.1 0.9-1.9 0.9-0.7 2.4-0.7 1.6 0 2.6 0.7 1 0.8 1 2h-2.3q0-0.5-0.3-0.8-0.3-0.3-1-0.3-0.5 0-0.9 0.2-0.3 0.3-0.3 0.7 0 0.4 0.4 0.6 0.3 0.2 1.2 0.4 0.8 0.1 1.4 0.3 1.8 0.7 1.8 2.3 0 1.2-1 1.9-1 0.7-2.6 0.7-1 0-1.9-0.4-0.8-0.3-1.2-1-0.5-0.7-0.5-1.4h2.1q0.1 0.6 0.5 0.9 0.4 0.3 1.1 0.3 0.7 0 1-0.2 0.3-0.3 0.3-0.7z"/>
			<path id="path4548" class="s1" d="m154.4 20v2.1h1.5v1.7h-1.5v4.2q0 0.5 0.2 0.7 0.2 0.1 0.7 0.1 0.4 0.1 0.7 0v1.7q-0.7 0.2-1.4 0.2-2.4 0-2.4-2.4v-4.5h-1.2v-1.7h1.2v-2.1z"/>
			<path id="path4550" class="s1" d="m159.3 23q1-1 2.3-1 2.8 0 2.8 3.1v5.5h-2.3v-5.4q0-0.7-0.3-1.1-0.3-0.3-1-0.3-1 0-1.5 0.8v6h-2.2v-12h2.2z"/>
			<path id="path4552" fill-rule="evenodd" class="s1" d="m171 30.6q-0.1-0.4-0.2-0.8-0.8 0.9-2.1 0.9-1.3 0-2.1-0.7-0.8-0.7-0.8-1.8 0-1.4 1-2.1 1-0.7 2.9-0.7h1v-0.5q0-0.6-0.3-0.9-0.3-0.4-1-0.4-0.5 0-0.9 0.3-0.3 0.3-0.3 0.7h-2.2q0-0.7 0.4-1.3 0.5-0.6 1.3-1 0.8-0.3 1.9-0.3 1.5 0 2.4 0.7 1 0.8 1 2.2v3.7q0 1.2 0.3 1.8v0.2zm-1.9-1.6q0.5 0 0.9-0.2 0.5-0.3 0.7-0.6v-1.5h-0.9q-1.7 0-1.8 1.2v0.1q0 0.4 0.3 0.7 0.3 0.3 0.8 0.3z"/>
			<path id="path4554" class="s1" d="m177.4 20v2.1h1.5v1.7h-1.5v4.2q0 0.5 0.2 0.7 0.2 0.1 0.7 0.1 0.4 0.1 0.7 0v1.7q-0.7 0.2-1.4 0.2-2.4 0-2.4-2.4v-4.5h-1.3v-1.7h1.3v-2.1z"/>
			<path id="path4556" fill-rule="evenodd" class="s1" d="m183.8 26.3q0-2 0.9-3.2 0.8-1.1 2.4-1.1 1.2 0 2 0.9v-4.3h2.3v12h-2l-0.2-0.9q-0.8 1-2.1 1-1.5 0-2.4-1.1-0.9-1.2-0.9-3.3zm2.2 0.1q0 1.2 0.4 1.9 0.5 0.6 1.3 0.6 1 0 1.4-0.9v-3.3q-0.4-0.9-1.4-0.9-1.7 0-1.7 2.6z"/>
			<path id="path4558" fill-rule="evenodd" class="s1" d="m192.8 26.2q0-1.2 0.5-2.2 0.5-1 1.4-1.5 0.9-0.5 2.1-0.5 1.7 0 2.8 1 1.1 1 1.2 2.8v0.6q0 2-1.1 3.2-1.1 1.1-2.9 1.1-1.8 0-2.9-1.1-1.1-1.2-1.1-3.3zm2.3 0.2q0 1.2 0.4 1.9 0.5 0.6 1.3 0.6 0.8 0 1.3-0.6 0.5-0.7 0.5-2.1 0-1.1-0.5-1.8-0.5-0.6-1.3-0.6-0.8 0-1.3 0.6-0.4 0.7-0.4 2z"/>
			<path id="path4560" class="s1" d="m208.3 22.1l0.1 1q0.9-1.1 2.4-1.1 1.3 0 2 0.7 0.7 0.8 0.7 2.4v5.5h-2.3v-5.5q0-0.7-0.3-1-0.3-0.3-1.1-0.3-0.9 0-1.4 0.8v6h-2.2v-8.5z"/>
			<path id="path4562" fill-rule="evenodd" class="s1" d="m214.8 26.2q0-1.2 0.5-2.2 0.5-1 1.4-1.5 0.9-0.5 2.1-0.5 1.7 0 2.8 1 1.1 1 1.2 2.8v0.6q0 2-1 3.2-1.1 1.1-3 1.1-1.8 0-2.9-1.1-1.1-1.2-1.1-3.3zm2.3 0.2q0 1.2 0.4 1.9 0.5 0.6 1.3 0.6 0.9 0 1.3-0.6 0.5-0.7 0.5-2.1 0-1.1-0.5-1.8-0.4-0.6-1.3-0.6-0.8 0-1.3 0.6-0.4 0.7-0.4 2z"/>
			<path id="path4564" class="s1" d="m226.9 20v2.1h1.5v1.7h-1.5v4.2q0 0.5 0.2 0.7 0.2 0.1 0.7 0.1 0.4 0.1 0.7 0v1.7q-0.7 0.2-1.4 0.2-2.4 0-2.4-2.4v-4.5h-1.2v-1.7h1.2v-2.1z"/>
			<path id="path4566" class="s1" d="m236 30.6h-2.2v-8.5h2.2zm-2.4-10.6q0-0.5 0.4-0.9 0.3-0.3 0.9-0.3 0.6 0 0.9 0.3 0.4 0.4 0.4 0.9 0 0.5-0.4 0.8-0.3 0.3-0.9 0.3-0.6 0-0.9-0.3-0.4-0.3-0.4-0.8z"/>
			<path id="path4568" class="s1" d="m240 22.1l0.1 1q0.9-1.1 2.4-1.1 1.7 0 2.3 1.2 0.9-1.2 2.5-1.2 1.4 0 2 0.8 0.7 0.8 0.7 2.4v5.4h-2.2v-5.4q0-0.7-0.3-1.1-0.3-0.3-1-0.3-1 0-1.4 0.9v5.9h-2.3v-5.4q0-0.8-0.3-1.1-0.3-0.3-0.9-0.3-1 0-1.4 0.8v6h-2.3v-8.5z"/>
			<path id="path4570" fill-rule="evenodd" class="s1" d="m259.4 26.4q0 2-0.9 3.2-0.9 1.1-2.4 1.1-1.3 0-2.1-0.9v4h-2.2v-11.7h2l0.1 0.8q0.8-0.9 2.2-0.9 1.5 0 2.4 1.1 0.9 1.2 0.9 3.2zm-2.3-0.2q0-1.2-0.4-1.8-0.4-0.6-1.2-0.6-1.1 0-1.5 0.8v3.4q0.4 0.9 1.5 0.9 1.6 0 1.6-2.7z"/>
			<path id="path4572" class="s1" d="m260.9 18.6h2.2v12h-2.2z"/>
			<path id="path4574" fill-rule="evenodd" class="s1" d="m268.9 30.7q-1.9 0-3-1.1-1.2-1.2-1.2-3.1v-0.2q0-1.3 0.5-2.3 0.5-1 1.4-1.5 0.9-0.5 2-0.5 1.8 0 2.8 1.1 1 1 1 3v1h-5.4q0.1 0.8 0.6 1.3 0.6 0.5 1.4 0.5 1.3 0 2.1-0.9l1.1 1.2q-0.5 0.7-1.4 1.1-0.9 0.4-1.9 0.4zm-0.3-6.9q-0.6 0-1.1 0.4-0.4 0.5-0.5 1.3h3.2v-0.2q-0.1-0.7-0.5-1.1-0.3-0.4-1.1-0.4z"/>
			<path id="path4576" class="s1" d="m275.8 22.1v1q0.9-1.1 2.5-1.1 1.6 0 2.2 1.2 0.9-1.2 2.6-1.2 1.3 0 2 0.8 0.7 0.8 0.7 2.4v5.4h-2.3v-5.4q0-0.7-0.3-1.1-0.3-0.3-1-0.3-1 0-1.4 0.9v5.9h-2.2v-5.4q0-0.8-0.3-1.1-0.3-0.3-1-0.3-1 0-1.4 0.8v6h-2.2v-8.5z"/>
			<path id="path4578" fill-rule="evenodd" class="s1" d="m291.4 30.7q-1.9 0-3-1.1-1.2-1.2-1.2-3.1v-0.2q0-1.3 0.5-2.3 0.5-1 1.4-1.5 0.9-0.5 2-0.5 1.8 0 2.8 1.1 1 1 1 3v1h-5.4q0.1 0.8 0.6 1.3 0.6 0.5 1.4 0.5 1.3 0 2.1-0.9l1.1 1.2q-0.5 0.7-1.4 1.1-0.9 0.4-1.9 0.4zm-0.3-6.9q-0.6 0-1.1 0.4-0.4 0.5-0.5 1.3h3.2v-0.2q-0.1-0.7-0.5-1.1-0.3-0.4-1.1-0.4z"/>
			<path id="path4580" class="s1" d="m298.2 22.1l0.1 1q0.9-1.1 2.4-1.1 1.4 0 2 0.7 0.7 0.8 0.7 2.4v5.5h-2.3v-5.5q0-0.7-0.3-1-0.3-0.3-1-0.3-1 0-1.4 0.8v6h-2.3v-8.5z"/>
			<path id="path4582" class="s1" d="m307.8 20v2.1h1.5v1.7h-1.5v4.2q0 0.5 0.2 0.7 0.2 0.1 0.7 0.1 0.4 0.1 0.7 0v1.7q-0.7 0.2-1.4 0.2-2.4 0-2.4-2.4v-4.5h-1.3v-1.7h1.3v-2.1z"/>
			<path id="path4584" class="s1" d="m314.2 22.2q0-1.2 0.5-2 0.4-0.7 1.1-1.1 0.8-0.4 1.9-0.4 1.1 0 1.8 0.4 0.7 0.4 1.1 1.1 0.3 0.5 0.4 1.1l-1.8 0.4q-0.1-0.3-0.2-0.6-0.3-0.3-0.5-0.5-0.4-0.2-0.8-0.2-0.5 0-0.8 0.2-0.3 0.2-0.5 0.5-0.2 0.4-0.2 1.1v5q0 0.6 0.2 1 0.2 0.4 0.5 0.6 0.3 0.2 0.8 0.2 0.4 0 0.8-0.2 0.2-0.2 0.5-0.6 0.1-0.2 0.2-0.6l1.8 0.5q-0.1 0.5-0.4 1-0.4 0.7-1.1 1.1-0.7 0.5-1.8 0.5-1.1 0-1.9-0.5-0.7-0.4-1.1-1.1-0.5-0.8-0.5-1.9z"/>
			<path id="path4586" fill-rule="evenodd" class="s1" d="m322.2 25.6q0-1.2 0.5-2.1 0.5-0.7 1.2-1.1 0.7-0.4 1.8-0.4 1 0 1.8 0.4 0.7 0.4 1.1 1.1 0.5 0.9 0.5 2.1v1.4q0 1.3-0.5 2.1-0.4 0.8-1.1 1.1-0.8 0.5-1.8 0.5-1.1 0-1.8-0.5-0.7-0.3-1.2-1.1-0.5-0.8-0.5-2.1zm2.3 2.7q0.2 0.3 0.5 0.5 0.3 0.2 0.7 0.2 0.4 0 0.6-0.2 0.4-0.2 0.6-0.5 0.2-0.5 0.2-1.2v-1.5q0-0.7-0.2-1.2-0.2-0.3-0.6-0.5-0.2-0.2-0.6-0.2-0.4 0-0.7 0.2-0.3 0.2-0.5 0.5-0.3 0.5-0.3 1.2v1.5q0 0.7 0.3 1.2z"/>
			<path id="path4588" fill-rule="evenodd" class="s1" d="m330.4 22.1h1.9v1q0.4-0.6 0.9-0.9 0.5-0.2 1.1-0.2 0.7 0 1.3 0.2 0.6 0.4 0.9 1 0.6 1 0.6 2.4v1.4q0 1.5-0.6 2.4-0.3 0.6-0.9 1-0.6 0.3-1.3 0.3-0.6 0-1.1-0.3-0.5-0.3-0.9-0.9v4.3h-1.9zm2.2 6.3q0.2 0.3 0.5 0.5 0.2 0.1 0.6 0.1 0.4 0 0.6-0.2 0.4-0.1 0.6-0.5 0.2-0.5 0.2-1.2v-1.5q0-0.7-0.2-1.2-0.2-0.3-0.6-0.5-0.2-0.2-0.6-0.2-0.4 0-0.6 0.2-0.3 0.1-0.5 0.5-0.3 0.5-0.3 1.2v1.5q0 0.8 0.3 1.3z"/>
			<path id="path4590" class="s1" d="m338.4 22.7v-0.6h1.9v0.6q0 0.9 0.4 2.3l0.9 2.7 1-2.7q0.4-1.3 0.4-2.3v-0.6h1.9v0.6q0 1.2-0.5 2.8l-2.5 7.2q-0.1 0.4-0.1 1v0.1h-1.9v-0.1q0-1 0.2-1.6l0.6-1.7-1.8-4.9q-0.5-1.5-0.5-2.8z"/>
			<path id="path4592" class="s1" d="m350.4 26.1q0 1.8-0.5 3.4-0.5 1.6-1.4 2.9-1 1.2-2.1 1.7l-0.4-1.2q1.1-0.8 1.7-2.6 0.7-1.7 0.7-4v-0.4q0-2.3-0.7-4.1-0.6-1.8-1.7-2.7l0.4-1.2q1.1 0.5 2 1.7 0.9 1.2 1.5 2.8 0.5 1.6 0.5 3.4z"/>
			<path id="path4594" class="s2" d="m34 98.4q0.1 0.1 0.2 0.3 0.2 0.3 0.6 0.5 0.4 0.3 1.1 0.3 0.8 0 1.2-0.3 0.3-0.2 0.5-0.4 0.1-0.2 0.1-0.5 0-0.4-0.1-0.6-0.2-0.3-0.5-0.5-0.4-0.2-1.3-0.3-1.1-0.1-1.7-0.5-0.6-0.3-0.9-0.9-0.3-0.5-0.3-1.2 0-0.6 0.2-1.1 0.3-0.5 0.9-0.9 0.8-0.4 2-0.4 1.1 0 1.8 0.4 0.7 0.4 1 1 0.1 0.2 0.2 0.5l-1.2 0.4q0-0.2-0.1-0.3-0.2-0.4-0.6-0.6-0.4-0.3-1.1-0.3-0.8 0-1.3 0.3-0.2 0.2-0.4 0.5-0.1 0.2-0.1 0.5 0 0.3 0.1 0.5 0.2 0.3 0.5 0.5 0.4 0.3 1.3 0.4 1.1 0.1 1.7 0.4 0.5 0.3 0.9 0.9 0.3 0.6 0.3 1.3 0 0.6-0.3 1.1-0.3 0.5-0.8 0.8-0.8 0.4-2 0.4-1.1 0-1.9-0.4-0.6-0.3-0.9-1-0.2-0.2-0.2-0.4z"/>
			<path id="path4596" class="s1" d="m74.3 71.1h2.3v-9.4h-2.1v-1.2h3.4v10.6h2v1.2h-5.6z"/>
			<path id="path4598" fill-rule="evenodd" class="s1" d="m82 67.3q0-1.3 0.5-2.2 0.4-0.7 1-1 0.7-0.4 1.6-0.4 1 0 1.6 0.4 0.7 0.3 1.1 1 0.5 0.9 0.5 2.2v1.3h-5.1v0.2q0 0.9 0.4 1.5 0.2 0.5 0.7 0.7 0.4 0.3 0.9 0.3 0.6 0 1-0.3 0.4-0.2 0.7-0.7 0.1-0.3 0.2-0.6l1.2 0.5q-0.1 0.4-0.3 0.7-0.4 0.7-1.1 1.1-0.7 0.4-1.7 0.4-0.9 0-1.6-0.4-0.7-0.4-1.1-1.1-0.5-0.9-0.5-2.1zm1.2 0v0.1h3.8v-0.1q0-1-0.4-1.6-0.2-0.5-0.6-0.7-0.4-0.2-0.9-0.2-0.5 0-0.8 0.2-0.5 0.2-0.7 0.7-0.4 0.6-0.4 1.6z"/>
			<path id="path4600" class="s1" d="m89.9 63.8h1.8v-3.3h1.3v3.3h2.5v1.1h-2.5v4.3q0 0.9 0.3 1.4 0.2 0.4 0.5 0.5 0.2 0.2 0.5 0.2 0.4 0 0.6-0.2 0.1 0 0.3-0.2 0.4-0.4 0.5-1.4l1.3 0.3q-0.1 0.8-0.5 1.4-0.3 0.6-0.9 0.9-0.5 0.3-1.3 0.3-0.7 0-1.2-0.3-0.6-0.3-1-0.9-0.4-0.8-0.4-2v-4.3h-1.8z"/>
			<path id="path4602" class="s2" d="m107.2 70.1q0.1 0.2 0.2 0.3 0.2 0.4 0.6 0.6 0.4 0.3 1.1 0.3 0.7 0 1.2-0.3 0.3-0.2 0.5-0.4 0.1-0.3 0.1-0.6 0-0.3-0.2-0.5-0.1-0.3-0.4-0.5-0.4-0.2-1.3-0.3-1.2-0.2-1.7-0.5-0.6-0.3-0.9-0.9-0.3-0.6-0.3-1.3 0-0.6 0.2-1.1 0.3-0.4 0.9-0.8 0.8-0.4 2-0.4 1.1 0 1.8 0.4 0.6 0.3 1 1 0.1 0.2 0.2 0.5l-1.2 0.3q-0.1-0.1-0.1-0.2-0.2-0.4-0.6-0.6-0.5-0.3-1.1-0.3-0.8 0-1.3 0.3-0.3 0.2-0.4 0.4-0.2 0.3-0.2 0.5 0 0.4 0.2 0.6 0.2 0.3 0.5 0.5 0.4 0.2 1.3 0.3 1.1 0.2 1.7 0.5 0.5 0.3 0.8 0.9 0.4 0.5 0.4 1.2 0 0.7-0.3 1.1-0.3 0.5-0.8 0.9-0.8 0.4-2 0.4-1.1 0-1.9-0.4-0.6-0.4-0.9-1-0.2-0.2-0.3-0.5z"/>
			<path id="path4604" class="s1" d="m122.1 64.2h6.1v1.1h-6.1zm0 3.4h6.1v1.1h-6.1z"/>
			<path id="path4606" class="s1" d="m138 69.8q0 0 0 0l1.3-0.2q0 0.1 0 0.1 0 0.4 0.2 0.8 0.1 0.3 0.5 0.5 0.5 0.3 1.1 0.3 0.5 0 1-0.3 0.3-0.2 0.5-0.6 0.3-0.4 0.3-0.9 0-0.5-0.3-1.1-0.4-0.6-1.7-1.4-1.8-1-2.4-2-0.4-0.8-0.4-1.7 0-0.8 0.4-1.5 0.3-0.6 1-1 0.7-0.4 1.7-0.4 1 0 1.8 0.4 0.6 0.4 0.9 0.9 0.3 0.6 0.3 1.3 0 0 0 0l-1.2 0.2q0-0.1 0-0.1 0-0.4-0.2-0.8-0.2-0.3-0.6-0.5-0.4-0.2-1-0.2-0.6 0-1 0.2-0.4 0.2-0.6 0.6-0.2 0.4-0.2 0.9 0 0.5 0.2 1.1 0.5 0.7 1.8 1.4 1.7 1 2.3 2 0.5 0.8 0.5 1.7 0 0.8-0.4 1.5-0.4 0.6-1 1-0.7 0.4-1.7 0.4-1.1 0-1.8-0.4-0.6-0.4-1-0.9-0.3-0.6-0.3-1.3z"/>
			<path id="path4608" class="s1" d="m145.9 63.8h1.8v-3.3h1.3v3.3h2.5v1.1h-2.5v4.3q0 0.9 0.3 1.4 0.2 0.4 0.5 0.5 0.2 0.2 0.5 0.2 0.4 0 0.6-0.2 0.1 0 0.3-0.2 0.4-0.4 0.5-1.4l1.3 0.3q-0.1 0.8-0.5 1.4-0.3 0.6-0.9 0.9-0.5 0.3-1.3 0.3-0.7 0-1.2-0.3-0.6-0.3-1-0.9-0.4-0.8-0.4-2v-4.3h-1.8z"/>
			<path id="path4610" class="s1" d="m155 63.8h1.3v1.6q0.1-0.3 0.3-0.6 0.3-0.6 0.8-0.9 0.4-0.2 1-0.2 0.5 0 1 0.3 0.5 0.2 0.8 0.7 0.1 0.3 0.2 0.5l-1.2 0.6q0-0.2-0.1-0.4-0.2-0.3-0.5-0.5-0.2-0.1-0.5-0.1-0.4 0-0.7 0.2-0.4 0.2-0.6 0.7-0.5 0.8-0.5 2.1v4.5h-1.3z"/>
			<path id="path4612" class="s1" d="m162.3 71.1h2.3v-6.2h-2.1v-1.1h3.4v7.3h2v1.2h-5.6zm1.8-9.8q0-0.3 0.2-0.6 0.1-0.2 0.3-0.3 0.2-0.1 0.5-0.1 0.3 0 0.5 0.1 0.3 0.1 0.4 0.3 0.1 0.2 0.1 0.6 0 0.3-0.1 0.5-0.1 0.2-0.4 0.3-0.2 0.2-0.5 0.2-0.3 0-0.5-0.2-0.2-0.1-0.3-0.3-0.2-0.2-0.2-0.5z"/>
			<path id="path4614" class="s1" d="m170.1 63.8h1.3v1.2q0 0 0-0.1 0.4-0.6 0.9-0.9 0.5-0.3 1.2-0.3 0.7 0 1.2 0.3 0.5 0.3 0.9 0.9 0.6 1 0.6 2.4v5h-1.3v-5q0-1-0.4-1.6-0.2-0.5-0.6-0.7-0.3-0.2-0.8-0.2-0.4 0-0.8 0.2-0.3 0.2-0.6 0.7-0.3 0.6-0.3 1.6v5h-1.3z"/>
			<path id="path4616" fill-rule="evenodd" class="s1" d="m178.1 71.8q0.2-0.4 0.6-0.7-0.1-0.1-0.2-0.3-0.2-0.3-0.2-0.8 0-0.4 0.2-0.8 0.2-0.3 0.4-0.5-0.3-0.3-0.6-0.7-0.3-0.7-0.3-1.5 0-0.9 0.3-1.5 0.4-0.6 0.9-0.9 0.7-0.4 1.8-0.4 0.6 0 1 0.1h2.5v1.1h-0.9q0 0.1 0 0.1 0.4 0.6 0.4 1.5 0 0.8-0.4 1.5-0.3 0.5-0.9 0.9-0.7 0.4-1.7 0.4-0.7 0-1.2-0.2-0.1 0.1-0.2 0.2-0.2 0.2-0.2 0.5 0 0.3 0.2 0.5 0.3 0.3 1 0.3 0.1 0 0.1 0h0.8q1.1 0 1.8 0.4 0.6 0.3 0.9 0.8 0.2 0.5 0.3 1.2 0 0.7-0.4 1.3-0.3 0.6-0.9 0.9-0.8 0.5-2.1 0.5-1.2 0-2-0.5-0.6-0.3-1-0.9-0.3-0.6-0.3-1.3 0-0.7 0.3-1.2zm1 1.2q0 0.4 0.2 0.7 0.2 0.3 0.5 0.5 0.5 0.3 1.3 0.3 0.8 0 1.4-0.3 0.3-0.2 0.5-0.5 0.2-0.3 0.2-0.7 0-0.3-0.2-0.6-0.1-0.2-0.4-0.4-0.4-0.2-1.1-0.2h-0.8q-0.6 0-1 0.2-0.3 0.2-0.5 0.4-0.1 0.3-0.1 0.6zm0.3-5.6q0.2 0.3 0.6 0.5 0.4 0.2 1 0.2 0.6 0 1-0.2 0.3-0.2 0.5-0.5 0.2-0.4 0.2-0.9 0-0.5-0.2-0.9-0.2-0.3-0.5-0.5-0.4-0.2-0.8-0.3h-0.2q-0.6 0-1 0.3-0.4 0.2-0.6 0.5-0.2 0.4-0.2 0.9 0 0.5 0.2 0.9z"/>
			<path id="path4618" class="s1" d="m187.9 71.2q0-0.4 0.1-0.7 0.2-0.3 0.4-0.4 0.3-0.2 0.7-0.2 0.4 0 0.7 0.2 0.3 0.1 0.4 0.4 0.2 0.3 0.2 0.7 0 0.4-0.2 0.6-0.1 0.3-0.4 0.4-0.3 0.2-0.7 0.2-0.4 0-0.7-0.2-0.2-0.1-0.4-0.4-0.1-0.2-0.1-0.6zm0-6.3q0-0.4 0.1-0.7 0.2-0.2 0.4-0.4 0.3-0.1 0.7-0.1 0.4 0 0.7 0.1 0.3 0.2 0.4 0.4 0.2 0.3 0.2 0.7 0 0.4-0.2 0.7-0.1 0.3-0.4 0.4-0.3 0.2-0.7 0.2-0.4 0-0.7-0.2-0.2-0.1-0.4-0.4-0.1-0.3-0.1-0.7z"/>
			<path id="path4620" class="s1" d="m195.9 71.2q0-0.4 0.1-0.7 0.2-0.3 0.4-0.4 0.3-0.2 0.7-0.2 0.4 0 0.7 0.2 0.3 0.1 0.4 0.4 0.2 0.3 0.2 0.7 0 0.4-0.2 0.6-0.1 0.3-0.4 0.4-0.3 0.2-0.7 0.2-0.4 0-0.7-0.2-0.2-0.1-0.4-0.4-0.1-0.2-0.1-0.6zm0-6.3q0-0.4 0.1-0.7 0.2-0.2 0.4-0.4 0.3-0.1 0.7-0.1 0.4 0 0.7 0.1 0.3 0.2 0.4 0.4 0.2 0.3 0.2 0.7 0 0.4-0.2 0.7-0.1 0.3-0.4 0.4-0.3 0.2-0.7 0.2-0.4 0-0.7-0.2-0.2-0.1-0.4-0.4-0.1-0.3-0.1-0.7z"/>
			<path id="path4622" class="s1" d="m202.1 64.3h1.8v-1.5q0-1 0.4-1.6 0.2-0.5 0.7-0.8 0.5-0.3 1.2-0.3 0.7 0 1.2 0.3 0.5 0.3 0.8 0.8 0.2 0.4 0.3 0.9l-1.3 0.3q0-0.3-0.2-0.6-0.1-0.3-0.3-0.4-0.2-0.1-0.5-0.1-0.2 0-0.4 0.1-0.3 0.1-0.4 0.4-0.2 0.4-0.2 1v1.5h2.6v1.1h-2.6v6.9h-1.3v-6.9h-1.8z"/>
			<path id="path4624" class="s1" d="m211 63.8h1.3v1.6q0.1-0.3 0.3-0.6 0.3-0.6 0.8-0.9 0.4-0.2 1-0.2 0.5 0 1 0.3 0.5 0.2 0.8 0.7 0.1 0.3 0.2 0.5l-1.2 0.6q0-0.2-0.1-0.4-0.2-0.3-0.5-0.5-0.2-0.1-0.5-0.1-0.4 0-0.7 0.2-0.4 0.2-0.6 0.7-0.5 0.8-0.5 2.1v4.5h-1.3z"/>
			<path id="path4626" fill-rule="evenodd" class="s1" d="m218 67.3q0-1.3 0.5-2.2 0.4-0.7 1-1 0.7-0.4 1.6-0.4 1 0 1.6 0.4 0.7 0.3 1.1 1 0.5 0.9 0.5 2.2v1.5q0 1.3-0.5 2.1-0.4 0.7-1.1 1.1-0.6 0.4-1.6 0.4-0.9 0-1.6-0.4-0.6-0.4-1-1.1-0.5-0.8-0.5-2.1zm1.6 3q0.2 0.4 0.7 0.7 0.3 0.2 0.8 0.2 0.5 0 0.9-0.2 0.4-0.3 0.6-0.7 0.4-0.6 0.4-1.6v-1.4q0-1-0.4-1.6-0.2-0.5-0.6-0.7-0.4-0.2-0.9-0.2-0.5 0-0.8 0.2-0.5 0.2-0.7 0.7-0.4 0.6-0.4 1.6v1.4q0 1 0.4 1.6z"/>
			<path id="path4628" class="s1" d="m226 63.8h1.2v0.5q0.2-0.3 0.5-0.5 0.3-0.1 0.6-0.1 0.3 0 0.5 0.1 0.3 0.2 0.5 0.6 0.2 0.2 0.2 0.4 0.1-0.2 0.3-0.5 0.2-0.3 0.5-0.5 0.2-0.1 0.5-0.1 0.3 0 0.5 0.1 0.3 0.2 0.5 0.6 0.5 0.7 0.5 2v5.9h-1.3v-5.9q0-1.1-0.4-1.5-0.1-0.1-0.2-0.1-0.2 0-0.3 0.1-0.3 0.4-0.3 1.5v5.9h-1.3v-5.9q0-1.1-0.4-1.5-0.1-0.1-0.3-0.1-0.1 0-0.2 0.1-0.4 0.4-0.4 1.5v5.9h-1.2z"/>
			<path id="path4630" class="s1" d="m235.3 66.4q0-3.5 1.4-5.9 1-1.8 2.9-2.9l0.6 1q-1.5 1-2.4 2.5-1.2 2.1-1.2 5.3 0 3.3 1.2 5.4 0.9 1.5 2.4 2.5l-0.6 1q-1.9-1.1-2.9-3-1.4-2.3-1.4-5.9z"/>
			<path id="path4632" class="s1" d="m244.2 59.9q0 2.6-0.1 5.2h-1.2q-0.1-2.6-0.1-5.2zm3.2 0q0 2.6-0.1 5.2h-1.2q-0.1-2.6-0.1-5.2z"/>
			<path id="path4634" class="s1" d="m250.1 60.5h1.3v4.5q0 0 0-0.1 0.4-0.6 0.9-0.9 0.5-0.3 1.2-0.3 0.7 0 1.2 0.3 0.5 0.3 0.9 0.9 0.6 1 0.6 2.4v5h-1.3v-5q0-1-0.4-1.6-0.2-0.5-0.6-0.7-0.3-0.2-0.8-0.2-0.4 0-0.8 0.2-0.3 0.2-0.6 0.7-0.3 0.6-0.3 1.6v5h-1.3z"/>
			<path id="path4636" fill-rule="evenodd" class="s1" d="m258 67.3q0-1.3 0.5-2.2 0.4-0.7 1-1 0.7-0.4 1.6-0.4 1 0 1.6 0.4 0.7 0.3 1.1 1 0.5 0.9 0.5 2.2v1.3h-5.1v0.2q0 0.9 0.4 1.5 0.2 0.5 0.7 0.7 0.4 0.3 0.9 0.3 0.6 0 1-0.3 0.4-0.2 0.7-0.7 0.1-0.3 0.2-0.6l1.2 0.5q-0.1 0.4-0.3 0.7-0.4 0.7-1.1 1.1-0.7 0.4-1.7 0.4-0.9 0-1.6-0.4-0.7-0.4-1.1-1.1-0.5-0.9-0.5-2.1zm1.2 0v0.1h3.8v-0.1q0-1-0.4-1.6-0.2-0.5-0.6-0.7-0.4-0.2-0.9-0.2-0.5 0-0.8 0.2-0.5 0.2-0.7 0.7-0.4 0.6-0.4 1.6z"/>
			<path id="path4638" class="s1" d="m266.3 71.1h2.3v-9.4h-2.1v-1.2h3.4v10.6h2v1.2h-5.6z"/>
			<path id="path4640" class="s1" d="m274.3 71.1h2.3v-9.4h-2.1v-1.2h3.4v10.6h2v1.2h-5.6z"/>
			<path id="path4642" fill-rule="evenodd" class="s1" d="m282 67.3q0-1.3 0.5-2.2 0.4-0.7 1-1 0.7-0.4 1.6-0.4 1 0 1.6 0.4 0.7 0.3 1.1 1 0.5 0.9 0.5 2.2v1.5q0 1.3-0.5 2.1-0.4 0.7-1.1 1.1-0.6 0.4-1.6 0.4-0.9 0-1.6-0.4-0.6-0.4-1-1.1-0.5-0.8-0.5-2.1zm1.6 3q0.2 0.4 0.7 0.7 0.3 0.2 0.8 0.2 0.5 0 0.9-0.2 0.4-0.3 0.6-0.7 0.4-0.6 0.4-1.6v-1.4q0-1-0.4-1.6-0.2-0.5-0.6-0.7-0.4-0.2-0.9-0.2-0.5 0-0.8 0.2-0.5 0.2-0.7 0.7-0.4 0.6-0.4 1.6v1.4q0 1 0.4 1.6z"/>
			<path id="path4644" class="s1" d="m292.2 59.9q0 2.6-0.1 5.2h-1.2q-0.1-2.6-0.1-5.2zm3.2 0q0 2.6-0.1 5.2h-1.2q-0.1-2.6-0.1-5.2z"/>
			<path id="path4646" class="s1" d="m298 74.3q1.5-1 2.4-2.5 1.3-2.1 1.3-5.4 0-3.2-1.3-5.3-0.9-1.5-2.4-2.5l0.7-1q1.8 1.1 2.9 2.9 1.4 2.4 1.4 5.9 0 3.6-1.4 5.9-1.1 1.9-2.9 3z"/>
			<path id="path4648" class="s1" d="m307.8 74.9q0.3-0.4 0.5-0.7 0.5-0.9 0.7-1.8-0.3 0-0.6-0.1-0.2-0.2-0.4-0.5-0.1-0.2-0.1-0.6 0-0.4 0.1-0.7 0.2-0.3 0.4-0.4 0.3-0.2 0.7-0.2 0.4 0 0.7 0.2 0.3 0.1 0.4 0.4 0.2 0.3 0.2 0.7 0 0 0 0 0 1.7-1.1 3.5-0.2 0.4-0.5 0.9zm0.1-10q0-0.4 0.2-0.7 0.1-0.3 0.4-0.4 0.2-0.2 0.6-0.2 0.4 0 0.7 0.2 0.3 0.1 0.4 0.4 0.2 0.3 0.2 0.7 0 0.3-0.2 0.6-0.1 0.3-0.4 0.4-0.3 0.2-0.7 0.2-0.4 0-0.6-0.2-0.3-0.1-0.4-0.4-0.2-0.3-0.2-0.6z"/>
			<circle id="path4650" class="s2" cx="46.2" cy="67.5" r="8.6"/>
			<path id="path4652" class="s1" d="m74.3 131.3h2.3v-9.5h-2.1v-1.1h3.4v10.6h2v1.1h-5.6z"/>
			<path id="path4654" fill-rule="evenodd" class="s1" d="m82 127.5q0-1.3 0.5-2.2 0.4-0.7 1-1.1 0.7-0.4 1.6-0.4 1 0 1.6 0.4 0.7 0.4 1.1 1.1 0.5 0.9 0.5 2.2v1.3h-5.1v0.1q0 1 0.4 1.6 0.2 0.4 0.7 0.7 0.4 0.2 0.9 0.2 0.6 0 1-0.2 0.4-0.2 0.7-0.7 0.1-0.3 0.2-0.6l1.2 0.5q-0.1 0.3-0.3 0.7-0.4 0.7-1.1 1.1-0.7 0.4-1.7 0.4-0.9 0-1.6-0.4-0.7-0.4-1.1-1.1-0.5-0.9-0.5-2.2zm1.2 0v0.2h3.8v-0.2q0-0.9-0.4-1.6-0.2-0.4-0.6-0.7-0.4-0.2-0.9-0.2-0.5 0-0.8 0.2-0.5 0.3-0.7 0.7-0.4 0.7-0.4 1.6z"/>
			<path id="path4656" class="s1" d="m89.9 124h1.8v-3.3h1.3v3.3h2.5v1.1h-2.5v4.2q0 0.9 0.3 1.5 0.2 0.3 0.5 0.5 0.2 0.1 0.5 0.1 0.4 0 0.6-0.1 0.1-0.1 0.3-0.2 0.4-0.5 0.5-1.4l1.3 0.3q-0.1 0.7-0.5 1.3-0.3 0.6-0.9 1-0.5 0.3-1.3 0.3-0.7 0-1.2-0.3-0.6-0.4-1-1-0.4-0.8-0.4-2v-4.2h-1.8z"/>
			<path id="path4658" fill-rule="evenodd" class="s3" d="m106.1 120.7h1.3v4.5q0-0.1 0-0.1 0.4-0.6 0.9-1 0.5-0.3 1.2-0.3 0.7 0 1.3 0.4 0.6 0.3 1 1 0.5 0.9 0.5 2.3v1.4q0 1.4-0.5 2.4-0.4 0.6-1 1-0.6 0.3-1.3 0.3-0.7 0-1.2-0.3-0.5-0.3-0.9-1 0 0 0-0.1v1.2h-1.3zm1.6 9.9q0.3 0.5 0.6 0.7 0.4 0.2 0.8 0.2 0.5 0 0.9-0.2 0.4-0.3 0.6-0.7 0.4-0.6 0.4-1.6v-1.5q0-0.9-0.4-1.6-0.2-0.4-0.6-0.7-0.4-0.2-0.9-0.2-0.4 0-0.8 0.2-0.3 0.2-0.6 0.7-0.3 0.6-0.3 1.6v1.5q0 1 0.3 1.6z"/>
			<path id="path4660" class="s1" d="m122.1 124.3h6.1v1.2h-6.1zm0 3.4h6.1v1.1h-6.1z"/>
			<path id="path4662" class="s2" d="m139.2 130.3q0.1 0.2 0.2 0.3 0.2 0.4 0.6 0.6 0.4 0.2 1.1 0.2 0.7 0 1.2-0.2 0.3-0.2 0.5-0.5 0.1-0.2 0.1-0.5 0-0.3-0.2-0.6-0.1-0.3-0.4-0.4-0.4-0.3-1.3-0.4-1.2-0.1-1.7-0.4-0.6-0.3-0.9-0.9-0.3-0.6-0.3-1.3 0-0.6 0.2-1.1 0.3-0.5 0.9-0.8 0.8-0.5 2-0.5 1.1 0 1.8 0.5 0.6 0.3 1 0.9 0.1 0.3 0.2 0.5l-1.2 0.4q-0.1-0.1-0.1-0.3-0.2-0.4-0.6-0.6-0.5-0.2-1.1-0.2-0.8 0-1.3 0.3-0.3 0.1-0.4 0.4-0.2 0.2-0.2 0.5 0 0.3 0.2 0.6 0.2 0.3 0.5 0.5 0.4 0.2 1.3 0.3 1.1 0.1 1.7 0.5 0.5 0.3 0.8 0.8 0.4 0.6 0.4 1.3 0 0.6-0.3 1.1-0.3 0.5-0.8 0.8-0.8 0.5-2 0.5-1.1 0-1.9-0.5-0.6-0.3-0.9-0.9-0.2-0.2-0.3-0.5z"/>
			<path id="path4664" class="s1" d="m154.1 126h2.4v-2.7h1.3v2.7h2.4v1.2h-2.4v2.7h-1.3v-2.7h-2.4z"/>
			<path id="path4666" class="s1" d="m172.2 120.1q0 2.6-0.1 5.1h-1.2q-0.1-2.5-0.1-5.1zm3.2 0q0 2.6-0.1 5.1h-1.2q-0.1-2.5-0.1-5.1z"/>
			<path id="path4668" class="s1" d="m186.1 124h1.3v2.1q0 1.5 0.3 4.7l1-3.4h0.8l1 3.4q0.4-3.2 0.4-4.7v-2.1h1.3v2.1q0 1.9-1.3 6.3h-0.8l-1-3.6-1 3.6h-0.8q-1.2-4.4-1.2-6.3z"/>
			<path id="path4670" fill-rule="evenodd" class="s1" d="m194 127.5q0-1.3 0.5-2.2 0.4-0.7 1-1.1 0.7-0.4 1.6-0.4 1 0 1.6 0.4 0.7 0.4 1.1 1.1 0.5 0.9 0.5 2.2v1.4q0 1.3-0.5 2.2-0.4 0.7-1.1 1.1-0.6 0.4-1.6 0.4-0.9 0-1.6-0.4-0.6-0.4-1-1.1-0.5-0.9-0.5-2.2zm1.6 3.1q0.2 0.4 0.7 0.7 0.3 0.2 0.8 0.2 0.5 0 0.9-0.2 0.4-0.3 0.6-0.7 0.4-0.7 0.4-1.6v-1.5q0-0.9-0.4-1.6-0.2-0.4-0.6-0.7-0.4-0.2-0.9-0.2-0.5 0-0.8 0.2-0.5 0.3-0.7 0.7-0.4 0.7-0.4 1.6v1.5q0 0.9 0.4 1.6z"/>
			<path id="path4672" class="s1" d="m203 124h1.3v1.6q0.1-0.4 0.3-0.6 0.3-0.6 0.8-0.9 0.4-0.3 1-0.3 0.5 0 1 0.3 0.5 0.3 0.8 0.8 0.1 0.3 0.2 0.5l-1.2 0.5q0-0.1-0.1-0.3-0.2-0.3-0.5-0.5-0.2-0.1-0.5-0.1-0.4 0-0.7 0.2-0.4 0.2-0.6 0.6-0.5 0.8-0.5 2.1v4.5h-1.3z"/>
			<path id="path4674" class="s1" d="m210.3 131.3h2.3v-9.5h-2.1v-1.1h3.4v10.6h2v1.1h-5.6z"/>
			<path id="path4676" fill-rule="evenodd" class="s1" d="m218.5 125.2q0.4-0.7 1-1 0.5-0.4 1.2-0.4 0.7 0 1.2 0.3 0.6 0.4 0.9 1 0.1 0 0.1 0.1v-4.5h1.3v11.7h-1.3v-1.2q0 0.1-0.1 0.1-0.3 0.7-0.9 1-0.5 0.3-1.2 0.3-0.7 0-1.2-0.3-0.6-0.4-1-1-0.5-1-0.5-2.4v-1.4q0-1.4 0.5-2.3zm1.1 5.3q0.2 0.5 0.7 0.7 0.3 0.2 0.8 0.2 0.5 0 0.8-0.2 0.4-0.2 0.6-0.6 0.4-0.7 0.4-1.7v-1.4q0-1-0.4-1.7-0.2-0.4-0.6-0.6-0.3-0.2-0.8-0.2-0.5 0-0.8 0.2-0.5 0.2-0.7 0.7-0.4 0.6-0.4 1.6v1.4q0 1 0.4 1.6z"/>
			<path id="path4678" class="s1" d="m228.2 120.1q0 2.6-0.1 5.1h-1.2q-0.1-2.5-0.1-5.1zm3.2 0q0 2.6-0.1 5.1h-1.2q-0.1-2.5-0.1-5.1z"/>
			<path id="path4680" class="s1" d="m235.8 135.1q0.3-0.4 0.5-0.8 0.5-0.9 0.7-1.7-0.3 0-0.6-0.2-0.2-0.1-0.4-0.4-0.1-0.3-0.1-0.7 0-0.4 0.1-0.7 0.2-0.2 0.4-0.4 0.3-0.1 0.7-0.1 0.4 0 0.7 0.1 0.3 0.2 0.4 0.4 0.2 0.3 0.2 0.7 0 0 0 0 0 1.8-1.1 3.5-0.2 0.5-0.5 0.9zm0.1-10q0-0.4 0.2-0.7 0.1-0.2 0.4-0.4 0.2-0.1 0.6-0.1 0.4 0 0.7 0.1 0.3 0.2 0.4 0.4 0.2 0.3 0.2 0.7 0 0.4-0.2 0.7-0.1 0.3-0.4 0.4-0.3 0.2-0.7 0.2-0.4 0-0.6-0.2-0.3-0.1-0.4-0.4-0.2-0.3-0.2-0.7z"/>
			<path id="path4682" fill-rule="evenodd" class="s3" d="m32.3 149.5h1.3v4.5q0 0 0-0.1 0.4-0.6 0.9-0.9 0.5-0.3 1.2-0.3 0.7 0 1.3 0.3 0.6 0.3 1 1 0.5 0.9 0.5 2.3v1.5q0 1.4-0.5 2.3-0.4 0.7-1 1-0.6 0.3-1.3 0.3-0.7 0-1.2-0.3-0.5-0.3-0.9-1 0 0 0 0v1.2h-1.3zm1.6 9.9q0.3 0.4 0.7 0.6 0.3 0.2 0.7 0.2 0.5 0 0.9-0.2 0.4-0.3 0.6-0.7 0.4-0.6 0.4-1.6v-1.4q0-1-0.4-1.6-0.2-0.5-0.6-0.7-0.4-0.2-0.9-0.2-0.4 0-0.7 0.1-0.4 0.3-0.7 0.7-0.3 0.7-0.3 1.7v1.4q0 1 0.3 1.7z"/>
			<g id="g4684">
				<path id="path4686" class="s4" d="m46.3 180.6v11.8"/>
			</g>
			<g id="g4688">
				<path id="path4690" class="s5" d="m46.3 126.7v-53.4"/>
			</g>
			<circle id="path4692" class="s3" cx="46.3" cy="127.1" r="8.6"/>
			<path id="path4694" class="s3" d="m49.7 207h5.3l-3-5.3h0.2l6.5 6.5v0.1l-6.5 6.5h-0.2l3-5.3h-5.3q-1.4 0-2.7-0.5-1.4-0.6-2.3-1.6-1.4-1.3-3.3-1.3-2 0-3.4 1.3l-2 2.1-1.7-1.9 2-2q0.9-0.9 2.2-1.5 1.4-0.6 2.8-0.6 1.5 0 2.8 0.6 1.4 0.6 2.3 1.5 1.4 1.4 3.3 1.4z"/>
			<path id="path4696" class="s1" d="m111.3 206.8q0-1.8 0.5-3.4 0.5-1.6 1.4-2.9 0.9-1.4 2-1.9l0.2 0.9q-1.1 0.9-1.8 2.7-0.8 1.8-0.8 4v0.7q0 3 1.1 5.2 0.6 1.4 1.5 2.1l-0.2 0.9q-1.1-0.6-2-2-1.9-2.6-1.9-6.3z"/>
			<path id="path4698" class="s1" d="m120.1 209.8q0.6 0 1-0.4 0.4-0.3 0.5-0.9h2.1q0 0.9-0.5 1.6-0.5 0.7-1.3 1.1-0.8 0.4-1.7 0.4-1.8 0-2.9-1.2-1-1.1-1-3.2v-0.1q0-2 1-3.1 1.1-1.2 2.9-1.2 1.5 0 2.5 0.9 1 0.9 1 2.4h-2.1q-0.1-0.6-0.5-1.1-0.4-0.4-1-0.4-0.8 0-1.2 0.6-0.4 0.6-0.4 1.9v0.2q0 1.3 0.4 1.9 0.4 0.6 1.2 0.6z"/>
			<path id="path4700" fill-rule="evenodd" class="s1" d="m129.9 211.4q-0.2-0.3-0.3-0.7-0.8 0.9-2.1 0.9-1.2 0-2.1-0.7-0.8-0.8-0.8-1.9 0-1.3 1-2 1-0.7 2.9-0.7h1v-0.5q0-0.6-0.3-1-0.3-0.3-0.9-0.3-0.6 0-0.9 0.3-0.3 0.2-0.3 0.7h-2.3q0-0.7 0.5-1.4 0.4-0.6 1.3-0.9 0.8-0.4 1.8-0.4 1.6 0 2.5 0.8 0.9 0.8 0.9 2.2v3.7q0 1.2 0.3 1.8v0.1zm-1.8-1.5q0.5 0 0.9-0.3 0.4-0.2 0.6-0.6v-1.4h-0.8q-1.7 0-1.8 1.2v0.1q0 0.4 0.2 0.7 0.3 0.3 0.9 0.3z"/>
			<path id="path4702" class="s1" d="m135.6 203l0.1 0.9q0.9-1.1 2.4-1.1 1.4 0 2 0.8 0.7 0.8 0.7 2.4v5.4h-2.3v-5.4q0-0.7-0.3-1-0.3-0.4-1-0.4-1 0-1.4 0.9v5.9h-2.3v-8.4z"/>
			<path id="path4704" class="s1" d="m144.6 203l0.1 0.9q0.9-1.1 2.4-1.1 1.3 0 2 0.8 0.7 0.8 0.7 2.4v5.4h-2.3v-5.4q0-0.7-0.3-1-0.3-0.4-1-0.4-1 0-1.5 0.9v5.9h-2.2v-8.4z"/>
			<path id="path4706" fill-rule="evenodd" class="s1" d="m151.1 207.1q0-1.2 0.5-2.2 0.5-1 1.4-1.5 0.9-0.6 2.1-0.6 1.8 0 2.8 1.1 1.1 1 1.2 2.8v0.6q0 1.9-1 3.1-1.1 1.2-3 1.2-1.8 0-2.9-1.2-1.1-1.2-1.1-3.2zm2.3 0.2q0 1.2 0.5 1.8 0.4 0.7 1.2 0.7 0.9 0 1.3-0.7 0.5-0.6 0.5-2 0-1.2-0.5-1.8-0.4-0.7-1.3-0.7-0.8 0-1.2 0.7-0.5 0.6-0.5 2z"/>
			<path id="path4708" class="s1" d="m163.3 200.9v2.1h1.4v1.6h-1.4v4.2q-0.1 0.5 0.1 0.7 0.2 0.2 0.7 0.2 0.4 0 0.7 0v1.7q-0.7 0.2-1.4 0.2-2.4 0-2.4-2.4v-4.6h-1.2v-1.6h1.2v-2.1z"/>
			<path id="path4710" class="s1" d="m175.4 210.6q-0.9 1-2.5 1-1.4 0-2.1-0.8-0.7-0.8-0.7-2.3v-5.5h1.5v5.4q0 2 1.5 2 1.7 0 2.2-1.3v-6.1h1.5v8.4h-1.4z"/>
			<path id="path4712" class="s1" d="m183.9 209.2q0-0.6-0.5-0.9-0.4-0.4-1.5-0.6-1.1-0.2-1.7-0.6-0.7-0.3-1-0.7-0.3-0.5-0.3-1.1 0-1 0.9-1.8 0.9-0.7 2.2-0.7 1.5 0 2.4 0.8 0.8 0.7 0.9 1.8h-1.5q0-0.5-0.5-1-0.5-0.4-1.3-0.4-0.8 0-1.2 0.4-0.4 0.3-0.4 0.8 0 0.6 0.4 0.8 0.4 0.3 1.5 0.5 1 0.3 1.7 0.6 0.7 0.3 1 0.8 0.3 0.5 0.3 1.2 0 1.1-0.9 1.8-0.9 0.7-2.3 0.7-1 0-1.8-0.4-0.8-0.3-1.2-1-0.5-0.6-0.5-1.4h1.5q0 0.7 0.5 1.2 0.6 0.4 1.5 0.4 0.8 0 1.3-0.3 0.5-0.4 0.5-0.9z"/>
			<path id="path4714" fill-rule="evenodd" class="s1" d="m190.7 211.6q-1.7 0-2.8-1.1-1-1.2-1-3.1v-0.2q0-1.3 0.4-2.3 0.5-1 1.4-1.5 0.8-0.6 1.8-0.6 1.7 0 2.6 1.1 0.9 1.1 0.9 3.1v0.6h-5.7q0 1.3 0.7 2 0.7 0.8 1.8 0.8 0.8 0 1.3-0.3 0.5-0.3 0.9-0.8l0.9 0.6q-1 1.7-3.2 1.7zm-0.2-7.6q-0.8 0-1.4 0.6-0.6 0.7-0.7 1.8h4.2v-0.1q-0.1-1.1-0.6-1.7-0.5-0.6-1.5-0.6z"/>
			<path id="path4716" class="s2" d="m200.7 209.3q0 0.1 0.1 0.3 0.2 0.3 0.6 0.5 0.4 0.3 1.1 0.3 0.8 0 1.3-0.3 0.2-0.2 0.4-0.4 0.1-0.2 0.1-0.5 0-0.3-0.1-0.6-0.2-0.3-0.5-0.5-0.4-0.2-1.3-0.3-1.1-0.1-1.7-0.4-0.5-0.4-0.9-0.9-0.3-0.6-0.3-1.3 0-0.6 0.3-1.1 0.3-0.5 0.8-0.8 0.8-0.5 2-0.5 1.1 0 1.9 0.5 0.6 0.3 0.9 0.9 0.2 0.2 0.2 0.5l-1.1 0.4q-0.1-0.2-0.2-0.3-0.2-0.4-0.6-0.6-0.4-0.2-1.1-0.2-0.8 0-1.2 0.2-0.3 0.2-0.5 0.5-0.1 0.2-0.1 0.5 0 0.3 0.1 0.6 0.2 0.2 0.5 0.4 0.4 0.3 1.3 0.4 1.1 0.1 1.7 0.4 0.6 0.3 0.9 0.9 0.3 0.6 0.3 1.3 0 0.6-0.2 1.1-0.3 0.5-0.9 0.8-0.8 0.4-2 0.4-1.1 0-1.8-0.4-0.7-0.3-1-1-0.1-0.2-0.2-0.4z"/>
			<path id="path4718" fill-rule="evenodd" class="s1" d="m216.8 211.4q-0.1-0.2-0.2-0.9-1 1.1-2.4 1.1-1.2 0-2-0.7-0.8-0.7-0.8-1.8 0-1.3 1-2.1 1-0.7 2.8-0.7h1.4v-0.7q0-0.7-0.4-1.2-0.5-0.4-1.4-0.4-0.8 0-1.3 0.4-0.5 0.3-0.5 0.9h-1.4q0-0.6 0.4-1.2 0.4-0.6 1.2-0.9 0.8-0.4 1.7-0.4 1.5 0 2.3 0.7 0.8 0.8 0.9 2v3.9q0 1.2 0.3 1.9v0.1zm-2.4-1.1q0.7 0 1.3-0.3 0.6-0.4 0.8-1v-1.7h-1.1q-2.7 0-2.7 1.6 0 0.6 0.5 1 0.5 0.4 1.2 0.4z"/>
			<path id="path4720" class="s1" d="m221.7 203v1q1-1.2 2.6-1.2 2.7 0 2.7 3v5.6h-1.5v-5.6q0-0.9-0.4-1.3-0.4-0.5-1.2-0.5-0.8 0-1.3 0.4-0.5 0.4-0.8 1v6h-1.4v-8.4z"/>
			<path id="path4722" class="s1" d="m231.9 209.3l2-6.3h1.6l-3.4 9.7q-0.8 2.1-2.5 2.1h-0.3l-0.5-0.1v-1.2l0.3 0.1q0.8 0 1.2-0.3 0.4-0.3 0.7-1.1l0.3-0.9-3-8.3h1.5z"/>
			<path id="path4724" class="s1" d="m238.1 203l0.1 0.9q0.9-1.1 2.5-1.1 1.7 0 2.4 1.4 0.4-0.6 1.1-1 0.6-0.4 1.6-0.4 2.7 0 2.8 3v5.6h-1.4v-5.6q0-0.9-0.5-1.3-0.4-0.5-1.4-0.5-0.8 0-1.3 0.5-0.5 0.5-0.6 1.3v5.6h-1.5v-5.5q0-1.9-1.8-1.9-1.4 0-1.9 1.3v6.1h-1.5v-8.4z"/>
			<path id="path4726" fill-rule="evenodd" class="s1" d="m250.4 207.1q0-1.2 0.5-2.2 0.5-1 1.4-1.5 0.8-0.6 1.9-0.6 1.8 0 2.8 1.2 1.1 1.2 1.1 3.2v0.1q0 1.2-0.5 2.2-0.5 1-1.3 1.5-0.9 0.6-2 0.6-1.8 0-2.8-1.2-1.1-1.2-1.1-3.2zm1.5 0.2q0 1.4 0.6 2.2 0.7 0.9 1.8 0.9 1.1 0 1.7-0.9 0.6-0.8 0.6-2.4 0-1.4-0.6-2.2-0.7-0.9-1.8-0.9-1 0-1.7 0.9-0.6 0.8-0.6 2.4z"/>
			<path id="path4728" class="s1" d="m264 204.3q-0.3-0.1-0.7-0.1-1.4 0-1.9 1.2v6h-1.5v-8.4h1.4v0.9q0.7-1.1 2.1-1.1 0.4 0 0.6 0.1z"/>
			<path id="path4730" fill-rule="evenodd" class="s1" d="m268.7 211.6q-1.8 0-2.8-1.1-1.1-1.2-1.1-3.1v-0.2q0-1.3 0.5-2.3 0.4-1 1.3-1.5 0.9-0.6 1.9-0.6 1.6 0 2.5 1.1 1 1.1 1 3.1v0.6h-5.8q0.1 1.3 0.8 2 0.7 0.8 1.7 0.8 0.8 0 1.3-0.3 0.6-0.3 1-0.8l0.9 0.6q-1.1 1.7-3.2 1.7zm-0.2-7.6q-0.9 0-1.5 0.6-0.6 0.7-0.7 1.8h4.2v-0.1q0-1.1-0.6-1.7-0.5-0.6-1.4-0.6z"/>
			<path id="path4732" class="s1" d="m277 206.9q0 1.7-0.5 3.3-0.5 1.6-1.4 3-0.9 1.3-2 1.9l-0.3-0.9q1.2-0.9 2-2.8 0.7-2 0.7-4.4v-0.2q0-1.6-0.3-3.1-0.4-1.4-1-2.5-0.6-1.1-1.4-1.7l0.3-0.9q1.1 0.5 2 1.9 0.9 1.3 1.4 2.9 0.5 1.6 0.5 3.5z"/>
			<g id="g4734">
				<path id="path4736" class="s6" d="m449 87.8l40.1 23.1v18.2"/>
			</g>
			<g id="g4738">
				<path id="path4740" class="s7" d="m488.9 164.9v-35.6"/>
			</g>
			<path id="path4742" fill-rule="evenodd" class="s1" d="m431.6 22.7h-0.6v-0.7h-0.3v-0.7h0.6q0.3 0 0.3 0.4zm0 2.3h-0.6v-1.7h0.6zm-1.5-3.1h-1.5v-0.6h0.2v-1.3h-6.1v9.1h1.5v-1h0.6v1.7h-0.6v-0.1h-1.8q-0.3 0-0.3-0.3v-9.7q0-0.4 0.3-0.4h6.7q0.3 0 0.3 0.4v1.6h0.7zm1.5 5.5h-0.6v-1.7h0.6zm0 2.3h-0.6v-1.6h0.6zm-5.9-7.9h-0.9v0.8h-0.6v-1.1q0-0.3 0.3-0.3h1.2zm2.1 0h-1.5v-0.6h1.5zm2.2 5.1l-3.4 0.4 0.7-1.2q-1.6-1.2-2.5-1.4v0.2h-0.6v-0.3q-0.4 0-1 0v-1.2q0.2 0 0.5 0 0.1 0 0.5 0.1v-0.3h0.6v0.3q1.3 0.3 3.2 1.5l0.7-1.1zm1.6 4.1q0 0.3-0.3 0.3h-0.6v-0.6h0.3v-0.4h0.6zm-6.8-3.7h-0.7v-1.7h0.7zm5.3 4.1h-1.5v-0.7h1.5zm-2.3 0h-1.5v-0.6h1.5zm-2.1 0h-1.2q-0.4 0-0.4-0.3v-0.7h0.7v0.3h0.9z"/>
			<path id="path4744" class="s1" d="m445.6 28.9q0.6 0 1-0.3 0.4-0.4 0.5-1h2.1q0 0.9-0.5 1.6-0.5 0.7-1.3 1.1-0.8 0.4-1.7 0.4-1.9 0-2.9-1.1-1-1.2-1-3.2v-0.2q0-1.9 1-3.1 1-1.1 2.9-1.1 1.5 0 2.5 0.8 1 0.9 1 2.4h-2.1q-0.1-0.6-0.5-1-0.4-0.4-1-0.4-0.8 0-1.2 0.5-0.4 0.6-0.4 1.9v0.3q0 1.3 0.4 1.8 0.4 0.6 1.2 0.6z"/>
			<path id="path4746" fill-rule="evenodd" class="s1" d="m450.1 26.2q0-1.2 0.5-2.2 0.5-1 1.4-1.5 0.9-0.5 2.1-0.5 1.7 0 2.8 1 1.1 1 1.2 2.8v0.6q0 2-1.1 3.2-1.1 1.1-2.9 1.1-1.8 0-2.9-1.1-1.1-1.2-1.1-3.3zm2.3 0.2q0 1.2 0.4 1.9 0.5 0.6 1.3 0.6 0.8 0 1.3-0.6 0.5-0.7 0.5-2.1 0-1.1-0.5-1.8-0.5-0.6-1.3-0.6-0.8 0-1.3 0.6-0.4 0.7-0.4 2z"/>
			<path id="path4748" fill-rule="evenodd" class="s1" d="m467.1 26.4q0 2-0.9 3.2-0.8 1.1-2.4 1.1-1.2 0-2-0.9v4h-2.3v-11.7h2.1l0.1 0.8q0.8-0.9 2.1-0.9 1.6 0 2.5 1.1 0.8 1.2 0.8 3.2zm-2.2-0.2q0-1.2-0.5-1.8-0.4-0.6-1.2-0.6-1 0-1.4 0.8v3.4q0.4 0.9 1.5 0.9 1.6 0 1.6-2.7z"/>
			<path id="path4750" class="s1" d="m471.6 27.4l1.5-5.3h2.5l-3.4 9.8-0.2 0.4q-0.8 1.7-2.5 1.7-0.5 0-1-0.2v-1.7h0.3q0.7 0 1-0.2 0.3-0.2 0.5-0.6l0.2-0.7-2.9-8.5h2.4z"/>
			<path id="path4752" class="s1" d="m480.6 25.9q0-1.8 0.4-3.4 0.5-1.6 1.4-2.8 1-1.3 2.1-1.8l0.4 1.2q-1.2 0.9-1.8 2.7-0.6 1.7-0.6 4.1v0.2q0 2.4 0.6 4.2 0.6 1.7 1.8 2.6l-0.4 1.2q-1.1-0.5-2-1.7-0.9-1.2-1.4-2.8-0.5-1.5-0.5-3.3z"/>
			<path id="path4754" class="s1" d="m486.7 30.6v-6.8h-1.3v-1.7h1.3v-0.7q0-1.4 0.8-2.2 0.8-0.8 2.3-0.8 0.5 0 1.1 0.2v1.7q-0.3-0.1-0.7-0.1-1.2 0-1.2 1.2v0.7h1.6v1.7h-1.6v6.8z"/>
			<path id="path4756" fill-rule="evenodd" class="s1" d="m491.5 26.2q0-1.2 0.5-2.2 0.4-1 1.4-1.5 0.9-0.5 2.1-0.5 1.7 0 2.8 1 1 1 1.2 2.8v0.6q0 2-1.1 3.2-1.1 1.1-2.9 1.1-1.9 0-2.9-1.1-1.1-1.2-1.1-3.3zm2.2 0.2q0 1.2 0.5 1.9 0.4 0.6 1.3 0.6 0.8 0 1.3-0.6 0.4-0.7 0.4-2.1 0-1.1-0.4-1.8-0.5-0.6-1.3-0.6-0.9 0-1.3 0.6-0.5 0.7-0.5 2z"/>
			<path id="path4758" class="s1" d="m505.6 24.2q-0.4 0-0.8 0-1.3 0-1.7 0.8v5.6h-2.2v-8.5h2.1l0.1 1q0.7-1.1 1.9-1.1 0.3 0 0.7 0.1z"/>
			<path id="path4760" class="s1" d="m513.4 20v2.1h1.5v1.7h-1.5v4.2q0 0.5 0.2 0.7 0.2 0.1 0.7 0.1 0.4 0.1 0.7 0v1.7q-0.7 0.2-1.4 0.2-2.4 0-2.4-2.4v-4.5h-1.3v-1.7h1.3v-2.1z"/>
			<path id="path4762" class="s1" d="m519.3 27.4l1.6-5.3h2.4l-3.4 9.8-0.2 0.4q-0.8 1.7-2.5 1.7-0.5 0-1-0.2v-1.7h0.3q0.7 0 1-0.2 0.3-0.2 0.5-0.6l0.3-0.7-3-8.5h2.4z"/>
			<path id="path4764" fill-rule="evenodd" class="s1" d="m531.8 26.4q0 2-0.9 3.2-0.9 1.1-2.4 1.1-1.3 0-2.1-0.9v4h-2.2v-11.7h2.1v0.8q0.9-0.9 2.2-0.9 1.5 0 2.4 1.1 0.9 1.2 0.9 3.2zm-2.3-0.2q0-1.2-0.4-1.8-0.4-0.6-1.2-0.6-1.1 0-1.5 0.8v3.4q0.4 0.9 1.5 0.9 1.6 0 1.6-2.7z"/>
			<path id="path4766" fill-rule="evenodd" class="s1" d="m537.1 30.7q-1.9 0-3.1-1.1-1.1-1.2-1.1-3.1v-0.2q0-1.3 0.4-2.3 0.5-1 1.4-1.5 1-0.5 2.1-0.5 1.7 0 2.7 1.1 1 1 1 3v1h-5.3q0.1 0.8 0.6 1.3 0.6 0.5 1.4 0.5 1.3 0 2-0.9l1.2 1.2q-0.6 0.7-1.4 1.1-0.9 0.4-1.9 0.4zm-0.3-6.9q-0.7 0-1.1 0.4-0.4 0.5-0.5 1.3h3.1v-0.2q0-0.7-0.4-1.1-0.4-0.4-1.1-0.4z"/>
			<path id="path4768" class="s1" d="m546.4 28.2q0-0.4-0.4-0.6-0.4-0.3-1.3-0.5-3-0.6-3-2.5 0-1.1 0.9-1.9 0.9-0.7 2.4-0.7 1.6 0 2.6 0.7 1 0.8 1 2h-2.3q0-0.5-0.3-0.8-0.3-0.3-1-0.3-0.5 0-0.9 0.2-0.3 0.3-0.3 0.7 0 0.4 0.4 0.6 0.3 0.2 1.2 0.4 0.8 0.1 1.4 0.3 1.8 0.7 1.8 2.3 0 1.2-1 1.9-1 0.7-2.6 0.7-1 0-1.9-0.4-0.8-0.3-1.2-1-0.5-0.7-0.5-1.4h2.1q0.1 0.6 0.5 0.9 0.4 0.3 1.1 0.3 0.6 0 1-0.2 0.3-0.3 0.3-0.7z"/>
			<path id="path4770" class="s1" d="m556.7 20v2.1h1.5v1.7h-1.5v4.2q0 0.5 0.2 0.7 0.2 0.1 0.7 0.1 0.4 0.1 0.7 0v1.7q-0.7 0.2-1.4 0.2-2.4 0-2.4-2.4v-4.5h-1.2v-1.7h1.2v-2.1z"/>
			<path id="path4772" class="s1" d="m561.6 23q1-1 2.3-1 2.8 0 2.8 3.1v5.5h-2.3v-5.4q0-0.7-0.3-1.1-0.3-0.3-1-0.3-1 0-1.5 0.8v6h-2.2v-12h2.2z"/>
			<path id="path4774" fill-rule="evenodd" class="s1" d="m573.3 30.6q-0.1-0.4-0.2-0.8-0.8 0.9-2.1 0.9-1.3 0-2.1-0.7-0.8-0.7-0.8-1.8 0-1.4 1-2.1 1-0.7 2.9-0.7h1v-0.5q0-0.6-0.3-0.9-0.3-0.4-1-0.4-0.5 0-0.9 0.3-0.3 0.3-0.3 0.7h-2.2q0-0.7 0.4-1.3 0.5-0.6 1.3-1 0.8-0.3 1.9-0.3 1.5 0 2.4 0.7 1 0.8 1 2.2v3.7q0 1.2 0.3 1.8v0.2zm-1.9-1.6q0.5 0 0.9-0.2 0.5-0.3 0.7-0.6v-1.5h-0.9q-1.7 0-1.8 1.2v0.1q0 0.4 0.3 0.7 0.3 0.3 0.8 0.3z"/>
			<path id="path4776" class="s1" d="m579.7 20v2.1h1.5v1.7h-1.5v4.2q0 0.5 0.2 0.7 0.2 0.1 0.7 0.1 0.4 0.1 0.7 0v1.7q-0.7 0.2-1.4 0.2-2.4 0-2.4-2.4v-4.5h-1.3v-1.7h1.3v-2.1z"/>
			<path id="path4778" fill-rule="evenodd" class="s1" d="m586.1 26.3q0-2 0.8-3.2 0.9-1.1 2.5-1.1 1.2 0 2 0.9v-4.3h2.3v12h-2l-0.2-0.9q-0.8 1-2.1 1-1.5 0-2.4-1.1-0.9-1.2-0.9-3.3zm2.2 0.1q0 1.2 0.4 1.9 0.5 0.6 1.2 0.6 1.1 0 1.5-0.9v-3.3q-0.4-0.9-1.4-0.9-1.7 0-1.7 2.6z"/>
			<path id="path4780" fill-rule="evenodd" class="s1" d="m595.1 26.2q0-1.2 0.5-2.2 0.5-1 1.4-1.5 0.9-0.5 2.1-0.5 1.7 0 2.8 1 1.1 1 1.2 2.8v0.6q0 2-1.1 3.2-1.1 1.1-2.9 1.1-1.8 0-2.9-1.1-1.1-1.2-1.1-3.3zm2.3 0.2q0 1.2 0.4 1.9 0.5 0.6 1.3 0.6 0.8 0 1.3-0.6 0.5-0.7 0.5-2.1 0-1.1-0.5-1.8-0.5-0.6-1.3-0.6-0.8 0-1.3 0.6-0.4 0.7-0.4 2z"/>
			<path id="path4782" class="s1" d="m610.9 30.6h-2.3v-8.5h2.3zm-2.4-10.6q0-0.5 0.3-0.9 0.4-0.3 1-0.3 0.5 0 0.9 0.3 0.3 0.4 0.3 0.9 0 0.5-0.3 0.8-0.4 0.3-1 0.3-0.5 0-0.9-0.3-0.3-0.3-0.3-0.8z"/>
			<path id="path4784" class="s1" d="m614.9 22.1l0.1 1q0.9-1.1 2.4-1.1 1.6 0 2.2 1.2 0.9-1.2 2.6-1.2 1.3 0 2 0.8 0.7 0.8 0.7 2.4v5.4h-2.3v-5.4q0-0.7-0.3-1.1-0.2-0.3-1-0.3-1 0-1.4 0.9v5.9h-2.2v-5.4q0-0.8-0.3-1.1-0.3-0.3-1-0.3-0.9 0-1.4 0.8v6h-2.2v-8.5z"/>
			<path id="path4786" fill-rule="evenodd" class="s1" d="m634.2 26.4q0 2-0.9 3.2-0.9 1.1-2.4 1.1-1.2 0-2-0.9v4h-2.3v-11.7h2.1l0.1 0.8q0.8-0.9 2.1-0.9 1.6 0 2.4 1.1 0.9 1.2 0.9 3.2zm-2.2-0.2q0-1.2-0.5-1.8-0.4-0.6-1.2-0.6-1 0-1.4 0.8v3.4q0.4 0.9 1.4 0.9 1.7 0 1.7-2.7z"/>
			<path id="path4788" class="s1" d="m635.7 18.6h2.3v12h-2.3z"/>
			<path id="path4790" fill-rule="evenodd" class="s1" d="m643.7 30.7q-1.8 0-3-1.1-1.2-1.2-1.1-3.1v-0.2q-0.1-1.3 0.4-2.3 0.5-1 1.4-1.5 0.9-0.5 2.1-0.5 1.7 0 2.7 1.1 1 1 1 3v1h-5.4q0.1 0.8 0.7 1.3 0.5 0.5 1.4 0.5 1.3 0 2-0.9l1.2 1.2q-0.6 0.7-1.4 1.1-0.9 0.4-2 0.4zm-0.2-6.9q-0.7 0-1.1 0.4-0.4 0.5-0.5 1.3h3.1v-0.2q0-0.7-0.4-1.1-0.4-0.4-1.1-0.4z"/>
			<path id="path4792" class="s1" d="m650.6 22.1l0.1 1q0.9-1.1 2.4-1.1 1.7 0 2.3 1.2 0.9-1.2 2.5-1.2 1.4 0 2.1 0.8 0.6 0.8 0.6 2.4v5.4h-2.2v-5.4q0-0.7-0.3-1.1-0.3-0.3-1-0.3-1 0-1.4 0.9v5.9h-2.3v-5.4q0-0.8-0.3-1.1-0.2-0.3-0.9-0.3-1 0-1.4 0.8v6h-2.3v-8.5z"/>
			<path id="path4794" fill-rule="evenodd" class="s1" d="m666.2 30.7q-1.8 0-3-1.1-1.2-1.2-1.1-3.1v-0.2q-0.1-1.3 0.4-2.3 0.5-1 1.4-1.5 0.9-0.5 2.1-0.5 1.7 0 2.7 1.1 1 1 1 3v1h-5.4q0.1 0.8 0.7 1.3 0.5 0.5 1.4 0.5 1.3 0 2-0.9l1.2 1.2q-0.6 0.7-1.4 1.1-0.9 0.4-2 0.4zm-0.2-6.9q-0.7 0-1.1 0.4-0.4 0.5-0.5 1.3h3.1v-0.2q0-0.7-0.4-1.1-0.4-0.4-1.1-0.4z"/>
			<path id="path4796" class="s1" d="m673.1 22.1l0.1 1q0.9-1.1 2.4-1.1 1.3 0 2 0.7 0.6 0.8 0.7 2.4v5.5h-2.3v-5.5q0-0.7-0.3-1-0.3-0.3-1.1-0.3-0.9 0-1.4 0.8v6h-2.2v-8.5z"/>
			<path id="path4798" class="s1" d="m682.7 20v2.1h1.4v1.7h-1.4v4.2q0 0.5 0.2 0.7 0.2 0.1 0.7 0.1 0.3 0.1 0.6 0v1.7q-0.7 0.2-1.4 0.2-2.3 0-2.4-2.4v-4.5h-1.2v-1.7h1.2v-2.1z"/>
			<path id="path4800" class="s1" d="m689.1 22.2q0-1.2 0.5-2 0.4-0.7 1.1-1.1 0.8-0.4 1.8-0.4 1.1 0 1.9 0.4 0.7 0.4 1.1 1.1 0.3 0.5 0.4 1.1l-1.9 0.4q0-0.3-0.2-0.6-0.2-0.3-0.5-0.5-0.3-0.2-0.8-0.2-0.4 0-0.7 0.2-0.3 0.2-0.5 0.5-0.3 0.4-0.3 1.1v5q0 0.6 0.3 1 0.2 0.4 0.5 0.6 0.3 0.2 0.7 0.2 0.5 0 0.8-0.2 0.3-0.2 0.5-0.6 0.2-0.2 0.2-0.6l1.9 0.5q-0.1 0.5-0.4 1-0.4 0.7-1.1 1.1-0.8 0.5-1.9 0.5-1 0-1.8-0.5-0.7-0.4-1.1-1.1-0.5-0.8-0.5-1.9z"/>
			<path id="path4802" fill-rule="evenodd" class="s1" d="m697.1 25.6q0-1.2 0.5-2.1 0.4-0.7 1.1-1.1 0.8-0.4 1.8-0.4 1.1 0 1.8 0.4 0.7 0.4 1.1 1.1 0.5 0.9 0.5 2.1v1.4q0 1.3-0.5 2.1-0.4 0.8-1.1 1.1-0.7 0.5-1.8 0.5-1 0-1.8-0.5-0.7-0.3-1.1-1.1-0.5-0.8-0.5-2.1zm2.2 2.7q0.2 0.3 0.5 0.5 0.3 0.2 0.7 0.2 0.4 0 0.7-0.2 0.3-0.2 0.5-0.5 0.3-0.5 0.3-1.2v-1.5q0-0.7-0.3-1.2-0.2-0.3-0.5-0.5-0.3-0.2-0.7-0.2-0.4 0-0.7 0.2-0.3 0.2-0.5 0.5-0.3 0.5-0.3 1.2v1.5q0 0.7 0.3 1.2z"/>
			<path id="path4804" fill-rule="evenodd" class="s1" d="m705.3 22.1h1.9v1q0.3-0.6 0.9-0.9 0.4-0.2 1.1-0.2 0.7 0 1.2 0.2 0.6 0.4 1 1 0.5 1 0.5 2.4v1.4q0 1.5-0.5 2.4-0.4 0.6-1 1-0.5 0.3-1.2 0.3-0.7 0-1.1-0.3-0.6-0.3-0.9-0.9v4.3h-1.9zm2.2 6.3q0.1 0.3 0.4 0.5 0.3 0.1 0.6 0.1 0.4 0 0.7-0.2 0.3-0.1 0.5-0.5 0.3-0.5 0.3-1.2v-1.5q0-0.7-0.3-1.2-0.2-0.3-0.5-0.5-0.3-0.2-0.7-0.2-0.3 0-0.6 0.2-0.3 0.1-0.4 0.5-0.3 0.5-0.3 1.2v1.5q0 0.8 0.3 1.3z"/>
			<path id="path4806" class="s1" d="m713.3 22.7v-0.6h1.9v0.6q0 0.9 0.4 2.3l0.9 2.7 0.9-2.7q0.5-1.3 0.5-2.3v-0.6h1.9v0.6q0 1.2-0.5 2.8l-2.5 7.2q-0.1 0.4-0.1 1v0.1h-1.9v-0.1q0-1 0.2-1.6l0.6-1.7-1.8-4.9q-0.6-1.5-0.5-2.8z"/>
			<path id="path4808" class="s1" d="m725.3 26.1q0 1.8-0.5 3.4-0.5 1.6-1.5 2.9-0.9 1.2-2 1.7l-0.5-1.2q1.1-0.8 1.8-2.6 0.6-1.7 0.7-4v-0.4q-0.1-2.3-0.7-4.1-0.6-1.8-1.8-2.7l0.5-1.2q1 0.5 2 1.7 0.9 1.2 1.4 2.8 0.5 1.6 0.6 3.4z"/>
			<path id="path4810" class="s8" d="m434.8 108.8h2.3v-6.2h-2v-1.2h3.3v7.4h2v1.1h-5.6zm1.8-9.8q0-0.3 0.2-0.6 0.1-0.2 0.3-0.3 0.2-0.1 0.5-0.1 0.3 0 0.6 0.1 0.2 0.1 0.3 0.3 0.1 0.3 0.1 0.6 0 0.3-0.1 0.5-0.1 0.2-0.3 0.4-0.3 0.1-0.6 0.1-0.3 0-0.5-0.1-0.2-0.2-0.3-0.4-0.2-0.2-0.2-0.5z"/>
			<path id="path4812" class="s1" d="m517.3 70.2h2.2v-9.4h-2v-1.2h3.3v10.6h2v1.2h-5.5z"/>
			<path id="path4814" fill-rule="evenodd" class="s1" d="m524.9 66.4q0-1.3 0.5-2.2 0.4-0.7 1-1 0.7-0.4 1.7-0.4 0.9 0 1.5 0.4 0.7 0.3 1.1 1 0.5 0.9 0.5 2.2v1.3h-5v0.1q0 1 0.3 1.6 0.3 0.5 0.7 0.7 0.4 0.2 1 0.2 0.5 0 0.9-0.2 0.5-0.2 0.7-0.7 0.2-0.3 0.3-0.6l1.1 0.5q-0.1 0.4-0.3 0.7-0.4 0.7-1.1 1.1-0.7 0.4-1.6 0.4-1 0-1.7-0.4-0.7-0.4-1.1-1.1-0.5-0.9-0.5-2.2zm1.3 0v0.2h3.7v-0.2q0-0.9-0.3-1.6-0.3-0.4-0.7-0.6-0.4-0.3-0.8-0.3-0.5 0-0.9 0.3-0.4 0.2-0.7 0.6-0.3 0.7-0.3 1.6z"/>
			<path id="path4816" class="s1" d="m532.9 62.9h1.7v-3.3h1.3v3.3h2.6v1.1h-2.6v4.3q0 0.8 0.3 1.4 0.2 0.3 0.5 0.5 0.2 0.1 0.6 0.1 0.3 0 0.5-0.1 0.1-0.1 0.3-0.2 0.4-0.5 0.5-1.4l1.3 0.3q-0.1 0.8-0.5 1.4-0.3 0.5-0.9 0.9-0.5 0.3-1.2 0.3-0.8 0-1.3-0.3-0.6-0.4-0.9-0.9-0.5-0.9-0.5-2v-4.3h-1.7z"/>
			<path id="path4818" class="s8" d="m549.3 70.2h2.2v-6.2h-2v-1.1h3.3v7.3h2v1.2h-5.5zm1.8-9.8q0-0.4 0.1-0.6 0.1-0.2 0.3-0.3 0.2-0.1 0.6-0.1 0.3 0 0.5 0.1 0.2 0.1 0.3 0.3 0.1 0.2 0.2 0.6-0.1 0.3-0.2 0.5-0.1 0.2-0.3 0.3-0.2 0.2-0.5 0.2-0.4 0-0.6-0.2-0.2-0.1-0.3-0.3-0.1-0.2-0.1-0.5z"/>
			<path id="path4820" class="s1" d="m565 63.3h6.1v1.1h-6.1zm0 3.4h6.1v1.1h-6.1z"/>
			<path id="path4822" fill-rule="evenodd" class="s1" d="m580.9 66.7l3.6-7.1h1.5v7.1h1.1v1.1h-1.1v3.6h-1.2v-3.6h-3.9zm3.9 0v-5.1l-2.6 5.1z"/>
			<path id="path4824" class="s1" d="m588.9 62.1q0.1-0.7 0.4-1.2 0.4-0.6 1-1 0.7-0.4 1.7-0.4 1 0 1.7 0.4 0.7 0.4 1 1 0.5 0.8 0.5 1.7 0 0.9-0.6 1.8-0.4 0.9-1.8 2-1.4 1.2-1.9 2.1-0.4 0.7-0.5 1.7h4.7v1.2h-6.1v-0.1q0-2.1 0.7-3.4 0.6-0.9 2.1-2.1 1.2-1.1 1.7-1.8 0.4-0.7 0.4-1.4 0-0.6-0.3-1.1-0.2-0.4-0.6-0.6-0.4-0.3-1-0.3-0.5 0-0.9 0.3-0.4 0.2-0.7 0.6-0.2 0.3-0.2 0.8z"/>
			<path id="path4826" class="s1" d="m598.7 74q0.3-0.4 0.5-0.7 0.5-0.9 0.7-1.8-0.3 0-0.6-0.2-0.2-0.1-0.3-0.4-0.2-0.3-0.2-0.7 0-0.4 0.2-0.6 0.1-0.3 0.4-0.4 0.3-0.2 0.7-0.2 0.3 0 0.6 0.2 0.3 0.1 0.4 0.4 0.2 0.2 0.2 0.6 0 0.1 0 0.1 0 1.7-1 3.5-0.3 0.4-0.6 0.8zm0.1-10q0-0.4 0.2-0.7 0.1-0.2 0.4-0.3 0.3-0.2 0.7-0.2 0.4 0 0.7 0.2 0.2 0.1 0.4 0.3 0.1 0.3 0.1 0.7 0 0.4-0.1 0.7-0.2 0.3-0.4 0.4-0.3 0.2-0.7 0.2-0.4 0-0.7-0.2-0.3-0.1-0.4-0.4-0.2-0.3-0.2-0.7z"/>
			<path id="path4828" class="s1" d="m517.3 133.5h2.2v-9.4h-2v-1.2h3.3v10.6h2v1.2h-5.5z"/>
			<path id="path4830" fill-rule="evenodd" class="s1" d="m524.9 129.7q0-1.3 0.5-2.2 0.4-0.7 1-1 0.7-0.4 1.7-0.4 0.9 0 1.5 0.4 0.7 0.3 1.1 1 0.5 0.9 0.5 2.2v1.3h-5v0.2q0 0.9 0.3 1.5 0.3 0.5 0.7 0.7 0.4 0.3 1 0.3 0.5 0 0.9-0.3 0.5-0.2 0.7-0.7 0.2-0.3 0.3-0.6l1.1 0.5q-0.1 0.4-0.3 0.7-0.4 0.7-1.1 1.1-0.7 0.4-1.6 0.4-1 0-1.7-0.4-0.7-0.4-1.1-1.1-0.5-0.9-0.5-2.1zm1.3 0v0.1h3.7v-0.1q0-1-0.3-1.7-0.3-0.4-0.7-0.6-0.4-0.2-0.8-0.2-0.5 0-0.9 0.2-0.4 0.2-0.7 0.6-0.3 0.7-0.3 1.7z"/>
			<path id="path4832" class="s1" d="m532.9 126.2h1.7v-3.3h1.3v3.3h2.6v1.1h-2.6v4.3q0 0.8 0.3 1.4 0.2 0.3 0.5 0.5 0.2 0.2 0.6 0.2 0.3 0 0.5-0.2 0.1-0.1 0.3-0.2 0.4-0.5 0.5-1.4l1.3 0.3q-0.1 0.8-0.5 1.4-0.3 0.6-0.9 0.9-0.5 0.3-1.2 0.3-0.8 0-1.3-0.3-0.6-0.3-0.9-0.9-0.5-0.8-0.5-2v-4.3h-1.7z"/>
			<path id="path4834" class="s9" d="m549.5 135.4q0 0.5 0.2 0.8 0.2 0.4 0.6 0.6 0.3 0.1 0.6 0.1 0.4 0 0.7-0.1 0.3-0.2 0.5-0.6 0.3-0.5 0.3-1.4v-7.5h-2.1v-1.1h3.4v8.6q0 1.2-0.5 2-0.3 0.6-0.9 0.9-0.6 0.4-1.4 0.4-0.7 0-1.3-0.4-0.6-0.3-1-0.9-0.2-0.5-0.3-1zm2.3-11.7q0-0.3 0.2-0.5 0.1-0.2 0.3-0.4 0.2-0.1 0.5-0.1 0.3 0 0.6 0.1 0.2 0.2 0.3 0.4 0.1 0.2 0.1 0.5 0 0.3-0.1 0.6-0.1 0.2-0.3 0.3-0.3 0.1-0.6 0.1-0.3 0-0.5-0.1-0.2-0.1-0.3-0.3-0.2-0.3-0.2-0.6z"/>
			<path id="path4836" class="s1" d="m565 126.6h6.1v1.1h-6.1zm0 3.4h6.1v1.1h-6.1z"/>
			<path id="path4838" class="s8" d="m581.3 133.5h2.2v-6.2h-2v-1.1h3.3v7.3h2v1.2h-5.5zm1.8-9.8q0-0.4 0.1-0.6 0.1-0.2 0.3-0.3 0.2-0.1 0.6-0.1 0.3 0 0.5 0.1 0.2 0.1 0.3 0.3 0.1 0.2 0.2 0.6-0.1 0.3-0.2 0.5-0.1 0.2-0.3 0.3-0.2 0.2-0.5 0.2-0.4 0-0.6-0.2-0.2-0.1-0.3-0.3-0.1-0.2-0.1-0.5z"/>
			<path id="path4840" class="s1" d="m597 128.3h2.4v-2.8h1.3v2.8h2.4v1.1h-2.4v2.8h-1.3v-2.8h-2.4z"/>
			<path id="path4842" class="s1" d="m615.9 122.9h1.3v11.8h-1.3v-10.3l-2.1 1.3-0.7-0.9z"/>
			<path id="path4844" class="s1" d="m622.7 137.3q0.3-0.4 0.5-0.7 0.5-0.9 0.7-1.8-0.3 0-0.6-0.1-0.2-0.2-0.3-0.5-0.2-0.3-0.2-0.7 0-0.3 0.2-0.6 0.1-0.3 0.4-0.4 0.3-0.2 0.7-0.2 0.3 0 0.6 0.2 0.3 0.1 0.4 0.4 0.2 0.3 0.2 0.6 0 0.1 0 0.1 0 1.7-1 3.5-0.3 0.4-0.6 0.8zm0.1-10q0-0.3 0.2-0.6 0.1-0.3 0.4-0.4 0.3-0.2 0.7-0.2 0.4 0 0.7 0.2 0.2 0.1 0.4 0.4 0.1 0.3 0.1 0.6 0 0.4-0.1 0.7-0.2 0.3-0.4 0.4-0.3 0.2-0.7 0.2-0.4 0-0.7-0.2-0.3-0.1-0.4-0.4-0.2-0.3-0.2-0.7z"/>
			<path id="path4846" class="s9" d="m475.4 156.7q0.1 0.4 0.3 0.8 0.2 0.3 0.5 0.5 0.3 0.2 0.7 0.2 0.4 0 0.6-0.2 0.4-0.2 0.5-0.5 0.4-0.6 0.4-1.4v-7.5h-2.2v-1.1h3.5v8.6q-0.1 1.2-0.5 2-0.4 0.6-0.9 0.9-0.6 0.3-1.4 0.3-0.8 0-1.4-0.3-0.6-0.3-0.9-0.9-0.3-0.5-0.4-1zm2.4-11.7q0-0.3 0.1-0.6 0.1-0.2 0.3-0.3 0.3-0.1 0.6-0.1 0.3 0 0.5 0.1 0.2 0.1 0.3 0.3 0.2 0.2 0.2 0.6 0 0.3-0.2 0.5-0.1 0.2-0.3 0.3-0.2 0.2-0.5 0.2-0.3 0-0.6-0.2-0.2-0.1-0.3-0.3-0.1-0.2-0.1-0.5z"/>
			<g id="g4848">
				<path id="path4850" class="s6" d="m448.9 164.8v-99.5"/>
			</g>
			<circle id="path4852" class="s8" cx="448.7" cy="66.4" r="8.6"/>
			<g id="g4854">
				<path id="path4856" class="s10" d="m488.9 168.8v11.8"/>
			</g>
			<circle id="path4858" class="s9" cx="489.1" cy="130.8" r="8.6"/>
			<g id="g4860">
				<path id="path4862" class="s11" d="m448.9 168.8v11.8"/>
			</g>
			<path id="path4864" fill-rule="evenodd" class="s8" d="m456.1 195.5h-1v-1.1h-0.4v-1h0.9q0.5 0 0.5 0.5zm0 3.7h-1v-2.7h1zm-2.4-4.9h-2.4v-1h0.3v-2.1h-9.5v14.4h2.2v-1.6h1v2.7h-1v-0.1h-2.7q-0.6 0-0.6-0.5v-15.4q0-0.5 0.6-0.5h10.5q0.5 0 0.5 0.5v2.6h1.1zm2.4 8.7h-1v-2.7h1zm0 3.7h-1v-2.6h1zm-9.3-12.4h-1.5v1.1h-1v-1.6q0-0.5 0.5-0.5h2zm3.3 0h-2.4v-1h2.4zm3.4 8.1l-5.2 0.6 1.1-2q-2.7-1.8-4.1-2.1v0.3h-1v-0.4q-0.6-0.1-1.4-0.1v-1.8q0.2-0.1 0.7-0.1 0.1 0 0.7 0.1v-0.4h1v0.5q2.1 0.4 5.2 2.4l1-1.8zm2.6 6.5q0 0.5-0.5 0.5h-1v-1h0.5v-0.5h1zm-10.8-6h-1.1v-2.7h1.1zm8.3 6.5h-2.3v-1h2.3zm-3.6 0h-2.4v-1h2.4zm-3.3 0h-1.9q-0.6 0-0.6-0.5v-1.1h1.1v0.6h1.4z"/>
			<path id="path4866" fill-rule="evenodd" class="s9" d="m498.5 195.4h-1v-1.1h-0.5v-1h1q0.5 0 0.5 0.5zm0 3.7h-1v-2.6h1zm-2.4-5h-2.4v-1h0.3v-2.1h-9.6v14.4l2.3 0.1v-1.6h1v2.6h-1l-2.8-0.1q-0.5 0-0.5-0.5v-15.4q0-0.5 0.5-0.5h10.6q0.5 0 0.5 0.5v2.6h1.1zm2.4 8.7h-1v-2.7h1zm0 3.7h-1v-2.6h1zm-9.4-12.4h-1.4v1.2h-1v-1.7q0-0.5 0.5-0.5h1.9zm3.4 0h-2.4v-1h2.4zm3.4 8.1l-5.3 0.6 1.1-1.9q-2.7-1.9-4-2.2v0.3h-1v-0.4q-0.6-0.1-1.5-0.1v-1.8q0.2 0 0.8 0 0 0 0.7 0v-0.4h1v0.6q2.1 0.4 5.1 2.3l1-1.8zm2.6 6.5q0 0.5-0.5 0.5h-1v-1h0.5v-0.5h1zm-10.8-6h-1v-2.7h1zm8.4 6.5h-2.4v-1h2.4zm-3.6 0h-2.4v-1h2.4zm-3.4 0h-1.9q-0.5 0-0.5-0.5v-1.1h1v0.6h1.4z"/>
			<path id="path4868" class="s1" d="m546.3 198.7q-0.1-1.8 0.4-3.4 0.5-1.6 1.4-3 1-1.3 2-1.8l0.3 0.9q-1.2 0.9-1.9 2.7-0.7 1.8-0.8 4v0.7q0 3 1.1 5.2 0.7 1.3 1.6 2.1l-0.3 0.9q-1.1-0.6-2-2-1.9-2.6-1.8-6.3z"/>
			<path id="path4870" class="s1" d="m555.2 202.3q0.7 0 1.3-0.5 0.6-0.4 0.7-1.2h1.3q0 0.8-0.5 1.4-0.5 0.7-1.2 1.1-0.8 0.4-1.6 0.4-1.8 0-2.8-1.2-1-1.1-1-3.1v-0.3q0-1.2 0.4-2.2 0.5-0.9 1.3-1.5 0.9-0.5 2.1-0.5 1.4 0 2.3 0.9 1 0.8 1 2.2h-1.3q-0.1-0.9-0.7-1.4-0.5-0.5-1.3-0.5-1.2 0-1.8 0.8-0.6 0.8-0.6 2.3v0.2q0 1.5 0.6 2.3 0.6 0.8 1.8 0.8z"/>
			<path id="path4872" fill-rule="evenodd" class="s1" d="m565.4 203.3q-0.2-0.2-0.2-0.9-1 1.1-2.4 1.1-1.3 0-2.1-0.7-0.8-0.7-0.8-1.8 0-1.4 1-2.1 1-0.7 2.8-0.7h1.4v-0.7q0-0.7-0.4-1.2-0.5-0.4-1.4-0.4-0.7 0-1.2 0.4-0.6 0.3-0.6 0.9h-1.4q0-0.6 0.4-1.2 0.5-0.6 1.2-0.9 0.8-0.4 1.7-0.4 1.5 0 2.3 0.7 0.8 0.8 0.9 2v3.9q0 1.2 0.3 1.9v0.1zm-2.4-1.1q0.7 0 1.3-0.4 0.6-0.3 0.9-0.9v-1.7h-1.2q-2.6 0-2.6 1.6 0 0.6 0.4 1 0.5 0.4 1.2 0.4z"/>
			<path id="path4874" class="s1" d="m570.2 194.8l0.1 1.1q0.9-1.2 2.5-1.2 2.7 0 2.7 3v5.6h-1.4v-5.6q0-0.9-0.5-1.3-0.4-0.5-1.2-0.5-0.7 0-1.3 0.4-0.5 0.4-0.8 1v6h-1.4v-8.5z"/>
			<path id="path4876" class="s1" d="m586.6 201.1q0-0.6-0.5-0.9-0.4-0.4-1.5-0.6-1.1-0.2-1.7-0.6-0.7-0.3-1-0.7-0.3-0.5-0.3-1.1 0-1.1 0.9-1.8 0.9-0.7 2.2-0.7 1.5 0 2.4 0.8 0.9 0.7 0.9 1.8h-1.5q0-0.6-0.5-1-0.5-0.4-1.3-0.4-0.7 0-1.2 0.3-0.4 0.4-0.4 0.9 0 0.5 0.4 0.8 0.4 0.3 1.5 0.5 1.1 0.3 1.7 0.6 0.7 0.3 1 0.8 0.3 0.5 0.3 1.2 0 1.1-0.9 1.8-0.9 0.7-2.3 0.7-1 0-1.8-0.4-0.8-0.4-1.2-1-0.5-0.6-0.5-1.4h1.5q0 0.7 0.6 1.2 0.5 0.4 1.4 0.4 0.8 0 1.3-0.3 0.5-0.4 0.5-0.9z"/>
			<path id="path4878" class="s1" d="m591.9 192.8v2h1.6v1.2h-1.6v5.2q0 0.5 0.2 0.8 0.2 0.2 0.7 0.2 0.3 0 0.7-0.1v1.2q-0.6 0.2-1.1 0.2-1 0-1.5-0.6-0.5-0.6-0.5-1.7v-5.2h-1.5v-1.2h1.5v-2z"/>
			<path id="path4880" class="s1" d="m596.7 203.3h-1.4v-8.5h1.4zm-1.5-10.6q0-0.4 0.2-0.6 0.2-0.3 0.6-0.3 0.4 0 0.6 0.3 0.3 0.2 0.3 0.6 0 0.3-0.3 0.5-0.2 0.3-0.6 0.3-0.4 0-0.6-0.3-0.2-0.2-0.2-0.5z"/>
			<path id="path4882" class="s1" d="m599.2 191.3h1.4v12h-1.4z"/>
			<path id="path4884" class="s1" d="m603 191.3h1.5v12h-1.5z"/>
			<path id="path4886" class="s1" d="m616 202.5q-0.9 1-2.5 1-1.4 0-2.1-0.8-0.7-0.8-0.7-2.4v-5.5h1.4v5.5q0 1.9 1.6 1.9 1.7 0 2.2-1.2v-6.2h1.5v8.5h-1.4z"/>
			<path id="path4888" class="s1" d="m624.5 201.1q0-0.6-0.5-0.9-0.4-0.4-1.5-0.6-1.1-0.2-1.8-0.6-0.6-0.3-0.9-0.7-0.3-0.5-0.3-1.1 0-1.1 0.9-1.8 0.8-0.7 2.2-0.7 1.5 0 2.3 0.8 0.9 0.7 0.9 1.8h-1.4q0-0.6-0.5-1-0.5-0.4-1.3-0.4-0.8 0-1.2 0.3-0.5 0.4-0.5 0.9 0 0.5 0.5 0.8 0.4 0.3 1.5 0.5 1 0.3 1.7 0.6 0.7 0.3 1 0.8 0.3 0.5 0.3 1.2 0 1.1-0.9 1.8-0.9 0.7-2.3 0.7-1.1 0-1.8-0.4-0.8-0.4-1.3-1-0.4-0.6-0.4-1.4h1.4q0.1 0.7 0.6 1.2 0.6 0.4 1.5 0.4 0.8 0 1.3-0.3 0.5-0.4 0.5-0.9z"/>
			<path id="path4890" fill-rule="evenodd" class="s1" d="m631.3 203.5q-1.7 0-2.8-1.2-1.1-1.1-1.1-3v-0.2q0-1.3 0.5-2.3 0.5-1 1.4-1.5 0.8-0.6 1.8-0.6 1.7 0 2.6 1.1 0.9 1.1 0.9 3.1v0.6h-5.7q0 1.2 0.7 2 0.7 0.8 1.8 0.8 0.7 0 1.3-0.3 0.5-0.3 0.9-0.9l0.9 0.7q-1.1 1.7-3.2 1.7zm-0.2-7.6q-0.9 0-1.5 0.6-0.5 0.7-0.7 1.8h4.3v-0.1q-0.1-1.1-0.6-1.7-0.6-0.6-1.5-0.6z"/>
			<path id="path4892" class="s8" d="m640.4 202.2h2.2v-6.2h-2v-1.2h3.3v7.4h2v1.1h-5.5zm1.7-9.8q0-0.3 0.2-0.5 0.1-0.3 0.3-0.4 0.2-0.1 0.5-0.1 0.4 0 0.6 0.1 0.2 0.1 0.3 0.4 0.1 0.2 0.1 0.5 0 0.3-0.1 0.5-0.1 0.2-0.3 0.4-0.2 0.1-0.6 0.1-0.3 0-0.5-0.1-0.2-0.2-0.3-0.4-0.2-0.2-0.2-0.5z"/>
			<path id="path4894" fill-rule="evenodd" class="s1" d="m657.4 203.3q-0.1-0.2-0.2-0.9-1 1.1-2.4 1.1-1.2 0-2-0.7-0.8-0.7-0.8-1.8 0-1.4 1-2.1 1-0.7 2.8-0.7h1.4v-0.7q0-0.7-0.5-1.2-0.4-0.4-1.3-0.4-0.8 0-1.3 0.4-0.5 0.3-0.5 0.9h-1.5q0-0.6 0.5-1.2 0.4-0.6 1.2-0.9 0.8-0.4 1.7-0.4 1.5 0 2.3 0.7 0.8 0.8 0.9 2v3.9q0 1.2 0.2 1.9v0.1zm-2.3-1.1q0.6 0 1.2-0.4 0.6-0.3 0.9-0.9v-1.7h-1.1q-2.7 0-2.7 1.6 0 0.6 0.5 1 0.4 0.4 1.2 0.4z"/>
			<path id="path4896" class="s1" d="m662.3 194.8v1.1q1-1.2 2.6-1.2 2.7 0 2.7 3v5.6h-1.5v-5.6q0-0.9-0.4-1.3-0.4-0.5-1.3-0.5-0.7 0-1.2 0.4-0.5 0.4-0.8 1v6h-1.5v-8.5z"/>
			<path id="path4898" fill-rule="evenodd" class="s1" d="m669.4 199q0-1.9 0.9-3.1 1-1.2 2.5-1.2 1.4 0 2.3 1v-4.4h1.5v12h-1.4v-0.9q-0.9 1.1-2.5 1.1-1.4 0-2.4-1.2-0.9-1.2-0.9-3.2zm1.5 0.2q0 1.4 0.5 2.2 0.6 0.8 1.7 0.8 1.4 0 2-1.2v-3.9q-0.6-1.2-2-1.2-1 0-1.7 0.8-0.5 0.9-0.5 2.5z"/>
			<path id="path4900" class="s9" d="m683.1 204q0.1 0.5 0.3 0.8 0.2 0.4 0.5 0.6 0.3 0.2 0.7 0.2 0.3 0 0.6-0.2 0.3-0.2 0.5-0.6 0.3-0.5 0.4-1.3v-7.5h-2.2v-1.2h3.4v8.7q0 1.1-0.4 1.9-0.4 0.6-1 1-0.6 0.3-1.3 0.3-0.8 0-1.4-0.3-0.6-0.4-0.9-1-0.3-0.4-0.4-1zm2.4-11.7q0-0.3 0.1-0.5 0.1-0.2 0.3-0.3 0.2-0.2 0.6-0.2 0.3 0 0.5 0.2 0.2 0.1 0.3 0.3 0.2 0.2 0.2 0.5 0 0.4-0.2 0.6-0.1 0.2-0.3 0.3-0.2 0.1-0.5 0.1-0.4 0-0.6-0.1-0.2-0.1-0.3-0.3-0.1-0.2-0.1-0.6z"/>
			<path id="path4902" class="s1" d="m694.1 198.8q0 1.7-0.4 3.3-0.5 1.6-1.5 3-0.9 1.3-1.9 1.9l-0.3-0.9q1.2-0.9 1.9-2.9 0.7-1.9 0.8-4.3v-0.2q0-1.7-0.4-3.1-0.3-1.4-1-2.5-0.6-1.1-1.3-1.8l0.3-0.8q1 0.5 1.9 1.9 1 1.3 1.4 2.9 0.5 1.6 0.5 3.5z"/>
		</g>
	</g>
</svg>